<svg width="40" height="40" viewBox="0 0 40 40" fill="none" xmlns="http://www.w3.org/2000/svg">
<path d="M28.6948 14.1362L27.4948 29.7646C27.4948 30.4138 27.2369 31.0363 26.7779 31.4953C26.3189 31.9544 25.6963 32.2122 25.0472 32.2122H14.954C14.3049 32.2122 13.6823 31.9544 13.2233 31.4953C12.7643 31.0363 12.5064 30.4138 12.5064 29.7646L11.3064 14.1362" stroke="#020202" stroke-width="0.944952" stroke-miterlimit="10" stroke-linecap="round"/>
<path d="M24.036 12.5632H16.748" stroke="#020202" stroke-width="0.944952" stroke-miterlimit="10" stroke-linecap="round"/>
<path d="M14.0628 12.563H8.88V11.0474C8.88 10.7504 8.998 10.4655 9.20805 10.2555C9.41809 10.0454 9.70296 9.92742 10 9.92742H17.534C17.534 9.92342 17.534 9.91982 17.534 9.91622C17.534 8.74022 18.6384 7.78662 20.0004 7.78662C21.3624 7.78662 22.4668 8.74022 22.4668 9.91622C22.4668 9.91982 22.4668 9.92342 22.4668 9.92742H30C30.297 9.92742 30.5819 10.0454 30.792 10.2555C31.002 10.4655 31.12 10.7504 31.12 11.0474V12.563H26.8548" stroke="#020202" stroke-width="0.944952" stroke-miterlimit="10" stroke-linecap="round"/>
<path d="M15.8944 18.2251V28.0295" stroke="#020202" stroke-width="0.944952" stroke-miterlimit="10" stroke-linecap="round"/>
<path d="M20 18.2251V28.0295" stroke="#020202" stroke-width="0.944952" stroke-miterlimit="10" stroke-linecap="round"/>
<path d="M24.1056 18.2251V28.0295" stroke="#020202" stroke-width="0.944952" stroke-miterlimit="10" stroke-linecap="round"/>
</svg>
