<svg width="56" height="56" viewBox="0 0 56 56" fill="none" xmlns="http://www.w3.org/2000/svg">
<line x1="28.5" y1="13.623" x2="28.5" y2="49.623" stroke="#07000E"/>
<mask id="path-2-inside-1_158_5324" fill="white">
<path fill-rule="evenodd" clip-rule="evenodd" d="M28.5 44.2465C34.2567 40.0662 38 33.2819 38 25.6233C38 17.9646 34.2567 11.1803 28.5 7C22.7433 11.1803 19 17.9646 19 25.6233C19 33.2819 22.7433 40.0662 28.5 44.2465Z"/>
</mask>
<path d="M28.5 44.2465L27.9124 45.0557L28.5 45.4823L29.0876 45.0557L28.5 44.2465ZM28.5 7L29.0876 6.19083L28.5 5.76416L27.9124 6.19083L28.5 7ZM37 25.6233C37 32.9482 33.4212 39.4371 27.9124 43.4373L29.0876 45.0557C35.0923 40.6953 39 33.6156 39 25.6233H37ZM27.9124 7.80917C33.4212 11.8094 37 18.2984 37 25.6233H39C39 17.6309 35.0923 10.5512 29.0876 6.19083L27.9124 7.80917ZM20 25.6233C20 18.2984 23.5788 11.8094 29.0876 7.80917L27.9124 6.19083C21.9077 10.5512 18 17.6309 18 25.6233H20ZM29.0876 43.4373C23.5788 39.4371 20 32.9482 20 25.6233H18C18 33.6156 21.9077 40.6953 27.9124 45.0557L29.0876 43.4373Z" fill="#07000E" mask="url(#path-2-inside-1_158_5324)"/>
</svg>
