<svg width="36" height="32" viewBox="0 0 36 32" fill="none" xmlns="http://www.w3.org/2000/svg">
<path d="M25.7778 0C22.6667 0 19.7344 1.39497 17.7778 3.66228C15.8211 1.39493 12.8889 0 9.77776 0C4.26562 0 0 4.18487 0 9.59114C0 16.2179 6.04342 21.5365 15.1996 29.7326L17.7778 32L20.3559 29.7326C29.5122 21.5365 35.5556 16.2179 35.5556 9.59114C35.5556 4.18487 31.2899 0 25.7778 0ZM18.875 27.4384L18.5139 27.7613L17.7778 28.4088L17.0417 27.7613L16.6823 27.4384C12.3716 23.5816 8.6511 20.2509 6.18932 17.2726C3.80042 14.3793 2.73443 12.0104 2.73443 9.5911C2.73443 7.68569 3.45494 5.93053 4.76221 4.64841C6.06431 3.37065 7.84557 2.6666 9.77784 2.6666C12.0122 2.6666 14.2206 3.68053 15.6859 5.37847L17.7779 7.80554L19.87 5.37847C21.3352 3.68053 23.5435 2.6666 25.7779 2.6666C27.7102 2.6666 29.4915 3.37065 30.7935 4.64841C32.1008 5.93053 32.8213 7.68569 32.8213 9.5911C32.8213 12.0103 31.7553 14.3793 29.3664 17.2726C26.9046 20.2509 23.184 23.5816 18.875 27.4384Z" fill="black"/>
</svg>
