<svg width="56" height="56" viewBox="0 0 56 56" fill="none" xmlns="http://www.w3.org/2000/svg">
<path d="M31.7017 27.3867L29.6392 23.8145" stroke="black" stroke-miterlimit="10" stroke-linecap="square"/>
<path d="M18.5044 12.7769L25.6489 8.65332L33.2114 21.7516L29.6391 23.8141L26.0655 25.8766L18.5044 12.7769Z" stroke="black" stroke-miterlimit="10" stroke-linecap="square"/>
<path d="M15.8904 39.3732L14.1125 36.7015C13.2214 35.2996 12.6216 33.7327 12.349 32.094C12.0763 30.4554 12.1364 28.7787 12.5255 27.1637C12.9147 25.5488 13.625 24.0288 14.6142 22.6942C15.6033 21.3596 16.851 20.2379 18.2829 19.3958L28.4882 13.5713" stroke="black" stroke-miterlimit="10"/>
<path d="M30.05 37.8656L41.7802 31.0938" stroke="black" stroke-miterlimit="10" stroke-linecap="square"/>
<path d="M45.1875 49.3125H12.1875V45.875C12.1875 43.8693 12.9843 41.9457 14.4025 40.5275C15.8207 39.1093 17.7443 38.3125 19.75 38.3125C21.7557 38.3125 23.6793 39.1093 25.0975 40.5275C26.5157 41.9457 27.3125 43.8693 27.3125 45.875L27.2369 49.3125" stroke="black" stroke-miterlimit="10" stroke-linecap="square"/>
</svg>
