<svg width="56" height="56" viewBox="0 0 56 56" fill="none" xmlns="http://www.w3.org/2000/svg">
<path d="M17.114 23.5L27.7469 34L44.4558 13" stroke="#07000E"/>
<path d="M8 34.5H48" stroke="black"/>
<line y1="-0.5" x2="9.26915" y2="-0.5" transform="matrix(0.655502 -0.755193 -0.655502 -0.755193 9.0127 41)" stroke="#07000E"/>
<line y1="-0.5" x2="9.26915" y2="-0.5" transform="matrix(0.655502 -0.755193 -0.655502 -0.755193 15.0886 41)" stroke="#07000E"/>
<line y1="-0.5" x2="9.26915" y2="-0.5" transform="matrix(0.655502 -0.755193 -0.655502 -0.755193 21.1646 41)" stroke="#07000E"/>
<line y1="-0.5" x2="9.26915" y2="-0.5" transform="matrix(0.655502 -0.755193 -0.655502 -0.755193 27.2405 41)" stroke="#07000E"/>
<line y1="-0.5" x2="9.26915" y2="-0.5" transform="matrix(0.655502 -0.755193 -0.655502 -0.755193 33.3164 41)" stroke="#07000E"/>
<line y1="-0.5" x2="9.26915" y2="-0.5" transform="matrix(0.655502 -0.755193 -0.655502 -0.755193 39.3923 41)" stroke="#07000E"/>
</svg>
