<svg width="56" height="56" viewBox="0 0 56 56" fill="none" xmlns="http://www.w3.org/2000/svg">
<g clip-path="url(#clip0_102_1740)">
<path d="M27.5556 42.4998C19.9861 42.4998 13.8334 36.241 13.8334 28.4999C13.8334 20.7588 19.9861 14.5 27.5556 14.5C35.1251 14.5 41.2778 20.7588 41.2778 28.4999C41.2778 36.241 35.1251 42.4998 27.5556 42.4998Z" stroke="#07000E"/>
<path d="M41.7778 42.4998C34.2083 42.4998 28.0556 36.241 28.0556 28.4999C28.0556 20.7588 34.2083 14.5 41.7778 14.5C49.3473 14.5 55.5 20.7588 55.5 28.4999C55.5 36.241 49.3473 42.4998 41.7778 42.4998Z" stroke="#07000E"/>
<path d="M14.2221 42.4998C6.65261 42.4998 0.49989 36.241 0.499891 28.4999C0.499891 20.7588 6.65261 14.5 14.2221 14.5C21.7916 14.5 27.9443 20.7588 27.9443 28.4999C27.9443 36.241 21.7916 42.4998 14.2221 42.4998Z" stroke="#07000E"/>
</g>
<defs>
<clipPath id="clip0_102_1740">
<rect width="56" height="56" fill="white"/>
</clipPath>
</defs>
</svg>
