<svg width="56" height="56" viewBox="0 0 56 56" fill="none" xmlns="http://www.w3.org/2000/svg">
<g clip-path="url(#clip0_158_5307)">
<path d="M2 19L28 46L54 19" stroke="#07000E"/>
<mask id="path-2-inside-1_158_5307" fill="white">
<path d="M13.1508 31.2972C15.1008 29.3007 17.4158 27.7171 19.9636 26.6366C22.5115 25.5561 25.2422 25 28 25C30.7578 25 33.4885 25.5561 36.0364 26.6366C38.5842 27.7171 40.8992 29.3007 42.8492 31.2972L28 46.5L13.1508 31.2972Z"/>
</mask>
<path d="M13.1508 31.2972C15.1008 29.3007 17.4158 27.7171 19.9636 26.6366C22.5115 25.5561 25.2422 25 28 25C30.7578 25 33.4885 25.5561 36.0364 26.6366C38.5842 27.7171 40.8992 29.3007 42.8492 31.2972L28 46.5L13.1508 31.2972Z" stroke="#07000E" stroke-width="2" mask="url(#path-2-inside-1_158_5307)"/>
</g>
<defs>
<clipPath id="clip0_158_5307">
<rect width="56" height="56" fill="white"/>
</clipPath>
</defs>
</svg>
