<svg width="56" height="56" viewBox="0 0 56 56" fill="none" xmlns="http://www.w3.org/2000/svg">
<rect x="24.5" y="47.5" width="39" height="7" transform="rotate(-90 24.5 47.5)" stroke="#07000E"/>
<path d="M41 18L43.5 20.5C44.8807 21.8807 44.8807 24.1193 43.5 25.5V25.5C42.1193 26.8807 42.1193 29.1193 43.5 30.5V30.5C44.8807 31.8807 44.8807 34.1193 43.5 35.5L41 38" stroke="#07000E"/>
<path d="M15 18L12.5 20.5C11.1193 21.8807 11.1193 24.1193 12.5 25.5V25.5C13.8807 26.8807 13.8807 29.1193 12.5 30.5V30.5C11.1193 31.8807 11.1193 34.1193 12.5 35.5L15 38" stroke="#07000E"/>
<path d="M35 18L37.5 20.5C38.8807 21.8807 38.8807 24.1193 37.5 25.5V25.5C36.1193 26.8807 36.1193 29.1193 37.5 30.5V30.5C38.8807 31.8807 38.8807 34.1193 37.5 35.5L35 38" stroke="#07000E"/>
<path d="M21 18L18.5 20.5C17.1193 21.8807 17.1193 24.1193 18.5 25.5V25.5C19.8807 26.8807 19.8807 29.1193 18.5 30.5V30.5C17.1193 31.8807 17.1193 34.1193 18.5 35.5L21 38" stroke="#07000E"/>
</svg>
