<svg width="102" height="102" viewBox="0 0 102 102" fill="none" xmlns="http://www.w3.org/2000/svg">
<circle cx="51.0005" cy="51" r="39.5" stroke="white"/>
<circle cx="51.0005" cy="51" r="50.5" stroke="white"/>
<path d="M41.514 16L51.0005 0.938194L60.487 16H41.514Z" stroke="white"/>
<path d="M60.487 86L51.0005 101.062L41.514 86L60.487 86Z" stroke="white"/>
<path d="M60.2847 15.9462L76.0311 7.64551L76.7157 25.4327L60.2847 15.9462Z" stroke="white"/>
<path d="M41.7158 86.0548L25.9694 94.3555L25.2847 76.5683L41.7158 86.0548Z" stroke="white"/>
<path d="M76.5678 25.2842L94.355 25.9688L86.0543 41.7153L76.5678 25.2842Z" stroke="white"/>
<path d="M25.4327 76.7148L7.64551 76.0302L15.9462 60.2838L25.4327 76.7148Z" stroke="white"/>
<path d="M86 41.5135L101.062 51L86 60.4865L86 41.5135Z" stroke="white"/>
<path d="M16 60.4865L0.938195 51L16 41.5135L16 60.4865Z" stroke="white"/>
<path d="M86.0543 60.2842L94.355 76.0306L76.5678 76.7153L86.0543 60.2842Z" stroke="white"/>
<path d="M15.9462 41.7148L7.64551 25.9684L25.4327 25.2838L15.9462 41.7148Z" stroke="white"/>
<path d="M76.7158 76.5673L76.0312 94.3545L60.2847 86.0538L76.7158 76.5673Z" stroke="white"/>
<path d="M25.2847 25.4317L25.9693 7.64453L41.7157 15.9452L25.2847 25.4317Z" stroke="white"/>
</svg>
