<svg width="56" height="56" viewBox="0 0 56 56" fill="none" xmlns="http://www.w3.org/2000/svg">
<g clip-path="url(#clip0_169_5731)">
<path d="M49.0716 24.7863V24.7863C47.3067 26.5512 44.4366 26.5231 42.7066 24.7239L41.393 23.3577C38.9563 20.8235 34.9012 20.8235 32.4644 23.3577V23.3577C30.0277 25.8919 25.9726 25.8919 23.5359 23.3577V23.3577C21.0991 20.8235 17.044 20.8235 14.6073 23.3577L13.2937 24.7239C11.5637 26.5231 8.69363 26.5512 6.92871 24.7863V24.7863" stroke="#07000E"/>
<path d="M-1.28564 32.6427V32.6427C0.479271 34.4076 3.34932 34.3795 5.07929 32.5803L6.39293 31.2141C8.82966 28.6799 12.8848 28.6799 15.3215 31.2141V31.2141C17.7582 33.7483 21.8133 33.7483 24.2501 31.2141V31.2141C26.6868 28.6799 30.7639 28.7028 33.2006 31.237V31.237C35.6279 33.7613 39.6765 33.8235 42.1527 31.3472L42.3313 31.1686C44.8703 28.6296 48.9869 28.6296 51.526 31.1686L56.2144 35.857" stroke="#07000E"/>
<path d="M-1.28564 16.9289V16.9289C0.479271 18.6938 3.34932 18.6656 5.07929 16.8665L6.39293 15.5003C8.82966 12.9661 12.8848 12.9661 15.3215 15.5003V15.5003C17.7582 18.0345 21.8133 18.0345 24.2501 15.5003V15.5003C26.6868 12.9661 30.7639 12.989 33.2006 15.5232V15.5232C35.6279 18.0475 39.6765 18.1096 42.1527 15.6334L42.3313 15.4548C44.8703 12.9157 48.9869 12.9157 51.526 15.4548L56.2144 20.1431" stroke="#07000E"/>
<path d="M1.92871 33.7148L6.70464 38.4908C9.1809 40.967 13.2295 40.9049 15.6567 38.3806V38.3806C18.0934 35.8464 22.1706 35.8235 24.6073 38.3577V38.3577C27.044 40.8919 31.0991 40.8919 33.5359 38.3577V38.3577C35.9726 35.8235 40.0497 35.8464 42.4864 38.3806V38.3806C44.9137 40.9049 48.9622 40.967 51.4385 38.4908L53.3573 36.572C54.9352 34.994 57.4936 34.994 59.0716 36.572V36.572" stroke="#07000E"/>
</g>
<defs>
<clipPath id="clip0_169_5731">
<rect width="40" height="40" fill="white" transform="translate(8 8)"/>
</clipPath>
</defs>
</svg>
