<svg width="358" height="169" viewBox="0 0 358 169" fill="none" xmlns="http://www.w3.org/2000/svg">
<g style="mix-blend-mode:plus-darker">
<path d="M13.5539 171.5C54.2178 165.453 86.9321 132.637 92.3738 90.8297C99.8862 33.1136 145.587 2.82225 191.322 1.38835C237.051 -0.0453604 282.728 27.3695 290.239 85.0684C296.127 130.31 331.553 165.246 375.593 171.5H13.5539Z" fill="url(#paint0_radial_384_2709)" fill-opacity="0.5"/>
<path d="M13.5539 171.5C54.2178 165.453 86.9321 132.637 92.3738 90.8297C99.8862 33.1136 145.587 2.82225 191.322 1.38835C237.051 -0.0453604 282.728 27.3695 290.239 85.0684C296.127 130.31 331.553 165.246 375.593 171.5H13.5539Z" stroke="url(#paint1_linear_384_2709)"/>
</g>
<defs>
<radialGradient id="paint0_radial_384_2709" cx="0" cy="0" r="1" gradientUnits="userSpaceOnUse" gradientTransform="translate(204 172) rotate(-90) scale(261.5 207.226)">
<stop stop-color="#FF135A"/>
<stop offset="1" stop-color="#EDE4F3" stop-opacity="0"/>
</radialGradient>
<linearGradient id="paint1_linear_384_2709" x1="204" y1="21.9999" x2="204" y2="172" gradientUnits="userSpaceOnUse">
<stop stop-color="#FF3672"/>
<stop offset="1" stop-color="#FF3672" stop-opacity="0"/>
</linearGradient>
</defs>
</svg>
