<svg width="408" height="172" viewBox="0 0 408 172" fill="none" xmlns="http://www.w3.org/2000/svg">
<g style="mix-blend-mode:plus-darker">
<path d="M375.586 171.335H13.5604C54.221 165.292 86.9323 132.508 92.3738 90.7434C99.8861 33.0835 145.587 2.82108 191.322 1.38854C237.051 -0.0437996 282.729 27.3449 290.239 84.9876C296.127 130.184 331.55 165.085 375.586 171.335Z" fill="url(#paint0_radial_829_5082)" fill-opacity="0.5"/>
<path d="M375.586 171.335H13.5604C54.221 165.292 86.9323 132.508 92.3738 90.7434C99.8861 33.0835 145.587 2.82108 191.322 1.38854C237.051 -0.0437996 282.729 27.3449 290.239 84.9876C296.127 130.184 331.55 165.085 375.586 171.335Z" stroke="url(#paint1_linear_829_5082)"/>
</g>
<defs>
<radialGradient id="paint0_radial_829_5082" cx="0" cy="0" r="1" gradientUnits="userSpaceOnUse" gradientTransform="translate(204 171.835) rotate(-90) scale(261.248 207.226)">
<stop stop-color="#FF135A"/>
<stop offset="1" stop-color="#EDE4F3" stop-opacity="0"/>
</radialGradient>
<linearGradient id="paint1_linear_829_5082" x1="204" y1="21.9797" x2="204" y2="171.835" gradientUnits="userSpaceOnUse">
<stop stop-color="#FF3672"/>
<stop offset="1" stop-color="#FF3672" stop-opacity="0"/>
</linearGradient>
</defs>
</svg>
