<svg width="90" height="26" viewBox="0 0 90 26" fill="none" xmlns="http://www.w3.org/2000/svg">
<g clip-path="url(#clip0_3425_4396)">
<path fill-rule="evenodd" clip-rule="evenodd" d="M89.3856 13.8317C89.3856 13.5912 89.2837 13.3857 89.1974 13.1967C89.0956 13.0429 88.8894 12.8876 88.8894 12.6473L89.0273 12.2529C89.0273 11.9438 88.7876 11.618 88.6846 11.3438L88.3251 10.2628C88.1717 9.90195 87.9837 9.52438 87.7956 9.21527C87.4877 8.73427 86.94 8.66565 86.7017 8.47687L86.462 7.97911C85.8628 7.61944 85.2135 7.22381 84.5461 6.9498C84.358 6.89794 84.05 6.84623 83.8451 6.76087C83.7085 6.70915 83.4521 6.60703 83.4521 6.60703C83.3156 6.57208 83.2641 6.50361 83.1442 6.41824C82.9046 6.22945 82.6482 6.02247 82.2037 6.02247C81.9641 6.02247 81.8107 6.10913 81.6046 6.15969C81.4679 6.1945 81.3147 6.1945 81.2463 6.1945L80.8018 6.10928C80.6472 6.02261 80.6472 6.02261 80.494 6.02261C80.2027 6.02261 79.7067 6.07432 79.4502 6.2114C79.3472 6.26311 79.1938 6.50361 79.1088 6.53727C79.1088 6.53727 78.663 6.4519 78.4581 6.4519C78.2018 6.48685 77.6206 6.58898 77.6206 6.58898C76.9016 6.96655 76.0474 7.58463 75.38 8.09929C75.2087 8.23651 75.3285 8.51182 75.1919 8.63214C75.0552 8.75232 74.6623 8.70061 74.5593 8.78598C74.0632 9.26698 73.6187 9.98732 73.3623 10.5704C73.3623 10.5704 73.0891 11.7898 73.0376 11.8752C72.9345 12.0303 72.8146 12.2695 72.798 12.3731C72.798 12.3731 72.5416 12.8192 72.4049 13.0248C72.2169 13.4206 72.1653 13.7296 72.1138 13.8834L72.1486 14.6218C72.1486 14.8792 72.2852 15.0162 72.2852 15.0162C72.2852 15.2736 72.1305 15.4972 72.0971 15.5994C72.0454 15.8063 71.9939 15.9602 71.9939 16.2007C71.9939 16.3895 72.4385 18.6202 72.4385 18.6202C72.6781 19.3753 73.0711 19.925 73.4306 20.5081C73.6703 20.9206 73.9098 21.3151 74.1148 21.7094C74.1663 21.8128 74.2513 22.0016 74.268 22.2421C74.3543 22.5849 74.406 22.9288 74.6108 23.1862C75.192 23.7178 75.8077 24.2323 76.7316 24.5762L77.3127 24.6616C77.4493 24.6616 77.9621 24.6785 78.0136 24.7302C78.0136 24.7302 78.1166 24.9707 78.27 25.1078C78.5265 25.3483 78.9541 25.6405 78.9541 25.6405C79.6383 25.7777 80.4759 25.7945 80.7322 25.7945C80.9204 25.7945 81.0919 25.7426 81.3314 25.6922C81.4847 25.5888 81.6909 25.6055 81.8274 25.5888C82.0322 25.5538 82.2552 25.365 82.7164 25.6405C82.8014 25.6922 82.9213 25.6922 83.0076 25.6922C83.5539 25.6922 84.4945 25.1595 86.2055 24.2503C86.2559 24.2503 86.3937 24.0952 86.4105 24.0952L86.8034 23.9581C87.163 23.8043 87.7272 23.649 88.0521 23.1513C88.7876 21.8982 88.9924 21.5039 88.9924 20.3879C88.9924 19.89 88.8559 19.5472 88.6331 19.255C88.2232 18.7573 87.5559 18.8439 86.958 18.8439H86.7699C86.6835 18.8439 86.1373 18.8439 85.9827 19.1866C85.9827 19.1866 85.4352 19.8394 85.0936 20.2172C84.7858 20.6115 84.7858 20.7487 84.5461 21.0227C84.4095 21.1611 84.1363 21.3151 84.0164 21.4702C83.9134 21.6758 83.5719 21.9668 83.5719 21.9668C83.3323 22.1556 82.9896 22.0702 82.6829 22.1051C82.5284 22.1387 82.375 22.1387 82.2371 22.1556C82.1354 22.2073 81.8442 22.3107 81.7077 22.3625C81.571 22.413 81.2632 22.3625 81.2282 22.3625C81.178 22.3625 81.075 22.3275 80.9384 22.2241C80.682 22.0353 80.5442 21.9849 80.2542 21.9849C79.9463 21.9849 79.4502 21.8815 79.4502 21.8815C79.297 21.6927 79.0908 21.4871 78.8176 21.2465C78.6128 21.0577 78.2533 21.178 77.9801 21.0926C77.1929 20.7318 76.9532 19.8215 76.9532 19.8215C76.9532 19.8215 76.8514 19.4271 76.8514 19.29C76.8166 19.1012 76.6968 18.6033 76.6968 18.6033C76.5938 18.3111 76.5087 18.1572 76.5087 17.7111C76.5087 17.7111 77.1413 17.3504 77.4326 17.3504C77.4841 17.3504 77.6206 17.3852 77.7404 17.4021C77.8938 17.4356 78.0483 17.5055 78.2364 17.5055C78.4246 17.5055 78.5947 17.4021 78.7661 17.3504C78.8691 17.3167 79.0573 17.265 79.0573 17.265C79.2453 17.265 79.4155 17.265 79.5533 17.3502C79.6552 17.4021 79.8097 17.5055 79.9978 17.5055C80.186 17.5055 80.3057 17.4021 80.6472 17.265C80.8354 17.1097 81.1948 17.0245 81.2966 17.0245C81.2966 17.0245 82.3917 17.1097 82.8363 17.1783C83.8103 17.2818 84.2729 17.3335 84.461 17.3335C84.6143 17.3335 84.769 17.2818 85.1968 17.1783C85.4352 17.093 85.7778 17.0245 85.7778 17.0245C85.966 17.0245 86.2559 17.0762 86.359 17.1097C86.5637 17.2133 86.7699 17.265 86.8898 17.265C87.6757 17.265 88.8559 16.5783 88.9591 15.5827C88.9924 15.2736 89.2656 14.9644 89.4036 14.5534C89.5053 14.1925 89.3856 13.9868 89.3856 13.8317ZM72.2336 12.1663C72.2336 11.9089 72.1821 11.6697 72.0454 11.4123C72.0108 11.2235 71.9424 11.0514 71.9424 10.9132C71.9089 10.8109 71.9089 10.6222 71.9089 10.467C71.9424 10.1257 71.9424 9.72992 71.8741 9.33429C71.7374 8.99282 71.5663 8.73427 71.3961 8.54418C71.3098 8.49362 71.2414 8.40695 71.2414 8.35669C71.1565 8.25327 71.0882 8.151 71.0019 8.01392C70.6437 7.31048 70.1644 6.51907 69.6348 6.48685C69.3952 6.48685 69.2238 6.58768 69.0872 6.67564L68.7793 6.62263C68.5228 6.46995 68.3863 6.36653 68.2317 6.36653C67.9418 6.36653 66.9329 6.62263 66.5567 6.75971L65.9743 7.1734C65.8894 7.22395 65.8376 7.53292 65.8376 7.53292C65.8376 7.53292 65.5981 7.46445 65.5466 7.46445C65.3082 7.51486 64.7439 7.51487 64.5209 7.80708C64.5209 7.80708 64.2645 8.09799 64.1614 8.21961C63.7169 8.66565 63.632 8.82093 63.3072 8.80403C63.101 8.80403 63.0508 8.76792 62.913 8.11619C62.8112 7.48251 62.6063 6.435 61.323 6.41824C61.0331 6.38213 60.7251 6.38213 60.5706 6.38213L60.0409 6.67564C59.8529 6.67564 59.6299 6.17644 59.2885 6.33158L57.2528 6.46995C56.9448 6.41824 56.6033 6.27987 56.3805 6.29662C56.0726 6.31352 55.936 6.51907 55.8161 6.53727C54.9786 6.74281 54.4491 7.58463 54.4311 8.23637C54.3976 8.78468 54.8253 9.31869 55.0818 9.60974C55.2866 9.85024 56.0043 10.5537 56.8083 10.5886C57.0478 10.5886 57.2528 10.4838 57.5955 10.3312C57.6973 10.2782 57.8519 10.1761 57.8519 10.1761C57.8519 10.1761 58.7757 10.6222 59.1854 10.9662C59.4933 11.5662 59.4419 12.271 59.4251 13.0079C59.3903 13.2473 59.3903 13.5058 59.3903 13.7981L59.3569 15.496V17.1447L59.2706 17.746C59.1854 18.0021 59.1687 18.381 59.1854 18.6887C59.1854 18.9292 59.2202 19.3249 59.2885 19.6663C59.3221 19.771 59.3736 20.0115 59.3736 20.062C59.3736 20.062 59.1854 21.2619 59.0657 21.6577C58.9639 21.8646 58.6559 22.0185 58.3814 22.1569C58.2797 22.2073 58.125 22.3107 58.125 22.3107C58.1598 22.2771 57.7153 22.1724 57.7153 22.1724C57.4075 22.0871 57.236 22.0702 57.133 22.0702C56.7915 22.0366 55.6113 22.259 55.5598 23.5973C55.5598 24.0783 55.6628 24.4391 55.9025 24.6448C55.9025 24.6448 56.4488 25.4349 56.843 25.4349C57.0312 25.4349 57.1845 25.3483 57.5775 25.1944C57.7153 25.1078 57.817 25.2266 57.817 25.2266C57.817 25.2266 58.1083 25.1245 58.1767 25.1414C58.3814 25.2966 58.6212 25.3315 58.8092 25.3315C58.9974 25.3315 59.2537 25.3819 59.5101 25.2966C59.6132 25.2629 60.0062 25.0741 60.0062 25.0741C60.3824 25.2966 60.7071 25.4853 60.8953 25.5034H62.6746C62.913 25.5034 63.1525 25.5034 63.4774 25.3483C63.6152 25.2966 63.6319 25.1245 63.6835 25.1078L64.128 25.2966C64.3119 25.3799 64.5082 25.4323 64.7091 25.4517C64.9487 25.4517 65.1536 25.365 65.3417 25.3146L65.7346 25.2629C65.8209 25.2268 66.0258 25.1582 66.1806 25.1762H66.5734C67.3593 25.1245 67.9418 23.9737 67.9585 23.4952C67.9585 23.0994 67.7536 22.7051 67.4792 22.4478C67.2743 22.1569 66.9329 22.0016 66.6249 21.9668C66.4188 21.9668 66.2308 22.0185 66.0426 22.0702C65.9408 22.1038 65.5646 22.1569 65.5646 22.1569C65.2567 22.1207 64.316 22.1207 63.8884 22.0016C63.409 21.8128 62.8447 21.3151 62.5548 21.024C62.4002 20.6788 62.5032 19.8396 62.5548 19.3753C62.5548 19.1866 62.6063 19.0662 62.6063 18.8943L62.6398 18.3977C62.6913 17.7615 62.7247 16.5783 62.7247 16.5783C62.7247 16.5783 62.7247 16.2175 62.6913 16.1321C62.6913 16.0287 62.6398 15.9266 62.6398 15.8749C62.6398 15.7715 62.4865 15.0331 62.7765 14.8456C62.9645 14.6903 62.913 14.433 63.1192 14.261C63.7685 13.78 64.0416 13.5058 64.3496 12.8192C64.4874 12.5282 64.6574 12.0822 64.6574 12.0822C64.8121 11.8933 65.5131 11.4472 65.9576 11.0514C66.1624 10.7605 66.2487 10.7423 66.4536 10.6054C66.6933 10.3986 66.9831 10.3649 66.9831 10.3649L67.0863 10.6222C67.0863 10.7605 67.0346 10.8796 66.9831 10.983C66.7951 11.4292 66.7448 11.7201 66.7448 11.9606C66.71 12.5619 67.6338 13.78 68.1633 14.0904C68.403 14.2262 68.6595 14.2947 68.8992 14.3283L69.0022 14.3813C69.1903 14.5365 69.3437 14.6904 69.6 14.6904C69.8049 14.6904 70.0794 14.5532 70.2494 14.3283C70.4376 14.1226 70.6436 14.3283 70.7454 14.1226C70.7454 14.1226 70.9851 13.815 71.2247 13.7115C71.4644 13.5743 71.6344 13.4528 71.8226 13.2136C72.1305 12.906 72.2336 12.4598 72.2336 12.1663ZM55.3729 23.4433C55.3729 21.8477 54.0909 21.7442 53.3037 21.6925C53.064 21.6589 52.8077 21.6589 52.7225 21.6072C52.4662 21.5037 52.2433 21.298 52.2433 21.1093C52.2433 21.1093 52.3282 20.7149 52.3798 20.5079C52.5165 19.9764 52.4313 19.7193 52.4313 19.564C52.4313 19.3584 52.5164 19.1178 52.3798 18.7752C52.3463 18.6718 52.3283 18.5696 52.2948 18.5179C52.2948 18.5179 52.3463 18.3122 52.3798 18.1571C52.4313 18.0031 52.4662 17.848 52.4662 17.6761C52.4662 17.385 52.3632 17.0928 52.26 16.8354C52.2265 16.7502 52.2097 16.6816 52.175 16.6299L52.1415 16.2174C52.175 16.1152 52.175 16.1152 52.175 15.9082C52.175 15.7544 52.1415 15.3768 52.2265 15.2217C52.278 15.1363 52.3115 15.0329 52.3632 14.9643C52.4997 14.7588 52.6543 14.4665 52.6543 14.2273C52.6543 14.2273 52.8423 11.4975 52.8423 11.2583V11.0695C52.8759 10.5885 52.8759 10.0389 52.8077 9.64441V9.74783C52.8077 9.48928 52.7045 9.30049 52.6195 9.16341L52.586 8.8543C52.5512 8.32274 52.5512 7.72157 52.1067 7.46431C51.6106 7.1552 50.7383 7.06998 50.5335 7.06998C50.3788 7.06998 50.2256 7.10464 50.0374 7.12154C49.9008 7.12154 49.7978 7.08659 49.7296 7.08659C49.7296 7.08659 49.5246 7.03488 49.3881 6.98447C49.0453 6.79568 48.8404 6.69225 48.6357 6.69225C48.4294 6.69225 48.3792 6.916 48.1912 7.01812C48.088 7.05308 47.7117 6.9329 47.695 6.9329L47.2505 6.82933C46.9593 6.74411 46.8047 6.69225 46.6513 6.69225C45.9157 6.69225 44.2226 8.52843 44.2226 9.33544C44.2226 9.64455 44.3593 9.93676 44.6168 10.194C45.1116 10.6919 45.9158 10.9311 46.31 10.9311C46.5998 10.9311 46.8912 10.794 46.9593 10.794L47.6087 11.1716L47.8484 11.2233C48.003 11.275 48.088 11.3087 48.2414 11.3087C48.3277 11.3437 48.584 11.3604 48.6356 11.3954L48.8237 11.7549C48.8237 11.7549 48.8572 12.0471 48.4811 12.2526L48.2929 12.3561L48.2079 12.5618C48.1047 13.0078 48.3096 13.4036 48.4642 13.661C48.5157 13.7462 48.6176 14.0036 48.6176 14.0553L48.4809 14.6553C48.396 14.9644 48.3277 15.3082 48.3444 15.651L48.5492 16.1837C48.6007 16.286 48.7039 16.4928 48.7039 16.4928C48.7039 16.4928 48.2929 17.9683 47.9682 18.5347C47.677 19.0674 47.284 19.5303 46.891 20.0282C46.6513 20.3191 46.395 20.6283 46.1553 20.9541C45.9672 21.2463 45.4711 21.933 45.1296 21.933H45.0266C44.0526 21.933 43.7266 21.8813 43.7266 21.8813C43.1802 21.6239 42.804 21.1779 42.3595 20.5946L42.3247 20.5596C42.0684 20.217 42.1199 19.1178 42.1367 18.62C42.1367 18.4313 42.1714 18.2088 42.1882 17.9683C42.2732 17.3333 42.2912 16.9725 42.2217 16.7153V16.6635C42.1199 16.4061 41.9833 16.2523 41.8802 16.132C41.7953 16.0468 41.7953 16.0468 41.7953 15.9432C41.7953 15.8061 42.085 14.6384 42.085 14.6384C42.1199 14.6384 42.3764 14.2958 42.3931 14.2778L42.5297 13.8665C42.616 13.5743 42.3764 13.3337 42.1715 13.0597C42.0684 12.9224 41.9833 12.7686 41.9318 12.6653L41.8802 12.4596V11.8247C41.8802 11.3437 41.9652 11.1884 42.0684 10.9661C42.205 10.7254 42.3595 10.4332 42.3595 9.88491C42.3595 9.47252 42.2732 8.75218 42.0517 8.44321C41.9485 8.28793 41.8454 8.25428 41.7089 8.1341C41.0247 7.37894 40.222 6.8978 39.2981 6.8978C39.1436 6.8978 38.9903 6.94965 38.6991 7.00137C38.5973 7.03488 38.4776 7.25862 38.4091 7.25862L37.8102 6.96655C37.4506 6.86443 37.2626 6.81272 37.1092 6.81272C36.8695 6.81272 35.4162 7.34413 35.4162 8.18595C35.4162 8.47687 35.3815 8.8894 35.3313 9.21527C35.2963 9.47266 35.2963 9.6096 35.2963 9.69627C35.2963 10.039 35.4845 10.3997 35.844 10.7774C36.2035 11.1718 36.8864 11.618 37.3824 11.618C37.6387 11.618 37.7934 11.5157 37.9132 11.4292C38.0499 11.3438 38.3913 12.1326 38.3913 13.7632L38.4427 14.6051C38.4776 15.2051 38.5291 15.7028 38.5291 15.7028C38.4944 15.7378 38.4776 15.8916 38.4427 15.9085C38.3913 16.0469 38.3579 16.1658 38.3579 16.3895V19.4788C38.3579 19.8227 38.5626 20.0116 38.5626 20.2172L38.6992 20.6115C38.7508 20.8521 38.8538 21.2128 38.8538 21.2128C38.8538 21.2465 40.6835 25.5202 42.5478 25.5202C42.7012 25.5202 42.906 25.4853 43.0772 25.4686C43.1624 25.4349 43.2822 25.2279 43.3337 25.2279C43.3337 25.2279 43.5219 25.4853 43.6249 25.5203C43.8646 25.6055 44.0694 25.6741 44.2576 25.6741C44.4624 25.6741 44.6673 25.5889 44.9069 25.5203C45.0101 25.4853 45.1466 25.4167 45.1981 25.4167L45.5396 25.5034C45.7458 25.5551 45.9338 25.6057 46.0871 25.6057C46.3268 25.6057 46.4468 25.6057 46.6348 25.5203L46.7198 25.4349C46.9247 25.2798 47.1991 25.1258 47.4555 24.9539C47.7633 24.7482 48.2079 24.4043 48.2079 24.4043C48.396 24.2671 48.789 24.0952 48.9089 23.9245C48.9939 23.8211 49.0455 23.8728 49.0455 23.8728C49.0455 23.8728 49.1485 24.01 49.1821 24.1302C49.2336 24.2672 49.2684 24.3707 49.3199 24.4393L49.4049 24.5762L49.508 24.6281C49.6614 24.7133 50.1407 24.7819 50.2939 24.8853C50.9433 25.2279 51.1494 25.2966 51.2861 25.2966C51.4395 25.2966 51.6456 25.246 51.6958 25.2112L52.2266 25.4C52.7047 25.5551 52.876 25.6405 53.0307 25.6405C53.4752 25.6405 53.577 25.4167 54.0215 24.8686L54.3127 24.8336C54.3127 24.8336 54.4157 24.6281 54.5007 24.6281C54.8087 24.6281 54.9969 24.4728 55.0999 24.3357C55.2532 24.1133 55.3731 23.838 55.3731 23.4435L55.3729 23.4433ZM17.1465 21.4818C17.1198 21.4668 17.0934 21.4513 17.0673 21.4353C16.8108 21.2969 16.7245 21.5026 16.5029 21.3836C16.2116 21.2452 16.1601 21.333 16.0068 21.3655C15.6306 21.4353 15.8356 21.5026 15.5958 21.641C15.3226 21.7961 15.2879 22.1891 15.2879 22.1891C15.2879 22.1891 14.7751 22.4995 14.7416 21.9486L14.5869 21.5387C14.502 21.2452 14.194 20.9892 14.3472 20.8858L14.6552 20.3025C14.6901 20.0968 14.8099 19.9417 14.7582 19.718C14.6552 19.5305 14.6037 19.3056 14.5702 19.2202C14.5702 19.2202 14.4504 18.7921 14.5019 18.7069C14.6386 18.5012 14.7582 18.5012 14.7582 18.293C14.7067 17.8818 14.6552 17.5909 14.8099 17.1603C14.9465 16.8705 14.6732 16.3728 14.6732 16.3728C14.7582 15.8918 14.9632 15.9602 14.9297 15.1869C14.8949 14.8792 15.0831 14.5856 14.8434 14.3127C14.8434 14.3127 14.7067 14.1576 14.7582 14.1059L14.9299 13.78C14.9801 13.5745 14.9634 13.3338 14.8602 13.0753L14.7069 12.8697L14.7237 12.5619C14.8267 12.271 14.7584 12.0303 14.7584 11.8067C14.6902 11.2235 13.9892 9.93691 13.9892 9.93691C13.8012 9.72992 13.7328 9.47267 13.5447 9.33429C13.4069 9.26698 13.2368 9.25022 13.2187 9.19851C13.1685 9.18161 13.1505 8.97347 13.1505 8.92305C13.0138 8.68255 12.8606 8.51182 12.5693 8.3915C12.5693 8.3915 12.1765 8.16905 11.9883 8.151C11.8516 8.13424 11.6971 8.09799 11.5941 8.04758L11.406 7.89244C11.3041 7.70495 11.1159 7.63504 10.8763 7.58478C10.8763 7.58478 10.5851 7.53292 10.3288 7.55098C10.1754 7.55098 10.0209 7.49927 9.88424 7.53292C9.83274 7.56788 9.79922 7.56788 9.78239 7.56788L9.45642 7.44625C9.18338 7.29372 9.06354 7.27437 8.85869 7.29372C8.51588 7.29372 8.39605 7.55098 8.17451 7.73977C8.12287 7.79032 7.66166 7.79032 7.59333 7.77342C7.45667 7.75667 7.38719 7.72041 7.19916 7.73977C7.011 7.73977 6.87448 7.77342 6.46463 7.96091C6.31013 8.01392 5.98545 8.01392 5.98545 8.01392C5.98545 8.01392 5.74578 8.04758 5.64393 8.02952C5.43779 7.98041 5.07959 7.9105 4.92494 7.9105C4.63507 7.9105 4.53207 8.28678 4.10424 8.49377C4.00109 8.58043 3.81307 8.54678 3.67641 8.63214C3.62491 8.66565 3.5232 8.95801 3.47156 8.99282C3.02704 9.31869 2.92404 9.76488 2.54786 9.71317C2.47953 9.71317 2.15484 9.91871 2.10334 9.96912C1.79534 10.2459 1.59049 10.5886 1.59049 10.5886C1.38564 10.8614 1.24898 11.3256 1.24898 11.5493C1.24898 11.5843 1.231 11.7368 1.231 11.7898C1.231 12.5282 1.24898 13.4206 1.48735 13.9701C1.65883 14.4163 2.58253 15.1028 3.06056 15.0848C3.19852 15.0848 3.23189 14.9644 3.36841 14.9644C3.50652 14.9644 3.60822 14.8623 3.67641 15.0331C3.67641 15.0331 3.81307 15.0848 3.88256 15.1028C4.08755 15.1534 4.27557 15.2051 4.42892 15.1869C4.83992 15.1701 5.54093 14.3464 5.5756 14.0555C5.64393 13.6262 5.71227 12.9227 5.69414 12.717C5.69414 12.4068 5.5241 12.2011 5.4211 12.0988C5.31796 11.9775 5.26775 11.9775 5.24962 11.7898C5.24962 11.5493 5.45577 11.4472 5.4726 11.4123L6.17347 11.1705C6.46463 11.1705 7.08063 11.6167 7.28548 11.3786C7.28548 11.3786 7.4735 11.3256 7.54183 11.3786C7.8317 11.5843 7.72999 11.7201 8.07137 11.7045C8.25953 11.7045 8.63572 11.5843 8.92688 11.4123L9.23473 11.4292C9.42304 11.5313 9.30321 11.636 9.50806 11.6864C9.71291 11.737 10.0041 11.7718 10.2089 11.8067L10.6031 11.7201C11.1495 11.9606 11.1328 12.7339 11.1843 13.1631C11.1843 13.3688 10.9961 14.3464 10.9446 14.8093L10.6534 14.9477C10.4653 15.1532 10.1406 14.8274 10.0208 14.8274C9.76441 14.8274 9.67939 14.8456 8.99521 15.3757L8.63571 15.5141C8.37936 15.6162 8.34584 15.6331 8.20803 15.8217C8.15768 15.8568 7.84983 15.6331 7.84983 15.6331C7.49019 15.4456 7.14882 15.9266 6.94267 15.9266C6.2418 15.9266 6.25849 15.7015 5.86562 16.1838C5.86562 16.1838 5.01125 16.2344 4.90825 16.2679C4.56544 16.4063 4.49725 16.2344 4.05274 16.4412C3.62491 16.6468 3.71122 16.9546 3.60822 17.0076C3.64304 17.0076 3.33504 16.8874 3.33504 16.8874C3.30023 16.8874 3.18039 16.9222 3.09537 16.9222C2.83902 16.9546 2.35969 17.4177 2.35969 17.4177C1.52202 17.8312 0.666504 19.9583 0.666504 20.3373C0.666504 20.5429 0.752818 20.7666 0.837837 20.9722C0.922856 21.126 0.734836 21.2618 0.769649 21.4015C0.769649 21.5554 0.803024 21.7611 0.803024 21.9485C0.837837 22.189 0.837837 22.3947 0.854668 22.5848C0.854668 22.5848 1.11102 23.4253 1.4872 23.6321L1.72687 23.7693C1.81318 23.8209 2.06968 24.0097 2.06968 24.0097C2.30805 24.4559 2.6159 24.8167 2.9239 24.9525C3.18025 25.0572 3.36841 24.9356 3.62477 24.9705C3.86443 25.0211 4.17243 25.3145 4.17243 25.3145C4.25874 25.365 4.37728 25.4517 4.48028 25.5202C4.95961 25.8278 5.23265 25.9999 5.50598 25.9999C5.79714 25.9999 6.00199 25.8641 6.24166 25.7438C6.27647 25.7089 6.78917 25.5537 6.82284 25.5537L8.68722 25.467C8.73872 25.467 8.84172 25.467 8.97838 25.5033C9.1149 25.5369 9.26825 25.5538 9.38808 25.5538C9.74758 25.5538 9.9871 25.4166 10.1238 25.3649L10.3634 25.1761C10.4651 25.039 10.6713 24.8684 10.7564 24.8335L10.996 24.7805C11.2525 24.7299 11.5938 24.6783 11.8516 24.4222V24.4559C12.0565 24.2658 12.193 24.0601 12.2445 23.958C12.2445 23.958 12.689 24.0601 12.8939 24.1985L13.1504 24.5063C13.2534 24.6614 13.39 24.8684 13.5614 25.0055C14.0574 25.3146 14.3654 25.4851 14.7582 25.4851C14.9116 25.4851 15.5624 25.4515 15.6473 25.4348L16.0403 25.3314C16.28 25.4348 16.2968 25.5202 16.4513 25.5202C16.6764 25.5202 16.9746 25.2815 17.1365 25.1512C17.2936 25.1302 17.4738 25.0942 17.6135 25.0377C17.7166 24.9873 17.9214 24.9356 17.973 24.9006L18.3325 25.0559C18.4342 25.2615 18.6739 25.3468 18.8105 25.3468C18.9652 25.3132 19.0167 25.3818 19.2047 25.2963C19.2899 25.2616 19.6145 25.158 19.7009 25.2447C20.0937 25.4502 20.2987 25.5873 20.5382 25.5873C20.6916 25.5873 20.8462 25.5021 21.1709 25.3985C21.2741 25.3468 21.4788 25.2615 21.5304 25.2447C21.5304 25.2447 21.6838 25.3299 21.9749 25.3468C22.8975 25.4502 23.2053 25.4852 23.3085 25.4852C23.4618 25.4852 23.6163 25.4502 23.856 25.3818C23.9076 25.3468 24.1125 25.2964 24.1125 25.2964C24.1125 25.2964 24.7104 25.3985 24.95 25.4335C25.4976 25.5706 25.4292 25.6223 25.5311 25.6223C25.6689 25.6223 25.8389 25.5356 26.2332 25.3818C26.3866 25.3301 26.9342 25.2446 26.9342 25.2446C27.0708 25.2964 27.2241 25.3468 27.4121 25.3468C27.6518 25.3468 27.8581 25.2097 28.0461 25.0042C28.0796 24.9692 28.1311 24.9188 28.148 24.867L28.336 24.9525C28.4391 25.158 28.6956 25.2447 28.8321 25.2447C28.9853 25.2097 29.1915 25.2784 29.3797 25.193C29.3797 25.193 29.6193 25.0558 29.6875 25.1413C30.0805 25.3468 30.2855 25.4851 30.525 25.4851C30.6784 25.4851 30.833 25.3985 31.1577 25.2964C31.2609 25.2447 31.5172 25.158 31.5687 25.1413C31.5687 25.1413 32.1666 25.2265 32.4578 25.2447C33.3816 25.3468 33.6883 25.3818 33.7913 25.3818C33.9459 25.3818 34.0992 25.3468 34.339 25.2784C34.3905 25.2447 34.5953 25.193 34.5953 25.193C34.5953 25.193 35.1932 25.2964 35.4328 25.3301C35.9804 25.4671 35.9122 25.5189 36.014 25.5189C36.1518 25.5189 36.3219 25.4335 36.716 25.2784C36.8694 25.2265 37.4171 25.1411 37.4171 25.1411C37.5537 25.193 37.7069 25.2447 37.8951 25.2447C38.1348 25.2447 38.3409 25.1075 38.5289 24.9006C38.9388 24.558 39.2468 23.8365 39.2468 23.4937C39.2468 22.9106 39.0933 22.4981 38.7673 22.189C38.2893 21.7093 38.2211 21.8799 37.8447 21.6912L37.0061 21.726C36.8012 21.726 36.2537 21.8296 35.8774 21.9317C35.8774 21.9317 35.5695 22.0688 35.4677 22.1205C35.416 22.1555 35.0746 22.0351 35.0746 22.0351C34.7835 21.9317 34.817 21.8464 34.6636 21.8464H34.1843L33.8261 21.2114C33.6715 20.5765 33.8765 20.2325 33.8596 20.0269L33.9626 19.2368C34.116 18.7053 34.2023 18.4817 34.2023 18.3109C34.2023 18.0018 34.0993 17.7782 33.9962 17.6761C33.9459 17.5208 33.8595 17.3837 34.0478 16.5936C34.0993 16.3544 34.0143 15.8902 34.0143 15.8902C34.0143 15.8385 33.928 15.5993 33.9111 15.5476C33.8261 15.3924 33.7231 15.1014 33.7063 15.0149L33.8596 14.6036C33.9963 14.2093 34.0993 14.0023 34.0993 13.7966C34.0993 13.5044 33.9962 13.3156 33.8596 13.1101C33.7578 12.8527 33.62 12.5268 33.62 11.8234C33.5865 11.6863 33.6548 10.8445 33.62 10.0893L33.6548 8.99152C33.6548 8.99152 33.7398 8.80259 33.8081 8.69917C33.8944 8.51038 33.9962 8.30483 34.0478 8.04743C34.0993 7.75522 34.0825 7.44611 34.0478 7.18885C34.0143 7.05163 34.0143 6.82803 34.0143 6.82803C34.0478 6.62249 34.1509 6.34833 34.2706 6.12459C34.5103 5.4379 34.6121 5.1987 34.6121 4.99185C34.6121 4.78617 34.4755 4.54567 34.2191 4.18484C34.1676 4.08272 34.0825 3.92759 34.0645 3.87718C34.0645 3.87718 33.9626 3.32757 33.8763 2.98364C33.7398 2.48574 33.62 1.98914 33.5698 1.5418L33.535 1.38782L33.4318 1.2844C33.3469 1.23399 32.9024 0.752843 32.4913 0.752843C32.1834 0.786499 32.0983 0.752843 31.8419 0.993488H31.5005C31.5005 0.993488 31.3626 0.752988 31.0212 0.752988C30.7647 0.752988 30.422 0.701277 30.3202 0.804699L29.6877 0.85641C29.2431 0.597854 29.2083 0.564199 28.9853 0.564199C28.8321 0.564199 28.729 0.61591 28.6271 0.649421L28.1826 0.443877C27.7885 0.203377 27.6003 0.134766 27.4303 0.134766C26.3531 0.169721 25.5659 2.07451 25.6007 2.91503C25.6007 4.15133 26.3351 4.54581 26.8994 4.88959C26.9857 4.88959 27.3439 4.83788 27.4121 4.88959C27.4638 4.92324 27.532 5.23235 27.5836 5.31772C27.7716 5.52457 27.9431 5.4561 28.1144 5.47285C28.1144 5.47285 28.1311 5.40424 28.3193 5.35253C28.3193 5.35253 28.8153 5.66164 29.0717 5.66164C29.3282 5.66164 29.3617 5.4561 29.5678 5.30082L29.7212 5.60993C29.7727 5.79872 29.8075 6.00427 29.8757 6.21125C29.8757 6.21125 30.0805 6.74281 30.2687 6.99992L30.4054 7.34399C30.3202 7.49782 30.0805 7.65165 30.0805 7.85864C30.0805 7.99572 30.252 8.20127 30.2855 8.33834C30.3202 8.49362 30.3202 8.73412 30.3202 8.83624L30.1837 9.18017C30.0459 9.36895 29.9775 9.5745 29.9775 9.78019C29.9775 10.1927 30.2339 10.4669 30.3885 10.6389C30.5252 10.7927 30.5767 10.8445 30.5767 10.9815C30.5767 10.9815 30.4904 11.222 30.44 11.3424C30.3885 11.5311 30.3022 11.703 30.3022 11.892C30.2004 12.338 30.2687 12.8179 30.3537 13.1449C30.3537 13.2302 30.4904 13.7799 30.4904 13.8316L30.44 15.0329C30.44 15.2721 30.4052 15.479 30.4052 15.6846C30.3701 15.9001 30.3529 16.1181 30.3537 16.3364C30.3022 16.6972 30.252 17.0748 30.252 17.4356L30.5934 17.7613C30.6449 17.8649 30.3885 18.1908 30.3885 18.2423C30.3885 18.3278 30.4735 18.4997 30.3885 18.6368C30.3283 18.816 30.2826 18.9998 30.2519 19.1864C30.2519 19.4941 30.2172 19.8214 30.2004 20.1123C30.1657 20.3191 30.1489 20.5248 30.1489 20.6619C30.1489 20.799 29.9607 20.9541 29.9607 21.0743C29.926 21.2631 29.9092 21.6059 29.8242 21.6743L29.3797 21.5205C28.9351 21.3654 28.8321 21.4688 28.6788 21.4688C28.5925 21.4688 28.336 21.3654 28.1995 21.3821C27.84 21.4338 27.5668 21.5205 27.4638 21.5205C27.4638 21.5205 27.3619 21.4855 27.2589 21.4338C26.9509 21.3821 26.8144 21.3821 26.6598 21.3821C26.1649 21.3821 25.8055 21.6407 25.5659 21.9834C25.5144 21.9834 25.4627 21.9834 25.4125 22.0184C25.4125 22.0184 25.1047 22.1555 25.0015 22.2072C24.95 22.2407 24.6085 22.1205 24.6085 22.1205C24.3174 22.0184 24.3522 21.9317 24.1975 21.9317H23.7195L23.5133 21.2967C23.3252 20.6619 23.4115 20.3191 23.3767 20.1123L23.4798 19.3235C23.6332 18.7906 23.7195 18.5683 23.7195 18.3963C23.7195 18.0872 23.6165 17.8647 23.5313 17.7613C23.445 17.6075 23.3768 17.4691 23.5648 16.6803C23.6165 16.4398 23.5313 15.9769 23.5313 15.9769C23.5313 15.9251 23.445 15.6846 23.4283 15.6329C23.3433 15.479 23.2402 15.1867 23.2235 15.1014L23.4115 14.689C23.5133 14.2945 23.6165 14.089 23.6165 13.882C23.6165 13.5911 23.5133 13.4023 23.4115 13.1954C23.2737 12.938 23.1551 12.6122 23.1551 11.9087C23.1551 11.7716 23.1887 10.9311 23.1887 10.176V9.07674C23.1887 9.07674 23.2737 8.88795 23.3433 8.78453C23.4282 8.59574 23.5313 8.3902 23.5817 8.1328C23.6332 7.84059 23.6165 7.53278 23.5817 7.27422C23.5482 7.137 23.5482 6.91455 23.5482 6.91455C23.5817 6.70771 23.6848 6.43355 23.8045 6.21111C24.0442 5.52457 24.146 5.28407 24.146 5.07838C24.146 4.87153 24.0094 4.63103 23.7878 4.27151C23.7015 4.16809 23.6332 4.01425 23.5997 3.9624C23.5997 3.9624 23.4967 3.41293 23.4115 3.07017C23.2737 2.57241 23.1551 2.07451 23.1036 1.62832L23.0688 1.47319L22.967 1.37107C22.8807 1.31935 22.4361 0.838354 22.0264 0.838354C21.7186 0.873166 21.6323 0.838354 21.3758 1.07885H21.0344C21.0344 1.07885 20.8977 0.838354 20.5551 0.838354C20.2987 0.838354 19.9572 0.786499 19.8542 0.890066L19.2215 0.941777C18.777 0.684377 18.5722 0.649566 18.3325 0.649566C18.1779 0.649566 18.0413 0.701277 17.9383 0.736232L17.4602 0.529243C17.0492 0.290043 16.8611 0.220132 16.673 0.220132C15.5276 0.255088 14.3472 2.15988 14.3641 3.0017C14.3989 4.2367 15.1513 4.63103 15.7504 4.97495C15.8354 4.97495 16.2116 5.14684 16.2968 5.1974C16.3483 5.23235 16.3483 5.33578 16.3998 5.42114C16.5879 5.62669 16.7413 5.64489 17.084 5.64489C17.3738 5.64489 17.4937 5.38633 17.6818 5.33578C17.6818 5.33578 18.1443 5.74701 18.4342 5.74701C18.6907 5.74701 18.8787 5.54132 19.0849 5.38619L19.2382 5.6953C19.2899 5.88409 19.3245 6.09108 19.3929 6.29662C19.3929 6.29662 19.5977 6.82803 19.7859 7.08529L19.9225 7.42935C19.8374 7.58319 19.6145 7.73847 19.6145 7.94401C19.6145 8.08109 19.769 8.28793 19.8026 8.42501C19.8374 8.57899 19.8542 8.81934 19.8374 8.92291L19.7007 9.26553C19.5629 9.45432 19.4947 9.65987 19.4947 9.86685C19.5294 10.2781 19.7511 10.5522 19.9057 10.7243C20.0424 10.8794 20.0937 10.9311 20.0937 11.0681C20.0937 11.0681 20.0074 11.3074 19.9572 11.4277C19.9057 11.6165 19.8542 11.7884 19.8194 11.9772C19.7175 12.4234 19.7859 12.9045 19.9057 13.2302C19.9057 13.3156 20.0074 13.8652 20.0074 13.9169L19.9572 15.1183C19.9572 15.3588 19.9224 15.5643 19.9224 15.77C19.8873 15.9858 19.8701 16.2042 19.8709 16.4229C19.8194 16.7826 19.769 17.1601 19.769 17.5208L20.0591 17.8467C20.1106 17.9501 19.8889 18.276 19.8889 18.3277C19.8889 18.4131 19.9739 18.5851 19.8889 18.7222C19.8374 18.8773 19.7859 19.0661 19.7859 19.2718C19.7511 19.5809 19.7344 19.9066 19.7009 20.199C19.666 20.4045 19.6492 20.6101 19.666 20.7471C19.6329 20.8822 19.6156 21.0206 19.6145 21.1597C19.581 21.3485 19.4097 21.6912 19.3245 21.7597L18.8453 21.6059C18.4857 21.4519 18.4008 21.5541 18.2642 21.5541C18.1779 21.5541 17.973 21.4519 17.87 21.4688C17.58 21.5205 17.6316 21.6059 17.58 21.6059C17.58 21.6059 17.477 21.5709 17.3738 21.5205C17.2986 21.5047 17.2228 21.4917 17.1465 21.4815V21.4818ZM84.2213 11.1718C84.6491 11.3773 84.7006 11.9438 84.7006 12.3562C84.7006 12.7674 84.461 12.9562 84.2561 13.352C84.05 13.7463 83.6738 13.5745 83.4689 13.6779C82.7333 13.987 81.8957 14.1408 81.571 14.1408C81.3649 14.1408 80.3742 13.7296 80.1512 13.7296C79.8947 13.7296 79.5533 13.9351 79.297 13.9351C79.0908 13.9351 78.6463 13.626 78.4065 13.626C78.1501 13.626 77.4841 13.815 77.2276 13.815C76.6286 13.815 76.4919 13.6093 76.4919 13.18C76.4919 12.7507 76.8849 11.7898 77.6206 11.5843C77.8254 11.4976 78.27 11.6695 78.5444 11.4459C78.6463 11.3088 78.7326 10.7942 79.0225 10.6571C79.6731 10.2446 81.0917 9.85024 81.3314 9.85024C81.6225 9.85024 82.0155 10.1594 82.3054 10.3818C82.5116 10.4334 82.7848 10.348 82.9561 10.4334C83.3156 10.6222 83.8619 10.9997 84.2213 11.1718ZM11.5256 18.6202L11.389 19.9081C11.389 20.1642 10.7564 20.3024 10.4651 20.5598C10.2603 20.6634 9.78225 21.006 9.78225 21.006C9.64444 21.0926 9.4229 21.2452 8.8069 22.2938C8.77209 22.3792 8.60205 22.4995 8.55055 22.4995C8.51574 22.4995 8.39591 22.4659 8.2942 22.4478C8.08935 22.4129 7.69504 22.3948 7.55837 22.3948C7.40517 22.3948 7.11386 22.4828 6.66934 22.603C6.53282 22.6353 6.44651 22.8086 6.36149 22.8435C6.32797 22.7904 5.90014 22.7051 5.84864 22.6716C5.45563 22.413 5.64379 22.413 5.31781 22.413L4.78828 22.2938C4.49711 22.1569 4.44676 21.8646 4.17243 21.5206C4.08741 21.4354 4.18911 21.1444 4.08741 21.0731C3.95074 20.9723 4.18911 20.8159 4.18911 20.6271C4.18911 20.6271 4.03576 20.3541 4.37728 20.0116C4.61694 19.6664 4.66844 19.5124 4.66844 19.5124L5.07944 19.5305C5.07944 19.5305 5.33579 19.3056 5.42096 19.2719L6.08831 19.0327C6.27647 18.8943 6.37818 18.7921 6.48132 18.7236C6.53282 18.7236 6.66934 18.6706 6.96065 18.6706C7.1655 18.6706 7.37035 18.4327 7.61002 18.4649C7.61002 18.4649 8.3457 18.5516 8.65355 18.5516C8.96025 18.5516 9.8841 18.3124 10.6881 18.0021C10.7731 17.9516 10.9445 17.9167 10.996 17.8998C11.0811 17.9348 11.1493 17.8468 11.1493 17.8663C11.2873 17.8998 11.3555 17.8314 11.389 17.9167C11.389 17.9167 11.4921 18.2244 11.5256 18.6202Z" fill="black"/>
</g>
<defs>
<clipPath id="clip0_3425_4396">
<rect width="88.9032" height="26" fill="white" transform="translate(0.666504)"/>
</clipPath>
</defs>
</svg>
