<svg width="100" height="24" viewBox="0 0 100 24" fill="none" xmlns="http://www.w3.org/2000/svg">
<g clip-path="url(#clip0_3426_4418)">
<path d="M81.6309 24C75.0186 24 69.6309 18.6122 69.6309 12C69.6309 5.38776 75.0186 0 81.6309 0C88.2431 0 93.6309 5.38776 93.6309 12C93.6309 18.6122 88.2431 24 81.6309 24ZM81.6309 2.93878C76.6349 2.93878 72.5696 7.00408 72.5696 12C72.5696 16.9959 76.6349 21.0612 81.6309 21.0612C86.6268 21.0612 90.6921 16.9959 90.6921 12C90.6921 7.00408 86.6268 2.93878 81.6309 2.93878Z" fill="black"/>
<path d="M97.6962 23.8531C98.8052 23.8531 99.7043 22.954 99.7043 21.8449C99.7043 20.7358 98.8052 19.8367 97.6962 19.8367C96.5871 19.8367 95.688 20.7358 95.688 21.8449C95.688 22.954 96.5871 23.8531 97.6962 23.8531Z" fill="black"/>
<path d="M0.569976 0.538787C0.667935 0.538787 0.765894 0.538787 0.863853 0.538787C3.80263 0.538787 6.7414 0.538787 9.68018 0.538787C10.9536 0.538787 12.2761 0.636746 13.5006 1.12654C15.6557 1.95919 16.9781 3.57552 17.223 5.87756C17.4679 7.78777 16.6843 9.35511 15.1659 10.5796C14.823 10.8735 14.4312 11.0694 13.9904 11.3143C14.1373 11.3633 14.2843 11.4123 14.3822 11.4612C16.1455 12.098 17.4679 13.2245 18.1047 15.0367C19.0353 17.8286 17.7618 21.8939 13.9904 22.9714C12.472 23.4123 10.9047 23.5102 9.3863 23.5102C6.54549 23.5102 3.65569 23.5102 0.814874 23.5102C0.716914 23.5102 0.618955 23.5102 0.520996 23.5102C0.569976 15.8694 0.569976 8.1796 0.569976 0.538787ZM3.70467 12.9306V20.8163C3.80263 20.8163 3.85161 20.8163 3.90059 20.8163C5.85977 20.8163 7.76998 20.8163 9.72916 20.8163C10.5128 20.8163 11.3455 20.8163 12.1292 20.6204C13.1088 20.3755 13.9904 19.9347 14.5781 19.0041C14.921 18.4653 15.1169 17.8286 15.1659 17.1918C15.3618 15.3306 14.2843 13.7633 12.521 13.2245C11.5414 12.9306 10.5618 12.8816 9.58222 12.8816C7.67202 12.8816 5.81079 12.8816 3.90059 12.8816C3.85161 12.8816 3.80263 12.9306 3.70467 12.9306ZM3.70467 10.1878C3.80263 10.1878 3.85161 10.1878 3.90059 10.1878C5.95773 10.1878 8.01487 10.1878 10.072 10.1388C10.8557 10.1388 11.6883 10.0408 12.423 9.69797C13.2067 9.35511 13.7455 8.81634 13.9904 7.98368C14.1863 7.39593 14.2353 6.80817 14.1373 6.22042C13.9904 4.89797 13.1088 3.8694 11.7863 3.52654C10.8557 3.28164 9.8761 3.28164 8.89651 3.28164C7.2312 3.28164 5.56589 3.28164 3.90059 3.28164H3.70467C3.70467 5.58368 3.70467 7.88573 3.70467 10.1878ZM58.7087 13.0776C61.9414 16.5061 65.1741 19.9347 68.4067 23.4123C68.3577 23.4123 68.3088 23.4612 68.2598 23.4612C67.0843 23.4612 65.9577 23.4612 64.7822 23.4612C64.6843 23.4612 64.5373 23.3633 64.4883 23.3143C61.3537 20.0327 58.2679 16.8 55.1822 13.5184C55.0353 13.3714 54.8883 13.3225 54.6924 13.3225C53.272 13.3225 51.8026 13.3225 50.3822 13.3225H50.0394V23.5102H46.9536V0.489807H47.1985C50.6761 0.489807 54.1536 0.489807 57.6802 0.489807C59.0026 0.489807 60.2761 0.587766 61.5985 0.930623C63.8516 1.51838 65.1741 3.08573 65.6639 5.24083C66.1047 7.10205 65.8108 8.86532 64.6353 10.4327C63.8026 11.5102 62.7251 12.098 61.4516 12.5388C60.619 12.7837 59.7863 12.9796 58.9047 13.0776C58.8557 13.0286 58.8067 13.0776 58.7087 13.0776ZM50.0394 10.6286C50.0883 10.6286 50.1373 10.6286 50.1373 10.6286C52.5373 10.6286 54.9373 10.6286 57.3373 10.6286C58.2679 10.6286 59.1985 10.5306 60.0802 10.1878C61.5985 9.64899 62.5292 8.37552 62.5781 6.80817C62.5781 5.24083 61.7455 3.96736 60.2761 3.42858C59.4434 3.08573 58.5618 3.03675 57.6802 2.98777C55.1822 2.98777 52.7332 2.98777 50.2353 2.98777C50.1863 2.98777 50.0883 2.98777 50.0394 2.98777V10.6286ZM23.0026 0.538787H26.0883V0.832664C26.0883 5.19185 26.0883 9.50205 26.0883 13.8612C26.0883 14.8898 26.1373 15.9674 26.3332 16.9959C26.7251 19.0041 27.9496 20.2286 29.9088 20.7184C31.623 21.1592 33.2883 21.0612 34.9536 20.5714C36.472 20.1306 37.4516 19.1021 37.8434 17.5347C38.1863 16.2123 38.2843 14.8408 38.2843 13.5184C38.2843 9.30613 38.2843 5.09389 38.2843 0.881644V0.538787H41.37C41.37 0.636746 41.37 0.685726 41.37 0.783685C41.37 5.19185 41.37 9.64899 41.37 14.0572C41.37 15.4776 41.223 16.898 40.8312 18.2694C40.1455 20.7184 38.4802 22.2367 36.1292 23.0694C34.9047 23.5102 33.6312 23.6082 32.3088 23.6082C30.8394 23.6082 29.419 23.4612 27.9985 23.0204C25.4026 22.1388 23.8843 20.3265 23.3455 17.6816C23.0516 16.3592 22.9536 15.0367 22.9536 13.6653C22.9536 9.35511 22.9536 5.04491 22.9536 0.734705C23.0026 0.685725 23.0026 0.636746 23.0026 0.538787Z" fill="black"/>
</g>
<defs>
<clipPath id="clip0_3426_4418">
<rect width="99.4286" height="24" fill="white" transform="translate(0.569824)"/>
</clipPath>
</defs>
</svg>
