<svg width="143" height="24" viewBox="0 0 143 24" fill="none" xmlns="http://www.w3.org/2000/svg">
<g clip-path="url(#clip0_3425_4383)">
<path fill-rule="evenodd" clip-rule="evenodd" d="M4.86972 19.8965C8.81748 19.8965 11.1518 16.8513 11.1518 11.6736V11.3355C11.1518 6.09107 9.12663 3.11314 4.86972 3.11314H3.7708V19.8965H4.86972ZM0.166504 0H5.07557C11.0833 0 14.8594 4.26354 14.8594 11.2342V11.7752C14.8594 18.6106 11.1518 23.0094 5.07557 23.0094H0.166504V0Z" fill="black"/>
<path fill-rule="evenodd" clip-rule="evenodd" d="M16.5879 0H27.5538V3.11314H20.0971V12.4862H26.3731V15.5988H20.0971V19.8965H27.8236V23.0094H16.5879V0Z" fill="black"/>
<path fill-rule="evenodd" clip-rule="evenodd" d="M33.1637 14.381H33.9886C37.3583 14.381 38.9061 12.1476 38.9061 8.86542V8.59481C38.9061 5.17698 37.3583 3.11314 33.9886 3.11314H33.1637V14.381ZM29.5527 0H34.0232C39.0776 0 42.5171 3.14699 42.5171 8.5271V8.86542C42.5171 14.2117 39.1468 17.4939 34.0232 17.4939H33.1637V23.0094H29.5527V0Z" fill="black"/>
<path fill-rule="evenodd" clip-rule="evenodd" d="M46.3103 17.2403H51.4793L49.8264 12.0414C49.4402 10.8337 48.983 8.98906 48.9476 8.7208C48.8776 8.92194 48.4201 10.8004 48.0336 12.0414L46.3103 17.2403ZM48.7718 0H49.229L57.2109 23.0094H53.3436L52.4286 20.1584H45.3609L44.4472 23.0094H40.7896L48.7718 0Z" fill="black"/>
<path fill-rule="evenodd" clip-rule="evenodd" d="M61.5719 14.4487H62.6054C65.8378 14.4487 67.3048 12.1476 67.3048 8.86542V8.59481C67.3048 5.17698 65.8378 3.11314 62.6054 3.11314H61.5719V14.4487ZM64.2384 17.2569C63.7047 17.3584 63.1718 17.3921 62.6384 17.3921H61.5719V23.0094H58.0728V0H62.6384C67.5046 0 70.804 3.14699 70.804 8.5271V8.86542C70.804 12.1815 69.4377 14.6854 67.3048 16.0728L71.0371 23.0094H67.2713L64.2384 17.2569Z" fill="black"/>
<path fill-rule="evenodd" clip-rule="evenodd" d="M75.7424 3.11314H71.0376V0H84.0019V3.11314H79.2971V23.0094H75.7424V3.11314Z" fill="black"/>
<path fill-rule="evenodd" clip-rule="evenodd" d="M85.7305 16.03V0H89.3427V15.9629C89.3427 18.4344 90.5123 19.8035 92.6446 19.8035C94.7774 19.8035 95.9472 18.4344 95.9472 15.9629V0H99.5592V16.03C99.5592 20.7052 96.704 23.0094 92.6446 23.0094C88.5862 23.0094 85.7305 20.7052 85.7305 16.03Z" fill="black"/>
<path fill-rule="evenodd" clip-rule="evenodd" d="M105.651 14.4487H106.685C109.917 14.4487 111.384 12.1476 111.384 8.86542V8.59481C111.384 5.17698 109.917 3.11314 106.685 3.11314H105.651V14.4487ZM108.317 17.2569C107.784 17.3584 107.251 17.3921 106.718 17.3921H105.651V23.0094H102.152V0H106.718C111.583 0 114.883 3.14699 114.883 8.5271V8.86542C114.883 12.1815 113.516 14.6854 111.384 16.0728L115.116 23.0094H111.35L108.317 17.2569Z" fill="black"/>
<path fill-rule="evenodd" clip-rule="evenodd" d="M116.845 0H127.81V3.11314H120.354V12.4862H126.629V15.5988H120.354V19.8965H128.081V23.0094H116.845V0Z" fill="black"/>
<path fill-rule="evenodd" clip-rule="evenodd" d="M128.944 21.5337L131.129 19.0003C132.08 19.856 133.207 20.6779 134.934 20.6779C136.942 20.6779 138.245 19.5141 138.245 17.8019V17.5279C138.245 16.1589 137.575 15.1662 135.814 13.7283L133.489 11.811C131.305 9.99628 130.001 8.35347 130.001 5.68286V5.44333C130.001 2.22533 132.467 0 136.026 0C138.28 0 139.619 0.513572 141.028 1.47221L139.266 4.21089C138.421 3.62903 137.54 3.1497 136.132 3.1497C134.722 3.1497 133.56 4.03961 133.56 5.37505V5.54586C133.56 7.01806 134.334 7.90818 135.955 9.20914L138.35 11.1607C140.676 13.0779 141.909 14.858 141.909 17.3914V17.7334C141.909 21.2257 139.443 23.8616 135.039 23.8616C132.221 23.8616 130.353 22.9374 128.944 21.5337Z" fill="black"/>
</g>
<defs>
<clipPath id="clip0_3425_4383">
<rect width="142" height="24" fill="white" transform="translate(0.166504)"/>
</clipPath>
</defs>
</svg>
