<svg width="98" height="26" viewBox="0 0 98 26" fill="none" xmlns="http://www.w3.org/2000/svg">
<g clip-path="url(#clip0_3425_4394)">
<path d="M55.4001 8.76295C55.4001 5.97036 55.4488 3.37036 55.5951 0.962952L48.1363 2.35925V3.03332L48.8676 3.12962C49.4038 3.17777 49.7451 3.37036 49.9401 3.65925C50.1351 3.99628 50.2813 4.47777 50.3788 5.19999C50.4763 6.59629 50.5738 9.77406 50.5251 14.7815C50.5251 19.7407 50.4763 22.8704 50.3788 24.0741C53.0601 24.6518 55.1563 24.8926 56.7163 24.8926C59.6413 24.8926 61.9326 24.0741 63.5901 22.3889C65.2476 20.7518 66.1251 18.4407 66.1251 15.6C66.1251 13.337 65.4913 11.4592 64.2238 9.96666C62.9563 8.47406 61.3476 7.75184 59.4463 7.75184C58.1788 7.75184 56.8626 8.08888 55.4001 8.76295ZM55.5463 23.5926C55.4488 22.0518 55.3513 17.4296 55.3513 9.87036C55.7901 9.72591 56.3751 9.62962 57.1063 9.62962C58.2763 9.62962 59.2026 10.2074 59.8851 11.4111C60.5676 12.6148 60.9088 14.0592 60.9088 15.8889C60.9088 18.1518 60.5188 19.9815 59.7388 21.5222C58.9588 23.0148 57.9838 23.7852 56.7651 23.7852C56.3751 23.6889 55.9851 23.6407 55.5463 23.5926ZM20.1538 1.44443H0.653809V2.4074L1.67756 2.50369C2.45756 2.64814 2.99381 2.93703 3.33506 3.37036C3.67631 3.85184 3.87131 4.62221 3.92006 5.68147C4.31006 10.8815 4.31006 15.7444 3.92006 20.2222C3.82256 21.2815 3.62756 22.0518 3.33506 22.5333C2.99381 23.0148 2.45756 23.3037 1.67756 23.4L0.653809 23.5444V24.5074H13.2313V23.5444L11.9151 23.4481C11.1351 23.3518 10.5988 23.0148 10.2576 22.5815C9.91631 22.1 9.72131 21.3296 9.67256 20.2704C9.52631 18.3444 9.42881 16.1296 9.42881 13.6741L12.0613 13.7222C13.4751 13.7704 14.4501 14.8296 14.9376 16.9481H15.9126V9.09999H14.9376C14.4501 11.1704 13.5238 12.2296 12.0613 12.2778L9.42881 12.3259C9.42881 7.99258 9.52631 4.9111 9.67256 3.03332H13.5238C16.2538 3.03332 18.1063 4.76666 19.1788 8.23332L20.3488 7.89629L20.1538 1.44443ZM17.8626 16.2741C17.8626 18.7778 18.5938 20.8481 20.0076 22.4852C21.4213 24.1222 23.5176 24.8926 26.1501 24.8926C28.7826 24.8926 30.9276 24.0741 32.4876 22.3889C34.0476 20.7518 34.7788 18.6815 34.7788 16.1778C34.7788 13.6741 34.0476 11.6037 32.6338 9.96666C31.2201 8.32962 29.1238 7.55925 26.4913 7.55925C23.8588 7.55925 21.7138 8.37777 20.1538 10.063C18.5938 11.7 17.8626 13.7704 17.8626 16.2741ZM28.7338 10.7852C29.3188 12.1815 29.5626 14.0111 29.5626 16.2259C29.5626 21.3296 28.4901 23.8333 26.3938 23.8333C25.3213 23.8333 24.4926 23.1111 23.9076 21.6667C23.3226 20.2222 23.0788 18.3926 23.0788 16.2259C23.0788 11.1704 24.1513 8.66666 26.2476 8.66666C27.3201 8.61851 28.1488 9.34073 28.7338 10.7852ZM69.9276 22.4852C71.5363 24.0741 73.5838 24.8926 76.0213 24.8926C77.5326 24.8926 78.8488 24.6037 80.0188 23.9778C81.1888 23.4 82.1151 22.6778 82.7488 21.8111L82.2613 21.2333C81.1888 22.0518 79.9701 22.437 78.5563 22.437C76.6063 22.437 75.0951 21.8111 74.0713 20.5111C72.9988 19.2111 72.5113 17.5741 72.6088 15.4555H83.0413C83.0413 13.1444 82.4563 11.2667 81.2376 9.77406C80.0188 8.32962 78.3126 7.6074 76.1188 7.6074C73.3888 7.6074 71.2926 8.47406 69.7813 10.1592C68.2701 11.8444 67.5388 13.9148 67.5388 16.3704C67.5388 18.8741 68.3188 20.8963 69.9276 22.4852ZM73.5351 10.4C74.0713 9.24443 74.7538 8.66666 75.6801 8.66666C77.1426 8.66666 77.8738 10.4963 77.8738 14.2037L72.7063 14.3C72.7551 12.8555 72.9988 11.5555 73.5351 10.4ZM96.1551 8.47406C94.8388 7.89629 93.1813 7.55925 91.1826 7.55925C89.1351 7.55925 87.5263 8.08888 86.3076 9.09999C85.0888 10.1111 84.4551 11.363 84.4551 12.8555C84.4551 14.1555 84.8451 15.1667 85.5763 15.8889C86.3076 16.6111 87.4776 17.237 88.9888 17.7667C90.3538 18.2481 91.3288 18.7296 91.8163 19.163C92.3038 19.6444 92.5963 20.1741 92.5963 20.8963C92.5963 21.5704 92.3526 22.1963 91.8163 22.6778C91.3288 23.2074 90.6463 23.4481 89.7688 23.4481C87.6238 23.4481 86.0151 21.9074 84.8938 18.8259L84.0651 19.0667L84.2601 23.8815C86.0151 24.5555 87.9651 24.8926 90.1101 24.8926C92.3526 24.8926 94.0588 24.4111 95.3263 23.4C96.5938 22.437 97.2276 21.0407 97.2276 19.3074C97.2276 18.1518 96.9351 17.1889 96.3013 16.4667C95.6676 15.7444 94.6438 15.1185 93.1813 14.5407C91.5726 13.963 90.4513 13.4333 89.8663 12.9518C89.2813 12.4704 88.9888 11.8926 88.9888 11.1704C88.9888 10.4481 89.1838 9.87036 89.6226 9.38888C90.0613 8.9074 90.5976 8.7148 91.2801 8.7148C93.2301 8.7148 94.6438 10.1111 95.5213 12.8555L96.3501 12.6148L96.1551 8.47406ZM49.2576 8.04073C48.5751 7.70369 47.8438 7.55925 47.0151 7.55925C46.1863 7.55925 45.3576 7.89628 44.4313 8.57036C43.5051 9.24443 42.8226 10.1592 42.2863 11.4111L42.3351 7.55925L34.9251 9.00369V9.67777L35.6563 9.72591C36.5826 9.82221 37.1188 10.5444 37.2163 11.8444C37.5088 14.8296 37.5088 18.0074 37.2163 21.3778C37.1188 22.6778 36.5826 23.3518 35.6563 23.4963L34.9251 23.5926V24.5074H45.2601V23.5926L43.9438 23.4963C43.0176 23.4 42.4813 22.6778 42.3838 21.3778C42.0913 18.5852 42.0426 15.6 42.2863 12.5185C42.5788 12.037 43.2126 11.7481 44.1876 11.6518C45.1626 11.5555 46.2838 11.8444 47.4538 12.5185L49.2576 8.04073Z" fill="black"/>
</g>
<defs>
<clipPath id="clip0_3425_4394">
<rect width="97.5" height="26" fill="white" transform="translate(0.166504)"/>
</clipPath>
</defs>
</svg>
