<svg width="91" height="28" viewBox="0 0 91 28" fill="none" xmlns="http://www.w3.org/2000/svg">
<g clip-path="url(#clip0_3425_4398)">
<path d="M9.46082 0.212692H9.62068L10.0089 9.6549H9.8795C9.59023 8.59902 8.88227 0.281058 5.99715 0.281058C3.78192 0.281058 3.04352 10.4601 3.04352 13.8785C3.04352 18.2919 3.59161 27.5746 6.05805 27.5746C7.24559 27.5746 7.88504 25.5236 7.88504 22.8421V14.2279H6.56808V13.8785H11.9196V14.2279H10.5798V27.7341H10.42C10.2297 27.1568 10.1992 26.0098 9.33141 26.0098C8.37224 26.0098 7.34455 27.9924 5.99715 27.9924C1.57431 27.9924 -0.00146484 19.8036 -0.00146484 13.8785C-0.00146484 8.98643 1.79507 -0.00760214 5.99715 -0.00760214C6.70511 -0.00760214 7.18469 0.182306 7.76324 0.987515C8.18193 1.59522 8.95078 1.72436 9.27051 0.957129C9.36186 0.72924 9.42276 0.440581 9.46082 0.212692ZM69.683 0.698855H68.4954V0.372213H73.5577V0.698855H72.3397L72.3702 27.1872H73.5577V27.5138H68.4954V27.1872H69.683M54.9909 27.1872H58.1653C59.6421 27.1264 61.4691 25.7439 61.4691 21.8774V19.6061H61.7584V27.5062H52.1667L58.6754 0.691258H55.6304C53.7044 0.691258 52.6463 3.60065 52.6463 6.25936C52.6463 6.92783 52.6158 8.27238 52.6158 8.27238H52.357V0.372213H61.6899L54.9909 27.1872ZM18.984 0.372213H24.6248C27.3196 0.372213 29.0857 3.38035 29.0857 6.96581C29.0857 10.5513 27.6089 13.9088 25.3328 13.9088C25.0435 13.9088 25.0435 14.0987 25.3328 14.0987C26.7106 14.0987 27.7383 15.6636 27.9286 16.0814C28.766 17.745 28.1875 25.4552 29.0172 26.2225C29.7252 26.8605 30.2352 25.873 30.3342 25.7135L30.4331 25.7743C30.4331 25.835 29.8241 27.8253 28.2864 27.8253C27.038 27.8253 26.3909 26.2908 26.2006 25.2957C25.9113 23.7309 26.0103 18.8616 25.8504 17.9045C25.721 17.0385 25.3404 14.5089 24.1224 14.2887C23.5743 14.1899 23.4144 14.1899 22.8435 14.1899V27.1796H24.0311V27.4986H18.8394V27.1796H20.1715V0.698855H19.0145V0.372213H18.984ZM22.8283 0.698855V13.8481C23.3764 13.8481 24.3051 13.9088 25.2338 12.6934C26.1016 11.5768 26.4518 8.69017 26.4518 6.5784C26.4518 4.3071 25.2947 0.691258 23.856 0.691258L22.8283 0.698855ZM36.2338 27.1872L41.3342 -0.00760214L46.0463 27.1948H47.1349V27.5138H42.2324V27.1948H43.321L41.9736 19.6137H38.0608L36.683 27.1948H38.0608V27.5138H35.0767V27.1948H36.2338V27.1872ZM38.1293 19.2566H41.9127L40.0857 8.6294L38.1293 19.2566ZM79.6857 27.1872L84.7861 -0.0151978L89.4982 27.1872H90.5868V27.5062H85.6843V27.1872H86.7729L85.4255 19.6061H81.5127L80.1349 27.1872H81.5127V27.5062H78.5286V27.1872H79.6857ZM81.5736 19.2566H85.357L83.53 8.6294L81.5736 19.2566Z" fill="black"/>
</g>
<defs>
<clipPath id="clip0_3425_4398">
<rect width="90.5882" height="28" fill="white" transform="translate(-0.00146484)"/>
</clipPath>
</defs>
</svg>
