<svg width="146" height="26" viewBox="0 0 146 26" fill="none" xmlns="http://www.w3.org/2000/svg">
<path d="M52.5381 9.92646V25.2861L58.1412 25.2837L58.1294 6.94519L52.5381 9.92646Z" fill="black"/>
<path d="M58.2729 2.20504C58.0602 1.60579 57.611 1.03041 57.0467 0.634533C55.7719 -0.130864 53.9405 0.0883552 52.959 1.12675C52.2168 1.81718 51.8613 2.97293 52.0525 4.07811C52.203 5.11134 53.0529 5.94031 53.7738 6.27262C54.9622 6.74596 56.7296 6.64944 57.8074 5.3254C58.4178 4.5974 58.6145 3.28368 58.2729 2.20237V2.20504Z" fill="black"/>
<path d="M24.6413 9.92898C24.3561 8.78444 23.3793 7.79751 22.2654 7.53537C19.6896 6.90532 17.3454 7.88246 15.9908 10.1494L15.8635 10.3605L15.7737 10.1323C15.0986 8.45499 14.0312 7.52576 12.6009 7.37278C10.22 7.00469 8.38267 7.90667 6.6307 10.2997L6.41128 10.6007V7.12329C6.08215 7.29051 0.994141 9.86825 0.994141 9.86825V25.3069H6.41128L6.42238 13.7483C6.42238 12.8458 7.32225 12.053 8.2232 12.0823C9.06742 12.1096 9.91593 12.9024 9.91593 13.7483C9.91593 13.7483 9.91861 25.0836 9.91861 25.2941H15.5716C15.5716 25.0836 15.5618 13.7483 15.5618 13.7483C15.5715 12.8353 16.5401 12.0416 17.4637 12.0823C18.3085 12.1196 19.1153 12.9133 19.1153 13.7483V25.2895H24.8L24.7903 11.9173C24.7903 11.3665 24.7903 10.5686 24.6413 9.92898Z" fill="black"/>
<path d="M40.4718 23.1247C39.9867 23.0782 39.8532 22.0548 39.8532 22.0548C39.8532 22.0451 38.8224 15.9587 38.8224 15.9587C38.8224 15.9663 38.5786 14.7757 38.5786 14.7757C38.328 13.5095 38.0671 12.1979 37.5823 10.9928C35.9982 7.33894 31.4528 6.73792 28.1053 7.72485C27.5686 7.88708 27.0599 8.16097 27.0599 8.16097V10.4258C28.4364 9.83156 29.7794 9.79523 30.8661 10.3092C32.2795 10.9902 32.678 12.7236 32.7514 13.4411C32.7514 13.4534 32.8755 14.2434 32.8755 14.2434C31.2427 14.4884 29.214 14.8896 27.7176 15.9392C26.0459 17.1251 25.166 19.0145 25.3613 20.9881C25.4221 23.0875 27.0549 24.768 28.6317 25.3502C30.7272 26.0869 33.6033 25.9679 35.314 24.0089C35.3238 23.9991 35.5234 23.7772 35.5234 23.7772L36.0077 24.2464C37.2556 25.5484 38.6228 25.5074 40.2069 25.4611L41.0472 25.4444L41.0466 23.2105C41.0466 23.2105 40.4864 23.1302 40.4718 23.1247ZM33.2887 16.9305L34.3119 21.8669C31.6763 24.8907 27.3352 19.5837 33.2887 16.9305Z" fill="black"/>
<path d="M51.1908 6.96229C48.7199 6.96229 47.3718 9.81392 47.3575 9.84561L47.1236 10.3938V10.044L47.1215 6.94519L41.6211 9.92504L41.6261 25.3293L47.1454 25.3274V15.4678L47.1675 15.0998C47.2161 14.2872 47.2623 13.4482 47.6451 12.7403C48.4711 11.1522 50.3843 11.186 51.7219 11.3581L52.6916 7.21926C52.6916 7.21926 52.0824 6.9646 51.1908 6.96229Z" fill="black"/>
<path d="M130.008 7.21944C130.008 7.21944 129.398 6.96496 128.506 6.96246C126.036 6.96246 124.688 9.81409 124.673 9.84597L124.439 10.3941V10.044L124.437 6.94519L118.937 9.9254L118.942 25.3295L124.461 25.3274V15.4678L124.483 15.0998C124.532 14.2872 124.578 13.4484 124.961 12.7403C125.787 11.1524 127.7 11.186 129.038 11.3582L130.008 7.21944Z" fill="black"/>
<path d="M118.408 2.02731C118.195 1.42807 117.746 0.852327 117.181 0.456628C115.907 -0.309125 114.075 -0.0895498 113.094 0.948669C112.352 1.63909 111.996 2.7952 112.187 3.90003C112.338 4.93326 113.188 5.76259 113.909 6.09489C115.097 6.56823 116.864 6.47171 117.942 5.14731C118.553 4.41949 118.749 3.1056 118.408 2.02446V2.02731Z" fill="black"/>
<path d="M137.63 22.9803C135.444 22.8204 134.407 18.7991 134.407 18.7991L143.907 15.7452C143.907 15.7452 143.728 11.6153 141.436 9.37379C139.337 7.32229 136.154 6.71164 133.225 7.91299C131.482 8.58453 129.872 10.3881 129.124 12.505C127.663 16.5348 128.532 21.0437 131.286 23.7224C133.827 26.1434 137.781 26.0984 140.634 25.2475C140.623 25.25 142.072 24.6321 142.072 24.6321L142.07 22.0737C142.07 22.0737 140.336 23.1771 137.63 22.9803ZM134.276 16.2239C134.126 14.4899 134.341 12.6364 134.761 11.7857C135.185 10.9213 135.666 10.5881 136.256 10.5173C138.775 10.2131 139.054 14.8106 139.054 14.8106L134.276 16.2348C134.28 16.2376 134.276 16.2214 134.276 16.2239Z" fill="black"/>
<path d="M112.673 9.92646V25.2861L118.275 25.2837L118.264 6.94519L112.673 9.92646Z" fill="black"/>
<path d="M71.8151 9.37386C69.7165 7.32218 66.5333 6.71153 63.6046 7.91323C61.8617 8.5846 60.251 10.388 59.5032 12.5049C58.043 16.5347 58.9117 21.0436 61.6658 23.7225C64.2066 26.1442 68.1601 26.0986 71.0135 25.2478C71.0028 25.2499 72.4521 24.6319 72.4521 24.6319L72.4494 22.074C72.4494 22.074 70.7151 23.1774 68.0096 22.9801C65.8235 22.8207 64.7858 18.7994 64.7858 18.7994L74.2862 15.7451C74.2862 15.7451 74.1076 11.6156 71.8151 9.37386ZM64.6559 16.235C64.6587 16.2377 64.6559 16.2213 64.6559 16.2245C64.505 14.4905 64.7205 12.6367 65.14 11.7856C65.5649 10.9212 66.0456 10.5884 66.6349 10.5175C69.1543 10.2133 69.4333 14.8105 69.4333 14.8105L64.6559 16.235Z" fill="black"/>
<path d="M86.1367 22.3727C84.6675 21.6124 83.4386 20.4959 83.2815 17.292C83.0986 13.5605 83.844 10.9387 85.8467 10.1789C87.3662 9.60223 89.4521 10.8743 89.4521 10.8743L89.4729 7.85845C89.4729 7.85845 86.6129 6.47903 83.4025 7.49926C80.5038 8.42101 78.6357 10.6688 77.9733 14.3446C77.491 17.0224 77.8737 19.98 79.2065 22.305C80.7421 24.822 83.6525 26.1315 86.9728 25.6829C87.8761 25.5607 89.7574 24.9843 89.7574 24.9843L89.7313 22.1976C89.7313 22.1976 87.6511 23.157 86.1367 22.3727Z" fill="black"/>
<path d="M111.524 22.9463C111.039 22.9 110.905 21.8769 110.905 21.8769C110.905 21.8673 109.875 15.7808 109.875 15.7808C109.875 15.7877 109.631 14.5978 109.631 14.5978C109.38 13.3316 109.119 12.02 108.634 10.8146C107.05 7.16072 102.505 6.56005 99.1575 7.54662C98.6208 7.70886 98.1118 7.98293 98.1118 7.98293V10.2476C99.4886 9.65334 100.832 9.61719 101.918 10.131C103.332 10.8123 103.73 12.5454 103.803 13.2632C103.803 13.2753 103.928 14.0657 103.928 14.0657C102.295 14.3102 100.266 14.7114 98.7699 15.7616C97.0981 16.947 96.2183 18.8363 96.4135 20.8098C96.4742 22.9096 98.1071 24.5898 99.6837 25.1719C101.779 25.9092 104.655 25.7901 106.366 23.8306C106.376 23.821 106.576 23.5995 106.576 23.5995L107.06 24.0682C108.308 25.3705 109.675 25.3296 111.259 25.2833L112.099 25.2662L112.099 23.0319C112.099 23.0319 111.538 22.9523 111.524 22.9463ZM104.341 16.7524L105.364 21.6888C102.729 24.7129 98.3871 19.4058 104.341 16.7524Z" fill="black"/>
<path d="M90.3013 25.2524H95.8081V1.42465L90.3013 4.35838V25.2524Z" fill="black"/>
</svg>
