<svg width="135" height="32" viewBox="0 0 135 32" fill="none" xmlns="http://www.w3.org/2000/svg">
<path d="M5.02224 22.0698C5.02224 20.7602 5.3769 19.6669 6.00614 18.9039C6.62393 18.1409 7.51631 17.7082 8.51165 17.7082C9.15232 17.7082 9.4841 17.7424 10.1019 17.936L10.2506 17.9815V18.3687L10.0676 18.3915C8.94639 18.5509 8.60317 19.2456 8.59173 19.8947C8.59173 20.6918 9.28961 21.3296 10.079 21.3296C10.9256 21.3296 11.7265 20.6235 11.7265 19.6669C11.7265 18.1068 10.365 17.0705 8.36292 17.0591C5.18241 17.0705 2.64258 19.2683 2.64258 22.7189C2.65402 26.0669 5.47987 29.563 11.6807 29.5744C18.4422 29.563 21.5426 25.2925 21.5426 21.3637C21.554 17.6399 18.5909 15.089 16.1655 12.9025C13.8201 10.8071 12.5273 9.56585 12.5273 7.17439C12.5273 6.3203 12.7905 5.52315 13.3396 4.94236C13.8888 4.36158 14.7354 4.00856 15.8222 4.00856C16.9892 4.00856 17.996 4.35019 18.9455 5.23845C19.8722 6.10393 20.7761 7.47048 21.8286 9.53169L22.229 9.46336L21.8057 3.31389H21.3481L20.3184 4.86265L20.1354 4.70322C19.0828 3.80357 18.0532 3.06336 15.9023 3.05197C12.5616 3.06336 10.2163 5.29539 10.2163 8.33596C10.2163 11.536 12.493 13.4377 14.6782 15.4989C17.4125 18.0726 18.7625 19.5075 18.7511 22.4911C18.7511 24.0968 18.1447 25.6 17.0349 26.6933C15.9252 27.7865 14.3006 28.4698 12.2985 28.4698C9.83876 28.4698 8.00826 27.7865 6.80698 26.6363C5.59427 25.4861 5.02224 23.8804 5.02224 22.0698ZM28.6472 26.0328L32.8116 6.37724L29.0248 7.00357L24.5286 13.0733L24.1625 12.9936L26.0845 5.95589H42.3417L41.8269 13.005L41.5066 13.0847L39.1727 7.09468L35.8091 6.38863L31.6447 26.0214L34.8023 26.6477L34.6879 27.2285H25.1349L25.2494 26.6591L28.6472 26.0328ZM53.5536 17.6171L61.6193 7.15162L64.1133 6.53667L64.2506 5.95589H57.9125L57.7638 6.55944L59.8231 7.21994L53.0273 17.2641L50.0756 7.3566L52.9358 6.54806L53.0731 5.96727H44.9845L44.8358 6.58222L46.8951 7.34521L50.4761 17.9815L48.7485 26.0441L45.6595 26.6705L45.5222 27.2399H54.4688L54.6061 26.6477L51.7688 26.0214L53.5536 17.6171ZM80.2561 20.1452L78.071 27.2285H62.0311L62.1684 26.6591L65.2002 26.0328L69.2159 7.17439L66.4472 6.54806L66.5845 5.95589H75.4396L75.3023 6.52528L72.2133 7.15162L68.0489 26.6933L75.1994 25.9644L79.89 20.0769L80.2561 20.1452ZM84.7409 26.0328L81.6176 26.6591L81.4803 27.2285H90.4612L90.5985 26.6363L87.7383 26.01L91.754 7.15162L94.8773 6.52528L95.0146 5.95589H86.5142C84.3519 5.95589 82.7044 6.34307 81.6176 7.09468C80.5307 7.83489 79.9701 8.91674 79.9701 10.3972C79.9816 12.2876 81.1371 12.9253 82.121 12.9367C82.9905 12.9367 83.6311 12.242 83.6311 11.4676C83.6311 10.7502 83.0591 10.0897 82.3155 10.0897C81.9379 10.0897 81.5032 10.2491 81.0455 10.6933L80.9883 10.7502H80.4163L80.4277 10.5338C80.565 8.52955 82.7616 6.86692 86.6057 6.87831H88.8366L84.7409 26.0328ZM96.7078 26.6477C97.9205 27.8093 99.751 28.4812 102.199 28.4812C104.201 28.4812 105.826 27.7979 106.936 26.7046C108.046 25.6114 108.652 24.1196 108.652 22.5025C108.663 19.5303 107.313 18.084 104.568 15.5103C102.382 13.4491 100.106 11.5473 100.106 8.34735C100.117 5.30678 102.451 3.07475 105.792 3.06336C107.943 3.06336 108.972 3.81496 110.025 4.71461L110.208 4.87404L111.237 3.32528H111.695L112.118 9.47475L111.718 9.54308C110.665 7.48186 109.762 6.11532 108.835 5.24984C107.885 4.36158 106.879 4.00856 105.712 4.01994C104.613 4.01994 103.778 4.37297 103.229 4.95375C102.68 5.53453 102.417 6.33169 102.417 7.18578C102.417 9.57724 103.698 10.8185 106.055 12.9139C108.492 15.089 111.443 17.6399 111.432 21.3751C111.421 25.3039 108.32 29.5858 101.57 29.5858C95.3693 29.5744 92.5434 26.0783 92.532 22.7303C92.5434 19.2797 95.0718 17.0819 98.2523 17.0705C100.254 17.0819 101.616 18.1068 101.616 19.6783C101.616 20.6349 100.815 21.3295 99.9684 21.3409C99.1905 21.3409 98.4811 20.6918 98.4811 19.9061C98.4926 19.257 98.8472 18.5623 99.957 18.4029L100.14 18.3801V17.9929L99.9913 17.9473C99.3735 17.7538 99.0417 17.7196 98.401 17.7196C97.4057 17.7196 96.5133 18.1523 95.8955 18.9153C95.2777 19.6783 94.9116 20.7715 94.9116 22.0812C94.9231 23.8804 95.4951 25.4861 96.7078 26.6477ZM114.189 13.005L114.555 13.0847L119.051 7.01496L122.838 6.38863L118.674 26.0441L115.265 26.6705L115.15 27.2399H124.703L124.818 26.6591L121.66 26.0328L125.824 6.40001L129.199 7.09468L131.533 13.0847L131.854 13.005L132.368 5.95589H116.111L114.189 13.005Z" fill="black"/>
</svg>
