<svg width="38" height="24" viewBox="0 0 38 24" fill="none" xmlns="http://www.w3.org/2000/svg">
<g clip-path="url(#clip0_3383_4531)">
<path d="M34.32 21.39L32.6 19.53L30.88 21.39H20.29V12.79H16.85L21.11 3.09H25.24L26.75 6.39V3.09H31.84L32.73 5.63L33.62 3.09H37.54V1.58C37.54 0.69 36.78 0 35.96 0H1.58C0.69 0 0 0.76 0 1.58V22.42C0 23.31 0.76 24 1.58 24H35.96C36.85 24 37.54 23.24 37.54 22.42V21.39H34.31H34.32Z" fill="#0071CE"/>
<path d="M34.8 20.42H37.55L33.97 16.64L37.55 12.86H34.87L32.66 15.27L30.46 12.86H27.78L31.36 16.64L27.78 20.42H30.4L32.6 18.02L34.8 20.42Z" fill="#0071CE"/>
<path d="M23.45 18.7V17.54H27.71V15.82H23.45V14.58H27.78V12.86H21.39V20.42H27.78V18.7H23.45Z" fill="#0071CE"/>
<path d="M35.48 11.83H37.48V4.25999H34.38L32.66 8.93999L31.01 4.25999H27.78V11.83H29.85V6.52999L31.77 11.83H33.56L35.48 6.52999V11.83Z" fill="#0071CE"/>
<path d="M24.48 4.25999H21.87L18.57 11.76H20.84L21.46 10.25H24.9L25.52 11.76H27.86L24.49 4.25999H24.48ZM22.07 8.59999L23.1 6.11999L24.13 8.59999H22.07Z" fill="#0071CE"/>
<path d="M35.62 16.46L37.55 18.52V14.4L35.62 16.46Z" fill="#0071CE"/>
</g>
<defs>
<clipPath id="clip0_3383_4531">
<rect width="37.55" height="24" fill="white"/>
</clipPath>
</defs>
</svg>
