<svg width="38" height="24" viewBox="0 0 38 24" fill="none" xmlns="http://www.w3.org/2000/svg">
<g clip-path="url(#clip0_3383_4749)">
<path d="M34.13 0H3.36C3.23 0 3.1 0 2.98 0C2.87 0 2.76 0 2.66 0C2.42 0 2.19 0.02 1.95 0.06C1.71 0.1 1.49 0.17 1.28 0.28C1.07 0.39 0.88 0.53 0.71 0.69C0.54 0.86 0.4 1.05 0.3 1.26C0.19 1.47 0.12 1.69 0.0800005 1.93C0.0400005 2.16 0.0200005 2.4 0.0200005 2.63C0.0200005 2.74 0.0200005 2.85 0.0200005 2.95C0.0200005 3.08 0.0200005 3.21 0.0200005 3.33V20.62C0.0200005 20.75 0.0200005 20.88 0.0200005 21C0.0200005 21.11 0.0200005 21.22 0.0200005 21.32C0.0200005 21.55 0.0400005 21.79 0.0800005 22.02C0.12 22.26 0.19 22.48 0.3 22.69C0.41 22.9 0.55 23.09 0.71 23.26C0.88 23.43 1.07 23.57 1.28 23.67C1.49 23.78 1.71 23.85 1.95 23.89C2.18 23.93 2.42 23.95 2.66 23.95C2.77 23.95 2.88 23.95 2.98 23.95C3.11 23.95 3.24 23.95 3.36 23.95H34.13C34.26 23.95 34.39 23.95 34.51 23.95C34.62 23.95 34.73 23.95 34.83 23.95C35.06 23.95 35.3 23.93 35.54 23.89C35.78 23.85 36 23.78 36.21 23.67C36.42 23.56 36.61 23.42 36.78 23.26C36.95 23.09 37.09 22.9 37.19 22.69C37.3 22.48 37.37 22.26 37.41 22.02C37.45 21.79 37.47 21.55 37.47 21.32C37.47 21.21 37.47 21.1 37.47 21C37.47 20.87 37.47 20.74 37.47 20.62V3.36C37.47 3.23 37.47 3.1 37.47 2.98C37.47 2.87 37.47 2.76 37.47 2.66C37.47 2.42 37.45 2.19 37.41 1.96C37.37 1.72 37.3 1.5 37.19 1.29C37.08 1.08 36.94 0.89 36.78 0.72C36.61 0.55 36.42 0.41 36.21 0.31C36 0.2 35.78 0.13 35.54 0.09C35.31 0.05 35.07 0.03 34.83 0.03C34.72 0.03 34.61 0.03 34.51 0.03C34.38 0.03 34.25 0.03 34.13 0.03V0Z" fill="black"/>
<path d="M34.13 0.799993H34.51C34.61 0.799993 34.72 0.799993 34.82 0.799993C35 0.799993 35.21 0.809993 35.4 0.849993C35.57 0.879993 35.71 0.929993 35.85 0.999993C35.99 1.06999 36.11 1.15999 36.22 1.26999C36.33 1.37999 36.42 1.49999 36.49 1.63999C36.56 1.77999 36.61 1.91999 36.64 2.08999C36.67 2.27999 36.68 2.48999 36.69 2.66999C36.69 2.76999 36.69 2.86999 36.69 2.97999C36.69 3.10999 36.69 3.22999 36.69 3.35999V20.65C36.69 20.78 36.69 20.9 36.69 21.03C36.69 21.13 36.69 21.23 36.69 21.34C36.69 21.52 36.68 21.73 36.64 21.93C36.61 22.1 36.56 22.24 36.49 22.38C36.42 22.52 36.33 22.64 36.22 22.75C36.11 22.86 35.99 22.95 35.85 23.02C35.71 23.09 35.57 23.14 35.4 23.17C35.2 23.21 34.98 23.22 34.82 23.22C34.72 23.22 34.61 23.22 34.51 23.22C34.38 23.22 34.26 23.22 34.13 23.22H3.35C3.23 23.22 3.1 23.22 2.97 23.22C2.87 23.22 2.76 23.22 2.66 23.22C2.49 23.22 2.27 23.21 2.07 23.17C1.9 23.14 1.76 23.09 1.62 23.02C1.48 22.95 1.36 22.86 1.25 22.75C1.14 22.64 1.05 22.52 0.980001 22.38C0.910001 22.24 0.860001 22.1 0.830001 21.93C0.790001 21.73 0.790001 21.53 0.780001 21.35C0.780001 21.25 0.780001 21.15 0.780001 21.04V20.74V20.66V3.27999V2.97999C0.780001 2.87999 0.780001 2.77999 0.780001 2.66999C0.780001 2.48999 0.790001 2.27999 0.830001 2.07999C0.860001 1.90999 0.910001 1.76999 0.980001 1.62999C1.05 1.48999 1.14 1.36999 1.25 1.25999C1.36 1.14999 1.48 1.05999 1.62 0.989993C1.76 0.919993 1.9 0.869993 2.07 0.839993C2.27 0.799993 2.48 0.799993 2.66 0.789993C2.76 0.789993 2.87 0.789993 2.97 0.789993H3.35H34.12" fill="white"/>
<path d="M10.23 8.07C10.55 7.67 10.77 7.13 10.71 6.58C10.24 6.6 9.67 6.89 9.33 7.29C9.03 7.63 8.77 8.2 8.84 8.72C9.37 8.77 9.89 8.46 10.23 8.07Z" fill="black"/>
<path d="M10.71 8.83001C9.94 8.78001 9.29 9.26001 8.93 9.26001C8.57 9.26001 8 8.85001 7.4 8.86001C6.61 8.87001 5.88 9.32001 5.48 10.03C4.66 11.45 5.26 13.55 6.06 14.71C6.45 15.28 6.92 15.91 7.53 15.89C8.11 15.87 8.34 15.51 9.05 15.51C9.76 15.51 9.96 15.89 10.58 15.88C11.22 15.87 11.62 15.31 12.01 14.74C12.46 14.09 12.64 13.46 12.65 13.42C12.64 13.41 11.42 12.94 11.4 11.53C11.39 10.35 12.36 9.79001 12.41 9.76001C11.86 8.95001 11 8.86001 10.71 8.83001Z" fill="black"/>
<path d="M17.38 7.23C19.04 7.23 20.2 8.38 20.2 10.05C20.2 11.72 19.02 12.88 17.33 12.88H15.49V15.81H14.16V7.23H17.38ZM15.49 11.77H17.02C18.18 11.77 18.84 11.15 18.84 10.06C18.84 8.97 18.18 8.36 17.03 8.36H15.5V11.77H15.49Z" fill="black"/>
<path d="M20.55 14.04C20.55 12.95 21.39 12.27 22.88 12.19L24.59 12.09V11.61C24.59 10.91 24.12 10.5 23.34 10.5C22.6 10.5 22.13 10.86 22.02 11.42H20.81C20.88 10.29 21.84 9.45999 23.39 9.45999C24.94 9.45999 25.88 10.26 25.88 11.52V15.83H24.65V14.8H24.62C24.26 15.5 23.47 15.94 22.65 15.94C21.43 15.94 20.57 15.18 20.57 14.06L20.55 14.04ZM24.59 13.47V12.98L23.05 13.08C22.28 13.13 21.85 13.47 21.85 14.01C21.85 14.55 22.3 14.91 22.99 14.91C23.89 14.91 24.59 14.29 24.59 13.48V13.47Z" fill="black"/>
<path d="M27.03 18.12V17.08C27.12 17.1 27.34 17.1 27.45 17.1C28.04 17.1 28.37 16.85 28.56 16.21C28.56 16.2 28.67 15.83 28.67 15.82L26.41 9.56H27.8L29.38 14.65H29.4L30.98 9.56H32.34L30 16.14C29.47 17.66 28.85 18.14 27.55 18.14C27.44 18.14 27.12 18.13 27.03 18.11V18.12Z" fill="black"/>
</g>
<defs>
<clipPath id="clip0_3383_4749">
<rect width="37.49" height="24" fill="white"/>
</clipPath>
</defs>
</svg>
