<svg width="38" height="24" viewBox="0 0 38 24" fill="none" xmlns="http://www.w3.org/2000/svg">
<path d="M0.410004 1.24V22.77C0.410004 23.22 0.780003 23.59 1.23 23.59H24.09C30.49 23.59 35.68 18.4 35.68 12C35.68 5.6 30.49 0.410004 24.09 0.410004H1.24C0.790004 0.410004 0.420004 0.780003 0.420004 1.23L0.410004 1.24Z" fill="white"/>
<path d="M3.2 9.39999H1.74V14.5H3.19C3.96 14.5 4.52 14.32 5.01 13.91C5.59 13.43 5.94 12.7 5.94 11.95C5.94 10.44 4.82 9.39999 3.2 9.39999ZM4.36 13.23C4.05 13.51 3.64 13.64 3 13.64H2.73V10.27H3C3.64 10.27 4.03 10.38 4.36 10.68C4.7 10.99 4.91 11.46 4.91 11.95C4.91 12.44 4.7 12.93 4.36 13.24V13.23Z" fill="#261F20"/>
<path d="M7.38 9.39999H6.39V14.5H7.38V9.39999Z" fill="#261F20"/>
<path d="M9.82 11.35C9.22 11.13 9.05 10.98 9.05 10.71C9.05 10.39 9.36 10.14 9.79 10.14C10.09 10.14 10.33 10.26 10.59 10.55L11.11 9.86999C10.68 9.49999 10.17 9.29999 9.60999 9.29999C8.70999 9.29999 8.01999 9.92999 8.01999 10.76C8.01999 11.46 8.33999 11.82 9.26999 12.16C9.65999 12.3 9.86 12.39 9.96 12.45C10.16 12.58 10.26 12.76 10.26 12.98C10.26 13.39 9.93 13.7 9.49 13.7C9.02 13.7 8.63 13.46 8.4 13.02L7.75999 13.64C8.21999 14.31 8.76999 14.61 9.52999 14.61C10.56 14.61 11.29 13.92 11.29 12.94C11.29 12.13 10.95 11.76 9.82 11.35Z" fill="#261F20"/>
<path d="M11.6 11.95C11.6 13.45 12.78 14.61 14.29 14.61C14.72 14.61 15.08 14.53 15.54 14.31V13.14C15.14 13.54 14.79 13.7 14.34 13.7C13.34 13.7 12.63 12.97 12.63 11.94C12.63 10.96 13.36 10.19 14.3 10.19C14.77 10.19 15.13 10.36 15.55 10.76V9.59C15.11 9.37 14.75 9.28 14.33 9.28C12.82 9.28 11.61 10.47 11.61 11.95H11.6Z" fill="#261F20"/>
<path d="M23.43 12.82L22.07 9.39999H20.98L23.15 14.63H23.68L25.88 9.39999H24.81L23.43 12.82Z" fill="#261F20"/>
<path d="M26.33 14.5H29.16V13.63H27.33V12.26H29.09V11.39H27.33V10.26H29.16V9.39999H26.33V14.5Z" fill="#261F20"/>
<path d="M33.09 10.9C33.09 9.95001 32.43 9.39001 31.28 9.39001H29.81V14.49H30.8V12.44H30.93L32.31 14.49H33.53L31.92 12.34C32.67 12.19 33.08 11.68 33.08 10.89L33.09 10.9ZM31.1 11.74H30.81V10.2H31.12C31.74 10.2 32.08 10.46 32.08 10.96C32.08 11.46 31.74 11.75 31.11 11.75L31.1 11.74Z" fill="#261F20"/>
<path d="M33.89 9.65999C33.89 9.56999 33.83 9.51999 33.72 9.51999H33.58V9.96999H33.69V9.79999L33.82 9.96999H33.95L33.8 9.77999C33.86 9.75999 33.9 9.71999 33.9 9.64999L33.89 9.65999ZM33.7 9.71999H33.68V9.59999H33.7C33.75 9.59999 33.78 9.61999 33.78 9.65999C33.78 9.69999 33.75 9.71999 33.7 9.71999Z" fill="#261F20"/>
<path d="M33.74 9.36002C33.52 9.36002 33.35 9.53002 33.35 9.75002C33.35 9.97002 33.53 10.14 33.74 10.14C33.95 10.14 34.13 9.96002 34.13 9.75002C34.13 9.54002 33.96 9.36002 33.74 9.36002ZM33.74 10.07C33.57 10.07 33.43 9.93002 33.43 9.75002C33.43 9.57002 33.57 9.43002 33.74 9.43002C33.91 9.43002 34.05 9.58002 34.05 9.75002C34.05 9.92002 33.91 10.07 33.74 10.07Z" fill="#261F20"/>
<path d="M21.27 11.94C21.27 13.43 20.06 14.64 18.57 14.64C17.08 14.64 15.87 13.43 15.87 11.94C15.87 10.45 17.08 9.23999 18.57 9.23999C20.06 9.23999 21.27 10.45 21.27 11.94Z" fill="url(#paint0_linear_3383_4540)"/>
<path style="mix-blend-mode:multiply" opacity="0.65" d="M21.27 11.94C21.27 13.43 20.06 14.64 18.57 14.64C17.08 14.64 15.87 13.43 15.87 11.94C15.87 10.45 17.08 9.23999 18.57 9.23999C20.06 9.23999 21.27 10.45 21.27 11.94Z" fill="url(#paint1_linear_3383_4540)"/>
<g style="mix-blend-mode:multiply" opacity="0.5">
<mask id="mask0_3383_4540" style="mask-type:luminance" maskUnits="userSpaceOnUse" x="15" y="9" width="7" height="6">
<path d="M21.27 11.94C21.27 13.43 20.06 14.64 18.57 14.64C17.08 14.64 15.87 13.43 15.87 11.94C15.87 10.45 17.08 9.23999 18.57 9.23999C20.06 9.23999 21.27 10.45 21.27 11.94Z" fill="white"/>
</mask>
<g mask="url(#mask0_3383_4540)">
<path d="M18.58 9.21002C20.1 9.21002 21.34 10.44 21.34 11.96C21.34 13.48 20.1 14.72 18.58 14.72C17.06 14.72 15.83 13.49 15.83 11.97C15.83 10.45 17.06 9.22002 18.58 9.22002V9.21002Z" fill="#040100"/>
<path d="M18.59 9.22C20.11 9.22 21.35 10.44 21.35 11.96C21.35 13.48 20.11 14.72 18.59 14.72C17.07 14.72 15.84 13.49 15.84 11.97C15.84 10.45 17.08 9.22 18.59 9.22Z" fill="#080200"/>
<path d="M18.59 9.23001C20.11 9.23001 21.35 10.45 21.35 11.96C21.35 13.47 20.11 14.73 18.59 14.73C17.07 14.73 15.84 13.5 15.84 11.98C15.84 10.46 17.08 9.23001 18.59 9.23001Z" fill="#0C0300"/>
<path d="M18.6 9.24002C20.12 9.24002 21.37 10.45 21.37 11.97C21.37 13.49 20.12 14.74 18.6 14.74C17.08 14.74 15.85 13.51 15.85 11.99C15.85 10.47 17.09 9.24002 18.6 9.24002Z" fill="#100400"/>
<path d="M18.61 9.25C20.13 9.25 21.38 10.45 21.38 11.97C21.38 13.49 20.13 14.75 18.61 14.75C17.09 14.75 15.86 13.52 15.86 12C15.86 10.48 17.1 9.25 18.61 9.25Z" fill="#140600"/>
<path d="M18.62 9.26C20.14 9.26 21.39 10.46 21.39 11.97C21.39 13.48 20.14 14.75 18.62 14.75C17.1 14.75 15.87 13.52 15.87 12C15.87 10.48 17.11 9.25 18.62 9.25V9.26Z" fill="#180700"/>
<path d="M18.62 9.27002C20.14 9.27002 21.39 10.46 21.39 11.98C21.39 13.5 20.13 14.77 18.62 14.77C17.11 14.77 15.87 13.54 15.87 12.02C15.87 10.5 17.11 9.27002 18.62 9.27002Z" fill="#1C0800"/>
<path d="M18.63 9.28002C20.15 9.28002 21.41 10.47 21.41 11.98C21.41 13.49 20.15 14.77 18.63 14.77C17.11 14.77 15.88 13.54 15.88 12.02C15.88 10.5 17.12 9.27002 18.63 9.27002V9.28002Z" fill="#210900"/>
<path d="M18.64 9.29001C20.16 9.30001 21.42 10.47 21.42 11.98C21.42 13.49 20.16 14.77 18.64 14.77C17.12 14.77 15.89 13.54 15.9 12.03C15.9 10.51 17.14 9.28001 18.64 9.29001Z" fill="#250A00"/>
<path d="M18.64 9.30002C20.15 9.31002 21.42 10.47 21.42 11.99C21.42 13.51 20.15 14.79 18.64 14.79C17.13 14.79 15.89 13.56 15.9 12.05C15.91 10.53 17.14 9.30002 18.64 9.31002V9.30002Z" fill="#290B00"/>
<path d="M18.65 9.31C20.16 9.32 21.43 10.48 21.43 11.99C21.43 13.5 20.16 14.79 18.65 14.79C17.14 14.79 15.9 13.56 15.91 12.05C15.92 10.53 17.15 9.3 18.65 9.31Z" fill="#2D0C00"/>
<path d="M18.66 9.32001C20.17 9.33001 21.45 10.48 21.45 11.99C21.45 13.5 20.18 14.8 18.66 14.8C17.14 14.8 15.91 13.57 15.92 12.06C15.93 10.54 17.16 9.31001 18.66 9.32001Z" fill="#310D00"/>
<path d="M18.66 9.34003C20.17 9.35003 21.45 10.49 21.45 12.01C21.45 13.53 20.17 14.82 18.66 14.82C17.15 14.82 15.91 13.59 15.92 12.08C15.93 10.56 17.17 9.33003 18.66 9.34003Z" fill="#350E00"/>
<path d="M18.67 9.35001C20.18 9.37001 21.46 10.5 21.46 12.01C21.46 13.52 20.18 14.83 18.67 14.83C17.16 14.83 15.92 13.6 15.93 12.09C15.94 10.57 17.18 9.34001 18.67 9.35001Z" fill="#391000"/>
<path d="M18.68 9.36001C20.19 9.38001 21.48 10.5 21.48 12.01C21.48 13.52 20.2 14.83 18.68 14.83C17.16 14.83 15.93 13.6 15.94 12.09C15.96 10.57 17.19 9.34001 18.68 9.35001V9.36001Z" fill="#3D1100"/>
<path d="M18.69 9.37002C20.2 9.39002 21.49 10.51 21.49 12.02C21.49 13.53 20.2 14.84 18.69 14.84C17.18 14.84 15.94 13.61 15.95 12.1C15.97 10.58 17.2 9.35002 18.69 9.36002V9.37002Z" fill="#411200"/>
<path d="M18.69 9.38C20.2 9.4 21.49 10.51 21.49 12.02C21.49 13.53 20.2 14.85 18.69 14.85C17.18 14.85 15.94 13.63 15.95 12.12C15.97 10.6 17.2 9.37 18.69 9.38Z" fill="#451300"/>
<path d="M18.7 9.39001C20.21 9.41001 21.5 10.51 21.5 12.02C21.5 13.53 20.21 14.85 18.7 14.85C17.19 14.85 15.95 13.63 15.97 12.12C15.99 10.6 17.22 9.37001 18.7 9.39001Z" fill="#491400"/>
<path d="M18.71 9.40002C20.22 9.42002 21.52 10.52 21.52 12.03C21.52 13.54 20.22 14.87 18.71 14.87C17.2 14.87 15.96 13.65 15.98 12.14C16 10.62 17.23 9.39002 18.71 9.41002V9.40002Z" fill="#4D1500"/>
<path d="M18.71 9.41C20.22 9.43 21.52 10.52 21.52 12.03C21.52 13.54 20.22 14.87 18.71 14.87C17.2 14.87 15.96 13.65 15.98 12.14C16 10.62 17.23 9.39 18.71 9.41Z" fill="#511600"/>
<path d="M18.72 9.42001C20.23 9.44001 21.53 10.53 21.53 12.03C21.53 13.53 20.23 14.88 18.72 14.88C17.21 14.88 15.97 13.66 15.99 12.15C16.01 10.63 17.24 9.40001 18.72 9.42001Z" fill="#551700"/>
<path d="M18.73 9.43002C20.24 9.45002 21.54 10.53 21.54 12.04C21.54 13.55 20.23 14.89 18.73 14.89C17.23 14.89 15.98 13.67 16 12.16C16.02 10.64 17.25 9.41002 18.73 9.43002Z" fill="#591800"/>
<path d="M18.73 9.44002C20.24 9.47002 21.55 10.53 21.55 12.04C21.55 13.55 20.24 14.89 18.73 14.89C17.22 14.89 15.98 13.67 16 12.16C16.02 10.64 17.25 9.41002 18.73 9.43002V9.44002Z" fill="#5E1A00"/>
<path d="M18.74 9.46001C20.25 9.49001 21.56 10.55 21.56 12.05C21.56 13.55 20.25 14.91 18.74 14.91C17.23 14.91 15.99 13.69 16.01 12.18C16.03 10.66 17.27 9.43001 18.74 9.45001V9.46001Z" fill="#621B00"/>
<path d="M18.75 9.47002C20.25 9.50002 21.57 10.55 21.57 12.06C21.57 13.57 20.25 14.92 18.75 14.92C17.25 14.92 16 13.7 16.02 12.19C16.05 10.67 17.28 9.44002 18.75 9.46002V9.47002Z" fill="#661C00"/>
<path d="M18.76 9.48001C20.26 9.51001 21.59 10.56 21.59 12.06C21.59 13.56 20.27 14.93 18.76 14.93C17.25 14.93 16.01 13.71 16.04 12.21C16.07 10.69 17.3 9.46001 18.76 9.49001V9.48001Z" fill="#6A1D00"/>
<path d="M18.76 9.49001C20.26 9.52001 21.59 10.56 21.59 12.06C21.59 13.56 20.27 14.93 18.76 14.93C17.25 14.93 16.01 13.71 16.04 12.21C16.07 10.69 17.3 9.46001 18.76 9.49001Z" fill="#6E1E00"/>
<path d="M18.77 9.5C20.27 9.53 21.6 10.56 21.6 12.07C21.6 13.58 20.27 14.95 18.77 14.95C17.27 14.95 16.02 13.73 16.05 12.23C16.08 10.71 17.31 9.48 18.77 9.51V9.5Z" fill="#721F00"/>
<path d="M18.78 9.51C20.28 9.54 21.61 10.57 21.61 12.07C21.61 13.57 20.28 14.95 18.78 14.95C17.28 14.95 16.03 13.73 16.06 12.23C16.09 10.71 17.32 9.48 18.78 9.51Z" fill="#762000"/>
<path d="M18.78 9.52001C20.28 9.55001 21.62 10.57 21.62 12.07C21.62 13.57 20.29 14.96 18.78 14.96C17.27 14.96 16.03 13.74 16.06 12.24C16.09 10.72 17.32 9.49001 18.78 9.52001Z" fill="#7A2100"/>
<path d="M18.79 9.53002C20.29 9.56002 21.63 10.58 21.63 12.08C21.63 13.58 20.29 14.97 18.79 14.97C17.29 14.97 16.04 13.75 16.07 12.25C16.1 10.73 17.33 9.50002 18.79 9.53002Z" fill="#7E2200"/>
<path d="M18.8 9.54002C20.3 9.58002 21.64 10.58 21.64 12.08C21.64 13.58 20.3 14.97 18.8 14.97C17.3 14.97 16.05 13.75 16.08 12.25C16.11 10.73 17.34 9.50002 18.8 9.53002V9.54002Z" fill="#822300"/>
<path d="M18.81 9.55C20.31 9.59 21.65 10.58 21.65 12.08C21.65 13.58 20.31 14.98 18.81 14.98C17.31 14.98 16.06 13.76 16.09 12.26C16.12 10.73 17.35 9.51 18.81 9.54V9.55Z" fill="#862500"/>
<path d="M18.81 9.56001C20.31 9.60001 21.66 10.59 21.66 12.09C21.66 13.59 20.31 14.99 18.81 14.99C17.31 14.99 16.06 13.77 16.09 12.27C16.12 10.74 17.35 9.52001 18.81 9.55001V9.56001Z" fill="#8A2600"/>
<path d="M18.82 9.58002C20.32 9.62002 21.67 10.6 21.67 12.1C21.67 13.6 20.32 15.01 18.82 15.01C17.32 15.01 16.07 13.79 16.11 12.3C16.15 10.77 17.38 9.55002 18.82 9.59002V9.58002Z" fill="#8E2700"/>
<path d="M18.83 9.59001C20.33 9.63001 21.68 10.61 21.68 12.1C21.68 13.59 20.33 15.01 18.83 15.01C17.33 15.01 16.08 13.8 16.12 12.3C16.16 10.77 17.39 9.55001 18.83 9.59001Z" fill="#922800"/>
<path d="M18.83 9.60001C20.33 9.64001 21.69 10.61 21.69 12.11C21.69 13.61 20.33 15.03 18.83 15.03C17.33 15.03 16.08 13.82 16.12 12.32C16.16 10.79 17.39 9.57001 18.83 9.61001V9.60001Z" fill="#962900"/>
<path d="M18.84 9.61003C20.34 9.65003 21.7 10.61 21.7 12.11C21.7 13.61 20.34 15.03 18.84 15.03C17.34 15.03 16.09 13.82 16.13 12.32C16.17 10.79 17.4 9.57003 18.84 9.61003Z" fill="#9A2A00"/>
<path d="M18.85 9.62003C20.35 9.66003 21.71 10.62 21.71 12.11C21.71 13.6 20.35 15.03 18.85 15.03C17.35 15.03 16.1 13.82 16.14 12.32C16.18 10.79 17.41 9.57003 18.85 9.61003V9.62003Z" fill="#9F2B00"/>
<path d="M18.85 9.63002C20.34 9.67002 21.71 10.62 21.71 12.12C21.71 13.62 20.34 15.05 18.85 15.05C17.36 15.05 16.1 13.84 16.14 12.34C16.18 10.81 17.41 9.59002 18.85 9.63002Z" fill="#A32C00"/>
<path d="M18.86 9.64001C20.35 9.69001 21.73 10.63 21.73 12.12C21.73 13.61 20.36 15.05 18.86 15.05C17.36 15.05 16.11 13.84 16.15 12.34C16.19 10.81 17.42 9.59002 18.86 9.63002V9.64001Z" fill="#A72D00"/>
<path d="M18.87 9.65003C20.36 9.70003 21.74 10.63 21.74 12.12C21.74 13.61 20.37 15.06 18.87 15.06C17.37 15.06 16.12 13.85 16.16 12.35C16.2 10.82 17.43 9.60002 18.87 9.64002V9.65003Z" fill="#AB2F00"/>
<path d="M18.88 9.66C20.37 9.71 21.75 10.63 21.75 12.13C21.75 13.63 20.37 15.07 18.88 15.07C17.39 15.07 16.13 13.86 16.18 12.37C16.22 10.84 17.45 9.62 18.88 9.67V9.66Z" fill="#AF3000"/>
<path d="M18.88 9.67001C20.37 9.72001 21.75 10.64 21.75 12.13C21.75 13.62 20.37 15.08 18.88 15.08C17.39 15.08 16.13 13.87 16.18 12.38C16.22 10.85 17.45 9.63001 18.88 9.68001V9.67001Z" fill="#B33100"/>
<path d="M18.89 9.68001C20.38 9.73001 21.77 10.64 21.77 12.13C21.77 13.62 20.39 15.08 18.89 15.08C17.39 15.08 16.14 13.87 16.19 12.38C16.24 10.85 17.46 9.63001 18.89 9.68001Z" fill="#B73200"/>
<path d="M21.78 12.14C21.78 13.63 20.39 15.09 18.9 15.09C17.41 15.09 16.15 13.88 16.2 12.39C16.25 10.86 17.48 9.64002 18.9 9.69002C20.39 9.74002 21.78 10.65 21.78 12.14Z" fill="#BB3300"/>
<path opacity="0.98" d="M18.9 9.7C20.39 9.75 21.78 10.66 21.78 12.15C21.78 13.64 20.4 15.1 18.9 15.1C17.4 15.1 16.15 13.89 16.2 12.4C16.25 10.87 17.47 9.65 18.9 9.7Z" fill="#BC3706"/>
<path opacity="0.96" d="M18.91 9.71C20.4 9.76 21.78 10.68 21.78 12.17C21.78 13.66 20.4 15.11 18.91 15.11C17.42 15.11 16.17 13.9 16.21 12.41C16.25 10.89 17.48 9.66 18.91 9.71Z" fill="#BE3C0B"/>
<path opacity="0.93" d="M18.91 9.72001C20.4 9.77001 21.78 10.69 21.78 12.18C21.78 13.67 20.4 15.12 18.91 15.12C17.42 15.12 16.17 13.91 16.21 12.42C16.25 10.9 17.48 9.67001 18.91 9.72001Z" fill="#BF4011"/>
<path opacity="0.91" d="M18.92 9.73002C20.41 9.78002 21.78 10.71 21.78 12.2C21.78 13.69 20.41 15.13 18.92 15.13C17.43 15.13 16.18 13.92 16.22 12.43C16.26 10.91 17.49 9.68002 18.92 9.73002Z" fill="#C14516"/>
<path opacity="0.89" d="M18.92 9.74C20.41 9.79 21.78 10.72 21.78 12.21C21.78 13.7 20.41 15.14 18.92 15.14C17.43 15.14 16.18 13.93 16.22 12.44C16.26 10.92 17.49 9.7 18.92 9.74Z" fill="#C2491C"/>
<path opacity="0.87" d="M18.93 9.74C20.42 9.78 21.79 10.73 21.79 12.22C21.79 13.71 20.43 15.14 18.93 15.14C17.43 15.14 16.19 13.93 16.23 12.44C16.27 10.92 17.5 9.7 18.93 9.74Z" fill="#C44E21"/>
<path opacity="0.85" d="M18.94 9.75C20.43 9.79 21.79 10.74 21.79 12.24C21.79 13.74 20.43 15.16 18.94 15.16C17.45 15.16 16.2 13.95 16.24 12.46C16.28 10.94 17.51 9.72 18.94 9.76V9.75Z" fill="#C55227"/>
<path opacity="0.83" d="M18.94 9.76002C20.43 9.80002 21.79 10.76 21.79 12.25C21.79 13.74 20.43 15.16 18.94 15.16C17.45 15.16 16.2 13.95 16.24 12.46C16.28 10.94 17.5 9.72002 18.94 9.76002Z" fill="#C7562C"/>
<path opacity="0.8" d="M18.95 9.77002C20.44 9.81002 21.79 10.77 21.79 12.27C21.79 13.77 20.44 15.18 18.95 15.18C17.46 15.18 16.21 13.97 16.25 12.48C16.29 10.96 17.51 9.74002 18.95 9.78002V9.77002Z" fill="#C85B32"/>
<path opacity="0.78" d="M18.95 9.78001C20.44 9.82001 21.79 10.79 21.79 12.28C21.79 13.77 20.44 15.18 18.95 15.18C17.46 15.18 16.21 13.97 16.25 12.48C16.29 10.96 17.51 9.74001 18.95 9.78001Z" fill="#CA5F37"/>
<path opacity="0.76" d="M18.96 9.79002C20.45 9.83002 21.8 10.81 21.8 12.3C21.8 13.79 20.45 15.19 18.96 15.19C17.47 15.19 16.22 13.98 16.26 12.49C16.3 10.97 17.52 9.75002 18.96 9.79002Z" fill="#CB643D"/>
<path opacity="0.74" d="M18.96 9.79002C20.45 9.83002 21.79 10.81 21.79 12.3C21.79 13.79 20.45 15.19 18.96 15.19C17.47 15.19 16.23 13.98 16.26 12.49C16.29 10.97 17.52 9.75002 18.96 9.79002Z" fill="#CD6843"/>
<path opacity="0.72" d="M18.97 9.8C20.46 9.84 21.8 10.83 21.8 12.32C21.8 13.81 20.46 15.2 18.97 15.2C17.48 15.2 16.24 13.99 16.27 12.5C16.3 10.98 17.53 9.76 18.97 9.8Z" fill="#CE6D48"/>
<path opacity="0.7" d="M18.97 9.81001C20.46 9.85001 21.8 10.84 21.8 12.33C21.8 13.82 20.47 15.21 18.97 15.21C17.47 15.21 16.24 14 16.27 12.51C16.3 10.99 17.53 9.77001 18.97 9.81001Z" fill="#D0714E"/>
<path opacity="0.67" d="M18.98 9.82C20.47 9.85 21.8 10.86 21.8 12.35C21.8 13.84 20.47 15.22 18.98 15.22C17.49 15.22 16.25 14.01 16.28 12.52C16.31 11 17.53 9.79 18.98 9.82Z" fill="#D17653"/>
<path opacity="0.65" d="M18.98 9.83002C20.47 9.86002 21.8 10.87 21.8 12.37C21.8 13.87 20.47 15.24 18.98 15.24C17.49 15.24 16.25 14.03 16.28 12.54C16.31 11.03 17.53 9.81002 18.98 9.84002V9.83002Z" fill="#D37A59"/>
<path opacity="0.63" d="M18.99 9.84002C20.48 9.87002 21.8 10.89 21.8 12.38C21.8 13.87 20.48 15.24 18.99 15.24C17.5 15.24 16.26 14.03 16.29 12.54C16.32 11.03 17.54 9.81002 18.99 9.84002Z" fill="#D47E5E"/>
<path opacity="0.61" d="M19 9.84003C20.49 9.87003 21.81 10.89 21.81 12.39C21.81 13.89 20.49 15.25 19 15.25C17.51 15.25 16.27 14.04 16.3 12.55C16.33 11.04 17.55 9.82003 19 9.85003V9.84003Z" fill="#D68364"/>
<path opacity="0.59" d="M19 9.85C20.49 9.88 21.81 10.91 21.81 12.4C21.81 13.89 20.5 15.25 19 15.25C17.5 15.25 16.27 14.04 16.3 12.55C16.33 11.04 17.55 9.82 19 9.85Z" fill="#D78769"/>
<path opacity="0.57" d="M19.01 9.86001C20.5 9.89001 21.81 10.93 21.81 12.42C21.81 13.91 20.5 15.26 19.01 15.26C17.52 15.26 16.28 14.05 16.31 12.56C16.34 11.05 17.56 9.83001 19.01 9.86001Z" fill="#D98C6F"/>
<path opacity="0.54" d="M19.01 9.87002C20.5 9.90002 21.81 10.94 21.81 12.43C21.81 13.92 20.5 15.27 19.01 15.27C17.52 15.27 16.28 14.06 16.31 12.57C16.34 11.06 17.56 9.84002 19.01 9.87002Z" fill="#DA9074"/>
<path opacity="0.52" d="M19.02 9.88003C20.51 9.91003 21.81 10.96 21.81 12.45C21.81 13.94 20.51 15.28 19.02 15.28C17.53 15.28 16.3 14.07 16.32 12.58C16.34 11.07 17.56 9.85003 19.02 9.88003Z" fill="#DC957A"/>
<path opacity="0.5" d="M19.02 9.88003C20.51 9.91003 21.81 10.96 21.81 12.45C21.81 13.94 20.51 15.28 19.02 15.28C17.53 15.28 16.3 14.07 16.32 12.58C16.34 11.07 17.56 9.85003 19.02 9.88003Z" fill="#DD9980"/>
<path opacity="0.48" d="M19.03 9.89001C20.52 9.91001 21.82 10.98 21.82 12.47C21.82 13.96 20.53 15.29 19.03 15.29C17.53 15.29 16.31 14.08 16.33 12.59C16.35 11.08 17.57 9.87001 19.03 9.89001Z" fill="#DE9D85"/>
<path opacity="0.46" d="M19.03 9.90002C20.52 9.92002 21.81 10.99 21.81 12.48C21.81 13.97 20.52 15.3 19.03 15.3C17.54 15.3 16.31 14.09 16.33 12.6C16.35 11.09 17.57 9.88002 19.03 9.90002Z" fill="#E0A28B"/>
<path opacity="0.43" d="M19.04 9.91C20.53 9.93 21.82 11.01 21.82 12.5C21.82 13.99 20.53 15.31 19.04 15.31C17.55 15.31 16.32 14.1 16.34 12.61C16.36 11.1 17.58 9.89 19.04 9.91Z" fill="#E1A690"/>
<path opacity="0.41" d="M19.05 9.92001C20.54 9.94001 21.82 11.02 21.82 12.52C21.82 14.02 20.54 15.33 19.05 15.33C17.56 15.33 16.33 14.12 16.35 12.63C16.37 11.12 17.59 9.91001 19.05 9.93001V9.92001Z" fill="#E3AB96"/>
<path opacity="0.39" d="M19.05 9.93002C20.54 9.95002 21.82 11.04 21.82 12.53C21.82 14.02 20.54 15.33 19.05 15.33C17.56 15.33 16.33 14.12 16.35 12.63C16.37 11.12 17.59 9.91002 19.05 9.93002Z" fill="#E4AF9B"/>
<path opacity="0.37" d="M19.06 9.93002C20.55 9.95002 21.83 11.05 21.83 12.54C21.83 14.03 20.55 15.33 19.06 15.33C17.57 15.33 16.34 14.12 16.36 12.63C16.38 11.13 17.59 9.91002 19.06 9.93002Z" fill="#E6B4A1"/>
<path opacity="0.35" d="M19.06 9.94C20.55 9.96 21.82 11.06 21.82 12.55C21.82 14.04 20.55 15.34 19.06 15.34C17.57 15.34 16.34 14.13 16.36 12.64C16.38 11.14 17.59 9.92 19.06 9.94Z" fill="#E7B8A6"/>
<path opacity="0.33" d="M19.07 9.95001C20.56 9.97001 21.83 11.08 21.83 12.57C21.83 14.06 20.56 15.35 19.07 15.35C17.58 15.35 16.35 14.14 16.37 12.65C16.39 11.15 17.6 9.93001 19.07 9.95001Z" fill="#E9BCAC"/>
<path opacity="0.3" d="M19.07 9.96002C20.56 9.98002 21.83 11.09 21.83 12.58C21.83 14.07 20.57 15.36 19.07 15.36C17.57 15.36 16.36 14.15 16.37 12.66C16.38 11.16 17.6 9.94002 19.07 9.96002Z" fill="#EAC1B1"/>
<path opacity="0.28" d="M19.08 9.97C20.57 9.98 21.83 11.11 21.83 12.6C21.83 14.09 20.57 15.37 19.08 15.37C17.59 15.37 16.37 14.16 16.38 12.67C16.39 11.17 17.61 9.96 19.08 9.97Z" fill="#ECC5B7"/>
<path opacity="0.26" d="M19.08 9.98001C20.57 9.99001 21.83 11.12 21.83 12.61C21.83 14.1 20.57 15.38 19.08 15.38C17.59 15.38 16.37 14.17 16.38 12.68C16.39 11.18 17.61 9.97001 19.08 9.98001Z" fill="#EDCABC"/>
<path opacity="0.24" d="M19.09 9.98001C20.58 9.99001 21.83 11.13 21.83 12.62C21.83 14.11 20.58 15.38 19.09 15.38C17.6 15.38 16.38 14.17 16.39 12.68C16.4 11.18 17.62 9.97001 19.09 9.98001Z" fill="#EFCEC2"/>
<path opacity="0.22" d="M19.09 9.99002C20.58 10 21.83 11.14 21.83 12.64C21.83 14.14 20.58 15.4 19.09 15.4C17.6 15.4 16.38 14.19 16.39 12.7C16.4 11.2 17.61 9.99002 19.09 10V9.99002Z" fill="#F0D3C8"/>
<path opacity="0.2" d="M19.1 10C20.59 10.01 21.84 11.16 21.84 12.65C21.84 14.14 20.6 15.4 19.1 15.4C17.6 15.4 16.39 14.19 16.4 12.7C16.4 11.2 17.62 9.99 19.1 10Z" fill="#F2D7CD"/>
<path opacity="0.17" d="M19.11 10.01C20.6 10.01 21.84 11.18 21.84 12.67C21.84 14.16 20.6 15.42 19.11 15.42C17.62 15.42 16.4 14.21 16.41 12.72C16.41 11.22 17.63 10.01 19.11 10.02V10.01Z" fill="#F3DCD3"/>
<path opacity="0.15" d="M19.11 10.02C20.6 10.02 21.84 11.19 21.84 12.68C21.84 14.17 20.6 15.42 19.11 15.42C17.62 15.42 16.4 14.21 16.41 12.72C16.41 11.22 17.63 10.01 19.11 10.02Z" fill="#F5E0D8"/>
<path opacity="0.13" d="M19.12 10.03C20.61 10.03 21.84 11.21 21.84 12.7C21.84 14.19 20.61 15.43 19.12 15.43C17.63 15.43 16.41 14.22 16.42 12.73C16.42 11.23 17.64 10.02 19.12 10.03Z" fill="#F6E4DE"/>
<path opacity="0.11" d="M19.12 10.03C20.61 10.03 21.84 11.21 21.84 12.7C21.84 14.19 20.61 15.43 19.12 15.43C17.63 15.43 16.41 14.22 16.42 12.73C16.42 11.23 17.64 10.02 19.12 10.03Z" fill="#F8E9E3"/>
<path opacity="0.09" d="M19.13 10.04C20.62 10.04 21.85 11.23 21.85 12.72C21.85 14.21 20.63 15.44 19.13 15.44C17.63 15.44 16.43 14.23 16.43 12.74C16.43 11.25 17.65 10.03 19.13 10.04Z" fill="#F9EDE9"/>
<path opacity="0.07" d="M19.13 10.05C20.62 10.05 21.84 11.24 21.84 12.73C21.84 14.22 20.62 15.45 19.13 15.45C17.64 15.45 16.43 14.24 16.43 12.75C16.43 11.26 17.64 10.05 19.13 10.05Z" fill="#FBF2EE"/>
<path opacity="0.04" d="M19.14 10.06C20.63 10.06 21.85 11.26 21.85 12.75C21.85 14.24 20.63 15.46 19.14 15.46C17.65 15.46 16.44 14.25 16.44 12.76C16.44 11.27 17.65 10.06 19.14 10.06Z" fill="#FCF6F4"/>
<path opacity="0.02" d="M19.14 10.07C20.63 10.07 21.84 11.27 21.84 12.77C21.84 14.27 20.63 15.48 19.14 15.48C17.65 15.48 16.44 14.27 16.44 12.78C16.44 11.29 17.65 10.08 19.14 10.08V10.07Z" fill="#FEFBF9"/>
</g>
</g>
<mask id="mask1_3383_4540" style="mask-type:luminance" maskUnits="userSpaceOnUse" x="0" y="0" width="38" height="25">
<path d="M36.29 0H1.24C0.56 0 0 0.55 0 1.24V22.77C0 23.45 0.55 24.01 1.24 24.01H36.3C36.98 24.01 37.54 23.46 37.54 22.77V1.24C37.54 0.56 36.99 0 36.3 0H36.29ZM35.68 12C35.68 18.4 30.49 23.59 24.09 23.59H1.24C0.79 23.59 0.42 23.22 0.42 22.77V1.24C0.42 0.79 0.79 0.42 1.24 0.42H24.1C30.5 0.42 35.69 5.61 35.69 12.01L35.68 12Z" fill="white"/>
</mask>
<g mask="url(#mask1_3383_4540)">
<mask id="mask2_3383_4540" style="mask-type:luminance" maskUnits="userSpaceOnUse" x="-4" y="-11" width="46" height="46">
<path d="M18.78 34.26C31.0739 34.26 41.04 24.2938 41.04 12C41.04 -0.293868 31.0739 -10.26 18.78 -10.26C6.48614 -10.26 -3.48 -0.293868 -3.48 12C-3.48 24.2938 6.48614 34.26 18.78 34.26Z" fill="white"/>
</mask>
<g mask="url(#mask2_3383_4540)">
<path d="M26.9285 -18.4069L-11.6269 3.85307L10.6331 42.4085L49.1885 20.1485L26.9285 -18.4069Z" fill="#E04E15"/>
<path d="M27.3869 -17.6041L-11.1685 4.6559L11.0915 43.2113L49.6469 20.9513L27.3869 -17.6041Z" fill="#E04F15"/>
<path d="M27.854 -16.8063L-10.7015 5.45372L11.5585 44.0092L50.114 21.7492L27.854 -16.8063Z" fill="#E15015"/>
<path d="M28.3173 -15.9948L-10.2381 6.26518L12.0219 44.8206L50.5773 22.5606L28.3173 -15.9948Z" fill="#E15115"/>
<path d="M28.7757 -15.192L-9.77975 7.06801L12.4802 45.6235L51.0357 23.3635L28.7757 -15.192Z" fill="#E25215"/>
<path d="M29.2427 -14.3942L-9.31272 7.86583L12.9473 46.4213L51.5027 24.1613L29.2427 -14.3942Z" fill="#E25316"/>
<path d="M29.7011 -13.6014L-8.85435 8.65865L13.4057 47.2141L51.9611 24.9541L29.7011 -13.6014Z" fill="#E35416"/>
<path d="M30.1645 -12.7899L-8.39098 9.47014L13.869 48.0256L52.4245 25.7656L30.1645 -12.7899Z" fill="#E35516"/>
<path d="M30.6415 -11.992L-7.91395 10.268L14.3461 48.8234L52.9015 26.5634L30.6415 -11.992Z" fill="#E35616"/>
<path d="M31.0999 -11.1892L-7.45557 11.0708L14.8044 49.6262L53.3599 27.3662L31.0999 -11.1892Z" fill="#E45716"/>
<path d="M31.5632 -10.3778L-6.9922 11.8822L15.2678 50.4377L53.8232 28.1777L31.5632 -10.3778Z" fill="#E45716"/>
<path d="M32.0303 -9.57993L-6.52517 12.6801L15.7348 51.2355L54.2903 28.9755L32.0303 -9.57993Z" fill="#E55816"/>
<path d="M32.4887 -8.77711L-6.0668 13.4829L16.1932 52.0383L54.7487 29.7783L32.4887 -8.77711Z" fill="#E55916"/>
<path d="M32.947 -7.97428L-5.60843 14.2857L16.6516 52.8412L55.207 30.5812L32.947 -7.97428Z" fill="#E55A16"/>
<path d="M33.4191 -7.16779L-5.1364 15.0922L17.1236 53.6477L55.6791 31.3877L33.4191 -7.16779Z" fill="#E65B16"/>
<path d="M33.8774 -6.36499L-4.67802 15.895L17.582 54.4505L56.1374 32.1905L33.8774 -6.36499Z" fill="#E65C17"/>
<path d="M34.3358 -5.56217L-4.21965 16.6978L18.0404 55.2533L56.5958 32.9933L34.3358 -5.56217Z" fill="#E75D17"/>
<path d="M34.8028 -4.76435L-3.75262 17.4957L18.5074 56.0511L57.0628 33.7911L34.8028 -4.76435Z" fill="#E75E17"/>
<path d="M35.2662 -3.95285L-3.28925 18.3071L18.9708 56.8626L57.5262 34.6026L35.2662 -3.95285Z" fill="#E85F17"/>
<path d="M35.7246 -3.15003L-2.83087 19.11L19.4291 57.6654L57.9846 35.4054L35.7246 -3.15003Z" fill="#E86017"/>
<path d="M35.9055 -2.84159L-2.64999 19.4184L19.61 57.9739L58.1655 35.7139L35.9055 -2.84159Z" fill="#E86117"/>
<path d="M36.0863 -2.53312L-2.46911 19.7269L19.7909 58.2823L58.3463 36.0223L36.0863 -2.53312Z" fill="#E96217"/>
<path d="M36.2672 -2.22464L-2.28822 20.0354L19.9718 58.5908L58.5272 36.3308L36.2672 -2.22464Z" fill="#E96317"/>
<path d="M36.4481 -1.91617L-2.10734 20.3438L20.1527 58.8993L58.7081 36.6393L36.4481 -1.91617Z" fill="#E96418"/>
<path d="M36.629 -1.6077L-1.92645 20.6523L20.3335 59.2077L58.889 36.9478L36.629 -1.6077Z" fill="#E96518"/>
<path d="M36.8099 -1.29923L-1.74557 20.9608L20.5144 59.5162L59.0699 37.2562L36.8099 -1.29923Z" fill="#EA6618"/>
<path d="M36.9908 -0.990759L-1.56468 21.2692L20.6953 59.8247L59.2508 37.5647L36.9908 -0.990759Z" fill="#EA6718"/>
<path d="M37.1617 -0.682287L-1.3938 21.5777L20.8662 60.1332L59.4217 37.8732L37.1617 -0.682287Z" fill="#EA6818"/>
<path d="M37.3425 -0.363836L-1.21291 21.8962L21.0471 60.4516L59.6025 38.1916L37.3425 -0.363836Z" fill="#EA6918"/>
<path d="M37.5234 -0.0553646L-1.03203 22.2046L21.228 60.7601L59.7834 38.5001L37.5234 -0.0553646Z" fill="#EB6A18"/>
<path d="M37.6956 0.258114L-0.859802 22.5181L21.4002 61.0736L59.9556 38.8136L37.6956 0.258114Z" fill="#EB6B19"/>
<path d="M37.8765 0.566586L-0.678917 22.8266L21.5811 61.382L60.1365 39.122L37.8765 0.566586Z" fill="#EB6C19"/>
<path d="M38.0574 0.875057L-0.498032 23.1351L21.762 61.6905L60.3174 39.4305L38.0574 0.875057Z" fill="#EB6D19"/>
<path d="M38.2383 1.1835L-0.317154 23.4435L21.9428 61.999L60.4983 39.739L38.2383 1.1835Z" fill="#EC6E19"/>
<path d="M38.4192 1.49197L-0.136269 23.752L22.1237 62.3074L60.6792 40.0474L38.4192 1.49197Z" fill="#EC6F19"/>
<path d="M38.5901 1.80044L0.0346146 24.0604L22.2946 62.6159L60.8501 40.3559L38.5901 1.80044Z" fill="#EC7019"/>
<path d="M38.776 2.11758L0.220505 24.3776L22.4805 62.933L61.036 40.673L38.776 2.11758Z" fill="#EC7119"/>
<path d="M38.9568 2.43603L0.40139 24.696L22.6614 63.2515L61.2168 40.9915L38.9568 2.43603Z" fill="#ED7219"/>
<path d="M39.1377 2.7445L0.582275 25.0045L22.8423 63.56L61.3977 41.3L39.1377 2.7445Z" fill="#ED731A"/>
<path d="M39.3186 3.05297L0.763153 25.313L23.0232 63.8684L61.5786 41.6084L39.3186 3.05297Z" fill="#ED741A"/>
<path d="M39.4995 3.36145L0.944038 25.6214L23.204 64.1769L61.7595 41.9169L39.4995 3.36145Z" fill="#ED751A"/>
<path d="M39.6804 3.66992L1.12492 25.9299L23.3849 64.4854L61.9404 42.2254L39.6804 3.66992Z" fill="#EE761A"/>
<path d="M39.8526 3.98339L1.29715 26.2434L23.5571 64.7988L62.1126 42.5388L39.8526 3.98339Z" fill="#EE771A"/>
<path d="M40.0335 4.29184L1.47803 26.5518L23.738 65.1073L62.2935 42.8473L40.0335 4.29184Z" fill="#EE781A"/>
<path d="M40.2044 4.60031L1.64892 26.8603L23.9089 65.4158L62.4644 43.1558L40.2044 4.60031Z" fill="#EF791A"/>
<path d="M40.3853 4.91879L1.8298 27.1788L24.0898 65.7342L62.6452 43.4742L40.3853 4.91879Z" fill="#EF7A1B"/>
<path d="M40.5661 5.22726L2.01069 27.4873L24.2707 66.0427L62.8261 43.7827L40.5661 5.22726Z" fill="#EF7B1B"/>
<path d="M40.747 5.53573L2.19157 27.7957L24.4516 66.3512L63.007 44.0912L40.747 5.53573Z" fill="#EF7C1B"/>
<path d="M40.9279 5.8442L2.37246 28.1042L24.6325 66.6596L63.1879 44.3997L40.9279 5.8442Z" fill="#F07D1B"/>
<path d="M41.1088 6.15265L2.55334 28.4126L24.8133 66.9681L63.3688 44.7081L41.1088 6.15265Z" fill="#F07E1B"/>
<path d="M41.2897 6.46112L2.73422 28.7211L24.9942 67.2766L63.5497 45.0166L41.2897 6.46112Z" fill="#F07F1B"/>
<path d="M41.4706 6.76959L2.91512 29.0296L25.1751 67.585L63.7306 45.325L41.4706 6.76959Z" fill="#F0801B"/>
<path d="M41.6514 7.07806L3.09599 29.3381L25.356 67.8935L63.9114 45.6335L41.6514 7.07806Z" fill="#F1801C"/>
<path d="M41.8223 7.38653L3.26688 29.6465L25.5269 68.202L64.0823 45.942L41.8223 7.38653Z" fill="#F1811C"/>
<path d="M41.9945 7.70999L3.4391 29.97L25.6991 68.5254L64.2545 46.2654L41.9945 7.70999Z" fill="#F1821C"/>
<path d="M42.1754 8.01846L3.61999 30.2785L25.88 68.8339L64.4354 46.5739L42.1754 8.01846Z" fill="#F1831C"/>
<path d="M42.3563 8.32693L3.80087 30.5869L26.0609 69.1424L64.6163 46.8824L42.3563 8.32693Z" fill="#F2841C"/>
<path d="M42.5372 8.6354L3.98176 30.8954L26.2418 69.4509L64.7972 47.1909L42.5372 8.6354Z" fill="#F2851C"/>
<path d="M42.7181 8.94387L4.16264 31.2039L26.4226 69.7593L64.9781 47.4993L42.7181 8.94387Z" fill="#F2861C"/>
<path d="M42.899 9.25235L4.34353 31.5123L26.6035 70.0678L65.159 47.8078L42.899 9.25235Z" fill="#F2871D"/>
<path d="M43.0799 9.56082L4.52441 31.8208L26.7844 70.3763L65.3399 48.1163L43.0799 9.56082Z" fill="#F3881D"/>
<path d="M43.2507 9.86926L4.6953 32.1293L26.9553 70.6847L65.5107 48.4247L43.2507 9.86926Z" fill="#F3891D"/>
<path d="M43.4316 10.1777L4.87618 32.4377L27.1362 70.9932L65.6916 48.7332L43.4316 10.1777Z" fill="#F38A1D"/>
<path d="M43.6125 10.4962L5.05707 32.7562L27.3171 71.3117L65.8725 49.0517L43.6125 10.4962Z" fill="#F48B1D"/>
<path d="M43.7934 10.8047L5.23795 33.0647L27.4979 71.6201L66.0534 49.3601L43.7934 10.8047Z" fill="#F48C1D"/>
<path d="M43.9743 11.1132L5.41884 33.3732L27.6788 71.9286L66.2343 49.6686L43.9743 11.1132Z" fill="#F48D1D"/>
<path d="M44.1465 11.4266L5.59106 33.6866L27.8511 72.2421L66.4065 49.9821L44.1465 11.4266Z" fill="#F48E1E"/>
<path d="M44.3274 11.7351L5.77194 33.9951L28.0319 72.5505L66.5874 50.2905L44.3274 11.7351Z" fill="#F58F1E"/>
<path d="M44.5133 12.0522L5.95782 34.3122L28.2178 72.8677L66.7733 50.6077L44.5133 12.0522Z" fill="#F5901E"/>
<path d="M44.6942 12.3607L6.1387 34.6207L28.3987 73.1761L66.9542 50.9161L44.6942 12.3607Z" fill="#F5911E"/>
<path d="M44.8651 12.6692L6.3096 34.9292L28.5696 73.4846L67.1251 51.2246L44.8651 12.6692Z" fill="#F5921E"/>
<path d="M45.0459 12.9876L6.49048 35.2476L28.7505 73.8031L67.3059 51.5431L45.0459 12.9876Z" fill="#F6931E"/>
<path d="M45.2268 13.2961L6.67137 35.5561L28.9314 74.1115L67.4868 51.8515L45.2268 13.2961Z" fill="#F6941E"/>
<path d="M45.4077 13.6045L6.85225 35.8645L29.1122 74.42L67.6677 52.16L45.4077 13.6045Z" fill="#F6951E"/>
<path d="M45.5886 13.913L7.03314 36.173L29.2931 74.7285L67.8486 52.4685L45.5886 13.913Z" fill="#F6961F"/>
<path d="M45.7695 14.2215L7.21402 36.4815L29.474 75.0369L68.0295 52.7769L45.7695 14.2215Z" fill="#F7971F"/>
<path d="M45.9504 14.53L7.3949 36.79L29.6549 75.3454L68.2104 53.0854L45.9504 14.53Z" fill="#F7981F"/>
<path d="M46.1312 14.8384L7.57579 37.0984L29.8358 75.6539L68.3912 53.3938L46.1312 14.8384Z" fill="#F7991F"/>
<path d="M46.3035 15.1519L7.74802 37.4119L30.008 75.9673L68.5635 53.7073L46.3035 15.1519Z" fill="#F79A1F"/>
<path d="M46.4744 15.4604L7.9189 37.7204L30.1789 76.2758L68.7344 54.0158L46.4744 15.4604Z" fill="#F89B1F"/>
<path d="M46.6552 15.7788L8.09978 38.0388L30.3598 76.5943L68.9152 54.3343L46.6552 15.7788Z" fill="#F89C1F"/>
<path d="M46.8361 16.0873L8.28067 38.3473L30.5407 76.9027L69.0961 54.6427L46.8361 16.0873Z" fill="#F89D20"/>
<path d="M47.017 16.3957L8.46155 38.6557L30.7215 77.2112L69.277 54.9512L47.017 16.3957Z" fill="#F89E20"/>
<path d="M47.1979 16.7042L8.64244 38.9642L30.9024 77.5197L69.4579 55.2597L47.1979 16.7042Z" fill="#F99F20"/>
<path d="M47.3788 17.0127L8.82332 39.2727L31.0833 77.8281L69.6388 55.5681L47.3788 17.0127Z" fill="#F9A020"/>
</g>
</g>
<defs>
<linearGradient id="paint0_linear_3383_4540" x1="19.95" y1="14.1" x2="18.08" y2="11.18" gradientUnits="userSpaceOnUse">
<stop stop-color="#FF9200"/>
<stop offset="0.21" stop-color="#FF8D00"/>
<stop offset="0.45" stop-color="#FF7F00"/>
<stop offset="0.62" stop-color="#FF7100"/>
<stop offset="0.82" stop-color="#FF5E00"/>
<stop offset="1" stop-color="#FF5200"/>
</linearGradient>
<linearGradient id="paint1_linear_3383_4540" x1="19.65" y1="14.06" x2="16.92" y2="8.71999" gradientUnits="userSpaceOnUse">
<stop stop-color="#FF7100" stop-opacity="0"/>
<stop offset="0.03" stop-color="#FF6D00" stop-opacity="0.01"/>
<stop offset="0.21" stop-color="#FF5900" stop-opacity="0.0625"/>
<stop offset="0.39" stop-color="#FF4800" stop-opacity="0.1764"/>
<stop offset="0.56" stop-color="#FF3B00" stop-opacity="0.3136"/>
<stop offset="0.72" stop-color="#FF3200" stop-opacity="0.4356"/>
<stop offset="0.86" stop-color="#FF2C00" stop-opacity="0.5184"/>
<stop offset="0.98" stop-color="#FF2B00" stop-opacity="0.74"/>
</linearGradient>
</defs>
</svg>
