<svg width="46" height="24" viewBox="0 0 46 24" fill="none" xmlns="http://www.w3.org/2000/svg">
<g clip-path="url(#clip0_3383_4760)">
<path d="M33.12 0H12C5.4 0 0 5.4 0 12C0 18.6 5.4 24 12 24H33.12C39.72 24 45.12 18.6 45.12 12C45.12 5.4 39.72 0 33.12 0Z" fill="white"/>
<path d="M33.12 0.97C34.6 0.97 36.04 1.26 37.4 1.84C38.71 2.4 39.89 3.2 40.91 4.21C41.92 5.22 42.72 6.41 43.28 7.72C43.86 9.08 44.15 10.52 44.15 12C44.15 13.48 43.86 14.92 43.28 16.28C42.72 17.59 41.92 18.77 40.91 19.79C39.9 20.8 38.71 21.6 37.4 22.16C36.04 22.74 34.6 23.03 33.12 23.03H12C10.52 23.03 9.08 22.74 7.72 22.16C6.41 21.6 5.23 20.8 4.21 19.79C3.2 18.78 2.4 17.59 1.84 16.28C1.26 14.92 0.97 13.48 0.97 12C0.97 10.52 1.26 9.08 1.84 7.72C2.4 6.41 3.2 5.23 4.21 4.21C5.22 3.2 6.41 2.4 7.72 1.84C9.08 1.26 10.52 0.97 12 0.97H33.12ZM33.12 0H12C5.4 0 0 5.4 0 12C0 18.6 5.4 24 12 24H33.12C39.72 24 45.12 18.6 45.12 12C45.12 5.4 39.72 0 33.12 0Z" fill="#3C4043"/>
<path d="M21.52 12.85V16.48H20.37V7.52H23.42C24.19 7.52 24.85 7.78 25.39 8.29C25.94 8.81 26.22 9.44 26.22 10.18C26.22 10.92 25.94 11.57 25.39 12.08C24.86 12.59 24.2 12.84 23.42 12.84H21.52V12.85ZM21.52 8.62V11.75H23.45C23.91 11.75 24.29 11.59 24.59 11.29C24.9 10.98 25.05 10.61 25.05 10.19C25.05 9.77 24.89 9.41 24.59 9.1C24.29 8.78 23.91 8.63 23.45 8.63H21.52V8.62Z" fill="#3C4043"/>
<path d="M29.23 10.15C30.08 10.15 30.75 10.38 31.25 10.83C31.74 11.29 31.99 11.91 31.99 12.7V16.48H30.89V15.63H30.84C30.37 16.33 29.73 16.68 28.94 16.68C28.26 16.68 27.7 16.48 27.24 16.08C26.78 15.68 26.56 15.18 26.56 14.58C26.56 13.94 26.8 13.44 27.28 13.07C27.76 12.69 28.4 12.51 29.2 12.51C29.88 12.51 30.45 12.64 30.89 12.89V12.63C30.89 12.23 30.73 11.89 30.42 11.61C30.1 11.33 29.73 11.19 29.3 11.19C28.66 11.19 28.15 11.46 27.78 12.01L26.77 11.37C27.33 10.56 28.16 10.16 29.25 10.16L29.23 10.15ZM27.74 14.6C27.74 14.9 27.87 15.15 28.12 15.35C28.37 15.55 28.67 15.65 29.01 15.65C29.5 15.65 29.93 15.47 30.31 15.11C30.69 14.75 30.88 14.33 30.88 13.84C30.52 13.56 30.02 13.41 29.38 13.41C28.91 13.41 28.52 13.52 28.21 13.75C27.89 13.98 27.74 14.27 27.74 14.6Z" fill="#3C4043"/>
<path d="M38.25 10.34L34.41 19.17H33.22L34.65 16.08L32.12 10.34H33.37L35.19 14.74H35.21L36.99 10.34H38.24H38.25Z" fill="#3C4043"/>
<path d="M16.93 12.12C16.93 11.74 16.9 11.39 16.83 11.04H12V13.02H14.78C14.67 13.68 14.3 14.24 13.75 14.62V15.9H15.41C16.38 15.01 16.93 13.68 16.93 12.12Z" fill="#4285F4"/>
<path d="M13.76 14.61C13.3 14.92 12.71 15.1 12.01 15.1C10.67 15.1 9.53 14.2 9.12 12.98H7.41V14.3C8.26 15.98 9.99 17.13 12 17.13C13.39 17.13 14.55 16.67 15.4 15.89L13.74 14.61H13.76Z" fill="#34A853"/>
<path d="M8.96 12C8.96 11.66 9.02 11.33 9.12 11.02V9.7H7.41C7.06 10.39 6.86 11.18 6.86 12.01C6.86 12.84 7.06 13.62 7.41 14.32L9.12 13C9.02 12.69 8.96 12.36 8.96 12.02V12Z" fill="#FABB05"/>
<path d="M12.01 8.9C12.77 8.9 13.45 9.16 13.98 9.67L15.45 8.2C14.56 7.37 13.4 6.86 12.01 6.86C10 6.86 8.26 8.01 7.42 9.69L9.13 11.01C9.54 9.79 10.67 8.89 12.02 8.89L12.01 8.9Z" fill="#E94235"/>
</g>
<defs>
<clipPath id="clip0_3383_4760">
<rect width="45.12" height="24" fill="white"/>
</clipPath>
</defs>
</svg>
