<svg width="192" height="48" viewBox="0 0 192 48" fill="none" xmlns="http://www.w3.org/2000/svg">
<path fill-rule="evenodd" clip-rule="evenodd" d="M3.61895 7.39453C4.67163 6.90771 5.91964 7.36644 6.40646 8.41912L19.004 35.6597L28.8231 12.9666C29.1556 12.1981 29.913 11.7006 30.7504 11.7006C31.5878 11.7006 32.3452 12.1981 32.6777 12.9666L42.4968 35.6597L55.0944 8.41912C55.5812 7.36644 56.8292 6.90771 57.8819 7.39453C58.9345 7.88135 59.3933 9.12936 58.9065 10.182L44.3391 41.682C43.9916 42.4335 43.235 42.9107 42.4071 42.9004C41.5792 42.8902 40.8346 42.3944 40.5058 41.6345L30.7504 19.0888L20.995 41.6345C20.6662 42.3944 19.9216 42.8902 19.0937 42.9004C18.2659 42.9107 17.5092 42.4335 17.1617 41.682L2.59436 10.182C2.10754 9.12936 2.56626 7.88135 3.61895 7.39453ZM82.2007 7.20056C82.9763 7.20056 83.6887 7.62801 84.0536 8.31233L100.854 39.8123C101.399 40.8357 101.012 42.1077 99.9889 42.6535C98.9656 43.1993 97.6936 42.8121 97.1478 41.7888L91.0207 30.3006H73.3807L67.2536 41.7888C66.7079 42.8121 65.4358 43.1993 64.4125 42.6535C63.3891 42.1077 63.002 40.8357 63.5478 39.8123L80.3478 8.31233C80.7127 7.62801 81.4252 7.20056 82.2007 7.20056ZM75.6207 26.1006H88.7807L82.2007 13.7631L75.6207 26.1006ZM170.153 8.31233C169.788 7.62801 169.076 7.20056 168.3 7.20056C167.525 7.20056 166.812 7.62801 166.447 8.31233L149.647 39.8123C149.102 40.8357 149.489 42.1077 150.512 42.6535C151.535 43.1993 152.807 42.8121 153.353 41.7888L159.48 30.3006H177.12L183.247 41.7888C183.793 42.8121 185.065 43.1993 186.089 42.6535C187.112 42.1077 187.499 40.8357 186.953 39.8123L170.153 8.31233ZM168.3 13.7631L174.88 26.1006H161.72L168.3 13.7631ZM115.801 22.9506V11.4006H129.976C133.165 11.4006 135.751 13.9861 135.751 17.1756C135.751 20.365 133.165 22.9506 129.976 22.9506H115.801ZM136.588 24.6442C138.65 22.8167 139.951 20.148 139.951 17.1756C139.951 11.6665 135.485 7.20056 129.976 7.20056H113.701C112.541 7.20056 111.601 8.14076 111.601 9.30056V25.0506V40.8006C111.601 41.9604 112.541 42.9006 113.701 42.9006H131.026C136.535 42.9006 141.001 38.4346 141.001 32.9256C141.001 29.476 139.25 26.4354 136.588 24.6442ZM129.976 27.1506L115.801 27.1506V38.7006H131.026C134.215 38.7006 136.801 36.115 136.801 32.9256C136.801 29.7361 134.215 27.1506 131.026 27.1506L129.976 27.1506Z" fill="#07000E"/>
</svg>
