<svg width="80" height="20" viewBox="0 0 80 20" fill="none" xmlns="http://www.w3.org/2000/svg">
<path fill-rule="evenodd" clip-rule="evenodd" d="M1.50794 3.08111C1.94655 2.87826 2.46656 3.0694 2.6694 3.50802L7.91837 14.8583L12.0097 5.40282C12.1482 5.08259 12.4638 4.87529 12.8127 4.87529C13.1616 4.87529 13.4772 5.08259 13.6158 5.40282L17.7071 14.8583L22.956 3.50802C23.1589 3.0694 23.6789 2.87826 24.1175 3.08111C24.5561 3.28395 24.7472 3.80395 24.5444 4.24257L18.4747 17.3676C18.3299 17.6807 18.0146 17.8795 17.6697 17.8752C17.3247 17.8709 17.0144 17.6644 16.8774 17.3478L12.8127 7.9537L8.74797 17.3478C8.61097 17.6644 8.30073 17.8709 7.95577 17.8752C7.61081 17.8795 7.29554 17.6807 7.15073 17.3676L1.08102 4.24257C0.878183 3.80395 1.06932 3.28395 1.50794 3.08111ZM34.2505 3.00057C34.5736 3.00057 34.8705 3.17867 35.0226 3.46381L42.0226 16.5888C42.25 17.0152 42.0887 17.5452 41.6623 17.7726C41.2359 18 40.7058 17.8387 40.4784 17.4123L37.9255 12.6256H30.5755L28.0226 17.4123C27.7951 17.8387 27.2651 18 26.8387 17.7726C26.4123 17.5452 26.251 17.0152 26.4784 16.5888L33.4784 3.46381C33.6305 3.17867 33.9273 3.00057 34.2505 3.00057ZM36.9922 10.8756L34.2505 5.73495L31.5088 10.8756H36.9922ZM70.8974 3.46381C70.7453 3.17867 70.4485 3.00057 70.1253 3.00057C69.8022 3.00057 69.5053 3.17867 69.3533 3.46381L62.3533 16.5888C62.1259 17.0152 62.2872 17.5452 62.7136 17.7726C63.14 18 63.67 17.8387 63.8974 17.4123L66.4503 12.6256H73.8003L76.3533 17.4123C76.5807 17.8387 77.1107 18 77.5371 17.7726C77.9635 17.5452 78.1248 17.0152 77.8974 16.5888L70.8974 3.46381ZM70.1253 5.73495L72.867 10.8756H67.3837L70.1253 5.73495ZM56.912 10.2687C57.7714 9.50729 58.3131 8.39532 58.3131 7.15682C58.3131 4.86139 56.4523 3.00057 54.1569 3.00057H47.3756C46.8924 3.00057 46.5006 3.39232 46.5006 3.87557V10.4381V17.0006C46.5006 17.4838 46.8924 17.8756 47.3756 17.8756H54.5944C56.8898 17.8756 58.7506 16.0148 58.7506 13.7193C58.7506 12.282 58.0211 11.0151 56.912 10.2687ZM54.1569 11.3131L48.2506 11.3131V16.1256H54.5944C55.9233 16.1256 57.0006 15.0483 57.0006 13.7193C57.0006 12.3904 55.9233 11.3131 54.5944 11.3131L54.1569 11.3131ZM48.2506 9.56307V4.75057H54.1569C55.4858 4.75057 56.5631 5.82788 56.5631 7.15682C56.5631 8.48575 55.4858 9.56307 54.1569 9.56307H48.2506Z" fill="white"/>
</svg>
