<svg width="80" height="20" viewBox="0 0 80 20" fill="none" xmlns="http://www.w3.org/2000/svg">
<path fill-rule="evenodd" clip-rule="evenodd" d="M1.50745 3.08119C1.94606 2.87835 2.46607 3.06948 2.66891 3.5081L7.91788 14.8583L12.0092 5.4029C12.1477 5.08267 12.4633 4.87537 12.8122 4.87537C13.1611 4.87537 13.4767 5.08267 13.6153 5.4029L17.7066 14.8583L22.9555 3.5081C23.1584 3.06948 23.6784 2.87835 24.117 3.08119C24.5556 3.28403 24.7467 3.80403 24.5439 4.24265L18.4742 17.3676C18.3294 17.6808 18.0141 17.8796 17.6692 17.8753C17.3242 17.871 17.014 17.6645 16.877 17.3478L12.8122 7.95378L8.74748 17.3478C8.61048 17.6645 8.30024 17.871 7.95528 17.8753C7.61032 17.8796 7.29505 17.6808 7.15025 17.3676L1.08053 4.24265C0.877694 3.80403 1.06883 3.28403 1.50745 3.08119ZM34.2498 3.00057C34.573 3.00057 34.8698 3.17868 35.0219 3.46381L42.0219 16.5888C42.2493 17.0152 42.088 17.5452 41.6616 17.7726C41.2352 18 40.7052 17.8387 40.4778 17.4123L37.9248 12.6256H30.5748L28.0219 17.4123C27.7945 17.8387 27.2645 18 26.8381 17.7726C26.4117 17.5452 26.2504 17.0152 26.4778 16.5888L33.4778 3.46381C33.6299 3.17868 33.9267 3.00057 34.2498 3.00057ZM36.9915 10.8756L34.2498 5.73495L31.5082 10.8756H36.9915ZM70.8967 3.46381C70.7447 3.17868 70.4478 3.00057 70.1247 3.00057C69.8015 3.00057 69.5047 3.17868 69.3526 3.46381L62.3526 16.5888C62.1252 17.0152 62.2865 17.5452 62.7129 17.7726C63.1393 18 63.6693 17.8387 63.8967 17.4123L66.4497 12.6256H73.7997L76.3526 17.4123C76.58 17.8387 77.1101 18 77.5365 17.7726C77.9628 17.5452 78.1242 17.0152 77.8967 16.5888L70.8967 3.46381ZM72.8663 10.8756H67.383L70.1247 5.73495L72.8663 10.8756ZM56.9114 10.2687C57.7708 9.50729 58.3125 8.39532 58.3125 7.15682C58.3125 4.86139 56.4517 3.00057 54.1562 3.00057H47.375C46.8918 3.00057 46.5 3.39232 46.5 3.87557V10.4381V17.0006C46.5 17.4838 46.8918 17.8756 47.375 17.8756H54.5938C56.8892 17.8756 58.75 16.0148 58.75 13.7193C58.75 12.282 58.0204 11.0151 56.9114 10.2687ZM54.1562 11.3131L48.25 11.3131V16.1256H54.5938C55.9227 16.1256 57 15.0483 57 13.7193C57 12.3904 55.9227 11.3131 54.5938 11.3131L54.1562 11.3131ZM48.25 9.56307V4.75057H54.1562C55.4852 4.75057 56.5625 5.82789 56.5625 7.15682C56.5625 8.48575 55.4852 9.56307 54.1562 9.56307H48.25Z" fill="#07000E"/>
</svg>
