<svg width="96" height="25" viewBox="0 0 96 25" fill="none" xmlns="http://www.w3.org/2000/svg">
<path fill-rule="evenodd" clip-rule="evenodd" d="M94.1905 21.3027C93.6642 21.5461 93.0402 21.3167 92.7968 20.7904L86.498 7.17009L81.5885 18.5166C81.4222 18.9009 81.0435 19.1497 80.6248 19.1497C80.2061 19.1497 79.8274 18.9009 79.6611 18.5166L74.7516 7.17009L68.4528 20.7904C68.2094 21.3167 67.5854 21.5461 67.0591 21.3027C66.5327 21.0593 66.3034 20.4353 66.5468 19.9089L73.8304 4.15892C74.0042 3.78318 74.3825 3.5446 74.7965 3.54973C75.2104 3.55487 75.5827 3.80275 75.7471 4.18269L80.6248 15.4556L85.5025 4.18269C85.6669 3.80275 86.0392 3.55486 86.4531 3.54973C86.8671 3.5446 87.2454 3.78318 87.4192 4.15892L94.7028 19.9089C94.9462 20.4353 94.7169 21.0593 94.1905 21.3027ZM54.8997 21.3997C54.512 21.3997 54.1558 21.1859 53.9733 20.8438L45.5733 5.09378C45.3004 4.58211 45.4939 3.94608 46.0056 3.67319C46.5173 3.4003 47.1533 3.59387 47.4262 4.10554L50.4897 9.84966L59.3097 9.84966L62.3733 4.10554C62.6462 3.59387 63.2822 3.4003 63.7939 3.67319C64.3055 3.94608 64.4991 4.5821 64.2262 5.09378L55.8262 20.8438C55.6437 21.1859 55.2875 21.3997 54.8997 21.3997ZM51.6097 11.9497L54.8997 18.1184L58.1897 11.9497L51.6097 11.9497ZM10.9234 20.8438C11.1059 21.1859 11.4621 21.3997 11.8499 21.3997C12.2377 21.3997 12.5939 21.1859 12.7764 20.8438L21.1764 5.09378C21.4493 4.58211 21.2557 3.94609 20.744 3.67319C20.2323 3.4003 19.5963 3.59387 19.3234 4.10555L16.2599 9.84966L7.4399 9.84967L4.37637 4.10555C4.10347 3.59387 3.46746 3.4003 2.95578 3.6732C2.4441 3.94609 2.25053 4.58211 2.52343 5.09378L10.9234 20.8438ZM11.8499 18.1184L8.5599 11.9497L15.1399 11.9497L11.8499 18.1184ZM38.0996 13.5247L38.0996 19.2997L31.0121 19.2997C29.4174 19.2997 28.1246 18.0069 28.1246 16.4122C28.1246 14.8174 29.4174 13.5247 31.0121 13.5247L38.0996 13.5247ZM27.706 12.6779C26.6747 13.5916 26.0246 14.926 26.0246 16.4122C26.0246 19.1667 28.2576 21.3997 31.0121 21.3997L39.1496 21.3997C39.7295 21.3997 40.1996 20.9296 40.1996 20.3497L40.1996 12.4747L40.1996 4.59966C40.1996 4.01976 39.7295 3.54966 39.1496 3.54966L30.4871 3.54966C27.7326 3.54966 25.4996 5.78264 25.4996 8.53716C25.4996 10.2619 26.3751 11.7822 27.706 12.6779ZM31.009 11.4247C31.0101 11.4247 31.0111 11.4247 31.0121 11.4247L38.0996 11.4247L38.0996 5.64966L30.4871 5.64966C28.8924 5.64966 27.5996 6.94244 27.5996 8.53716C27.5996 10.1319 28.8924 11.4247 30.4871 11.4247L31.009 11.4247Z" fill="white"/>
</svg>
