<svg width="96" height="24" viewBox="0 0 96 24" fill="none" xmlns="http://www.w3.org/2000/svg">
<path fill-rule="evenodd" clip-rule="evenodd" d="M1.80947 3.69726C2.33581 3.45386 2.95982 3.68322 3.20323 4.20956L9.50199 17.8298L14.4115 6.48332C14.5778 6.09905 14.9565 5.85029 15.3752 5.85029C15.7939 5.85029 16.1726 6.09905 16.3389 6.48332L21.2484 17.8298L27.5472 4.20956C27.7906 3.68322 28.4146 3.45386 28.9409 3.69726C29.4673 3.94067 29.6966 4.56468 29.4532 5.09102L22.1696 20.841C21.9958 21.2168 21.6175 21.4553 21.2035 21.4502C20.7896 21.4451 20.4173 21.1972 20.2529 20.8173L15.3752 9.54438L10.4975 20.8173C10.3331 21.1972 9.96082 21.4451 9.54687 21.4502C9.13293 21.4553 8.7546 21.2168 8.58083 20.841L1.29718 5.09102C1.05377 4.56468 1.28313 3.94067 1.80947 3.69726ZM41.1003 3.60028C41.488 3.60028 41.8442 3.81401 42.0267 4.15616L50.4267 19.9062C50.6996 20.4178 50.5061 21.0539 49.9944 21.3268C49.4827 21.5996 48.8467 21.4061 48.5738 20.8944L45.5103 15.1503H36.6903L33.6267 20.8944C33.3538 21.4061 32.7178 21.5996 32.2061 21.3268C31.6945 21.0539 31.5009 20.4178 31.7738 19.9062L40.1738 4.15616C40.3563 3.81401 40.7125 3.60028 41.1003 3.60028ZM44.3903 13.0503L41.1003 6.88153L37.8103 13.0503H44.3903ZM85.0766 4.15616C84.8941 3.81401 84.5379 3.60028 84.1501 3.60028C83.7623 3.60028 83.4061 3.81401 83.2236 4.15616L74.8236 19.9062C74.5507 20.4178 74.7443 21.0539 75.256 21.3268C75.7677 21.5996 76.4037 21.4061 76.6766 20.8944L79.7401 15.1503H88.5601L91.6236 20.8944C91.8965 21.4061 92.5325 21.5996 93.0442 21.3268C93.5559 21.0539 93.7495 20.4178 93.4766 19.9062L85.0766 4.15616ZM84.1501 6.88153L87.4401 13.0503H80.8601L84.1501 6.88153ZM57.9004 11.4753V5.70028H64.9879C66.5826 5.70028 67.8754 6.99306 67.8754 8.58778C67.8754 10.1825 66.5826 11.4753 64.9879 11.4753H57.9004ZM68.294 12.3221C69.3253 11.4084 69.9754 10.074 69.9754 8.58778C69.9754 5.83326 67.7424 3.60028 64.9879 3.60028H56.8504C56.2705 3.60028 55.8004 4.07038 55.8004 4.65028V12.5253V20.4003C55.8004 20.9802 56.2705 21.4503 56.8504 21.4503H65.5129C68.2674 21.4503 70.5004 19.2173 70.5004 16.4628C70.5004 14.738 69.6249 13.2177 68.294 12.3221ZM64.9879 13.5753H57.9004V19.3503H65.5129C67.1076 19.3503 68.4004 18.0575 68.4004 16.4628C68.4004 14.8681 67.1076 13.5753 65.5129 13.5753H64.9879Z" fill="#07000E"/>
</svg>
