<svg width="122" height="24" viewBox="0 0 122 24" fill="none" xmlns="http://www.w3.org/2000/svg">
<g clip-path="url(#clip0_3383_4529)">
<path d="M21.9355 22.2004C21.3434 22.2004 20.8088 21.8998 20.4524 21.4208L14.8804 13.02L20.0385 7.79961C20.7494 7.08015 21.8761 7.08015 22.5295 7.79961C23.2403 8.51907 23.2403 9.65934 22.5295 10.3206L19.3871 13.501L23.2997 19.501C23.8324 20.3407 23.5967 21.4208 22.8245 22.022C22.6463 22.0821 22.2919 22.2023 21.9355 22.2023V22.2004ZM12.4508 22.2004C11.4429 22.2004 10.6727 21.4208 10.6727 20.4008V3C10.6727 1.97996 11.4429 1.20039 12.4508 1.20039C13.4587 1.20039 14.2289 1.97996 14.2289 3V20.4008C14.2289 21.4208 13.4587 22.2004 12.4508 22.2004ZM7.11447 22.2004C6.1066 22.2004 5.33633 21.4208 5.33633 20.4008V9C5.33633 7.97996 6.1066 7.20039 7.11447 7.20039C8.12233 7.20039 8.8926 7.97996 8.8926 9V20.4008C8.8926 21.4208 8.12233 22.2004 7.11447 22.2004ZM1.77814 22.2004C0.770271 22.2004 0 21.4208 0 20.4008V15C0 13.98 0.770271 13.2004 1.77814 13.2004C2.786 13.2004 3.55628 13.98 3.55628 15V20.4008C3.55628 21.4208 2.786 22.2004 1.77814 22.2004Z" fill="#32CB64"/>
<path d="M35.808 10.2004C36.105 10.1403 36.5189 10.02 37.0534 9.89981C37.588 9.77957 38.2395 9.71946 39.0692 9.71946C40.1364 9.71946 40.9661 10.02 41.4413 10.6794C41.5007 10.6193 41.6195 10.5591 41.7383 10.4389C41.8571 10.3187 42.0947 10.1984 42.3304 10.1383C42.568 10.0181 42.8631 9.95798 43.16 9.83775C43.5164 9.77763 43.8709 9.71752 44.2273 9.71752C44.8788 9.71752 45.4134 9.83775 45.8273 10.0181C46.2411 10.1984 46.5381 10.499 46.7757 10.8578C47.0133 11.2165 47.1321 11.6374 47.2509 12.1183C47.3103 12.5992 47.3697 13.1383 47.3697 13.7376V18.5973H46.3024V14.0963C46.3024 13.4971 46.3024 13.0162 46.243 12.5953C46.1836 12.1745 46.0648 11.8158 45.946 11.5753C45.7679 11.2747 45.5897 11.0944 45.2946 10.9761C44.9995 10.8578 44.6431 10.7356 44.2273 10.7356C43.8709 10.7356 43.5758 10.7957 43.3382 10.8558C43.1006 10.916 42.8056 10.9761 42.6274 11.0963C42.4492 11.2165 42.271 11.2767 42.1522 11.3368C42.0334 11.3969 41.9146 11.5171 41.8552 11.5171C41.974 11.8177 42.0334 12.1164 42.0928 12.4771C42.1522 12.8377 42.1522 13.1965 42.1522 13.6173V18.5973H41.0849V14.0963C41.0849 13.4971 41.0849 13.0162 41.0255 12.5953C40.9661 12.1745 40.8473 11.8158 40.7285 11.5753C40.5503 11.2747 40.3721 11.0944 40.077 10.9761C39.782 10.8578 39.4256 10.7356 38.9504 10.7356C38.4177 10.7356 38.0019 10.7356 37.6455 10.7957C37.2891 10.8558 37.0534 10.916 36.9346 10.9761V18.5953H35.8674V10.1946H35.808V10.2004ZM51.9339 9.71946C52.5259 9.71946 53.0011 9.77957 53.3575 9.95992C53.7733 10.1403 54.0684 10.3206 54.306 10.6193C54.5436 10.9179 54.7218 11.2185 54.8387 11.6393C54.9575 12.0601 55.0169 12.479 55.0169 12.8998V18.3607C54.8981 18.4208 54.7199 18.4208 54.5417 18.4809C54.3041 18.541 54.0665 18.541 53.8308 18.6012C53.5951 18.6613 53.2387 18.6613 52.8823 18.7214C52.5259 18.7214 52.1714 18.7815 51.8151 18.7815C51.3399 18.7815 50.926 18.7214 50.5696 18.6012C50.2132 18.4809 49.8587 18.3607 49.5617 18.1202C49.2647 17.8798 49.0865 17.6393 48.9103 17.2805C48.7321 16.9198 48.6727 16.501 48.6727 16.02C48.6727 15.5391 48.7321 15.1202 48.9103 14.8196C49.0884 14.459 49.326 14.2204 49.6805 13.98C49.9775 13.7395 50.3914 13.6193 50.8072 13.499C51.223 13.3788 51.7557 13.3187 52.2308 13.3187H52.706C52.8842 13.3187 53.0624 13.3788 53.1812 13.3788C53.3594 13.3788 53.4782 13.4389 53.597 13.4389C53.7158 13.4389 53.7752 13.499 53.8346 13.499V12.9599C53.8346 12.6593 53.8346 12.3607 53.7752 12.0601C53.7158 11.7595 53.6564 11.521 53.4782 11.2805C53.3 11.0401 53.1218 10.8597 52.8268 10.7414C52.5298 10.6212 52.1753 10.501 51.7595 10.501C51.108 10.501 50.6328 10.5611 50.3358 10.6212C50.0388 10.6813 49.8032 10.8016 49.6844 10.8617L49.5062 9.90175C49.6844 9.84163 49.9814 9.7214 50.3952 9.66128C50.9279 9.78151 51.4031 9.7214 51.9358 9.7214L51.9339 9.71946ZM52.0527 17.8196C52.4684 17.8196 52.8229 17.8197 53.1793 17.7595C53.4763 17.7595 53.7714 17.6994 54.009 17.6393V14.5792C53.8902 14.5191 53.712 14.459 53.4169 14.3988C53.1218 14.3387 52.7654 14.2786 52.3496 14.2786C52.112 14.2786 51.817 14.2786 51.52 14.3387C51.223 14.3988 50.9873 14.459 50.7497 14.5792C50.5121 14.6994 50.3339 14.8798 50.1576 15.1183C49.9813 15.3568 49.92 15.6574 49.92 16.0181C49.92 16.3187 49.9794 16.6173 50.0982 16.8578C50.217 17.0983 50.3358 17.2786 50.5734 17.3969C50.7516 17.5171 50.9892 17.6374 51.2843 17.6975C51.4031 17.7576 51.7001 17.8177 52.0546 17.8177L52.0527 17.8196ZM59.1077 13.8597C59.5235 14.1603 59.878 14.459 60.2938 14.8196C60.7096 15.1803 61.064 15.5992 61.4798 16.02C61.8956 16.4409 62.2501 16.8597 62.5471 17.3407C62.8441 17.8216 63.1986 18.2405 63.4362 18.6012H62.1313C61.8937 18.1803 61.5986 17.7014 61.2422 17.2805C60.8859 16.8597 60.5314 16.4409 60.175 16.0802C59.8186 15.7195 59.4047 15.3607 59.0483 15.0601C58.6919 14.7595 58.3374 14.521 58.0405 14.3407V18.541H56.9732V5.75953L58.0405 5.57919V13.6794C58.278 13.499 58.5731 13.1984 58.9295 12.8397C59.2859 12.4809 59.6404 12.1202 59.9968 11.8197C60.3532 11.5191 60.7077 11.1603 61.0047 10.7996C61.3016 10.499 61.5967 10.2004 61.7749 9.95992H63.0798L62.1907 10.8597L61.1828 11.8798L60.1156 12.9599C60.1156 12.9599 59.4047 13.5591 59.1077 13.8597ZM66.1034 17.8196C66.6955 17.8196 67.2301 17.6994 67.6439 17.5191C68.0578 17.3387 68.236 16.98 68.236 16.4389C68.236 16.1984 68.1766 16.0181 68.1172 15.8397C68.0578 15.6613 67.939 15.5391 67.7608 15.3588C67.5826 15.1784 67.4044 15.1183 67.1093 14.9981C66.8123 14.8778 66.5173 14.7576 66.1015 14.5772C65.8045 14.457 65.45 14.2767 65.2124 14.1564C64.9154 14.0362 64.6797 13.8558 64.4421 13.6755C64.2045 13.4952 64.0263 13.2547 63.9095 13.0162C63.7907 12.7757 63.7313 12.4169 63.7313 12.0562C63.7313 11.3368 63.9689 10.7957 64.5015 10.3167C65.0342 9.89593 65.747 9.6574 66.6955 9.6574C67.2875 9.6574 67.7627 9.71752 68.1785 9.83775C68.5349 9.95798 68.83 10.0181 69.0082 10.0782L68.7706 11.0381C68.6518 10.978 68.4142 10.8578 68.1191 10.7977C67.8221 10.6774 67.3489 10.6173 66.7549 10.6173C66.5173 10.6173 66.2797 10.6173 66.044 10.6774C65.8083 10.7376 65.6282 10.7977 65.4519 10.9179C65.2756 11.0381 65.1549 11.1584 65.0361 11.3387C64.9173 11.5191 64.8579 11.6994 64.8579 11.9379C64.8579 12.1765 64.9173 12.3588 64.9767 12.5372C65.0361 12.7156 65.2143 12.8377 65.3925 12.958C65.5707 13.0782 65.7489 13.1984 66.044 13.3187C66.3391 13.4389 66.5767 13.5591 66.8737 13.6794C67.2301 13.7996 67.5251 13.98 67.8221 14.1002C68.1191 14.2204 68.4142 14.4008 68.6518 14.5811C68.8894 14.7615 69.0676 15.0019 69.2439 15.3006C69.3627 15.6012 69.4815 15.8998 69.4815 16.3206C69.4815 17.1002 69.1845 17.7014 68.5924 18.1202C68.0003 18.5391 67.2281 18.7195 66.2203 18.7195C65.45 18.7195 64.9154 18.6593 64.5015 18.5391C64.0857 18.4189 63.8501 18.2986 63.7313 18.2385L64.0283 17.2185C64.0877 17.2185 64.1471 17.2786 64.2658 17.3387C64.3846 17.3988 64.5034 17.459 64.741 17.5191C64.9786 17.5792 65.1568 17.6393 65.3925 17.6994C65.4519 17.8196 65.7489 17.8196 66.1034 17.8196ZM70.0755 14.2204C70.0755 13.4409 70.1943 12.7796 70.3724 12.2405C70.61 11.7014 70.8476 11.2204 71.2021 10.7996C71.5585 10.4389 71.9724 10.1403 72.3882 9.95992C72.8634 9.77957 73.2773 9.65934 73.7524 9.65934C74.8197 9.65934 75.6494 10.02 76.2434 10.6794C76.8948 11.3988 77.1918 12.4189 77.1918 13.8597V14.3407H71.1446C71.204 15.4208 71.4416 16.2004 71.9149 16.8016C72.3882 17.4027 73.1604 17.6412 74.2276 17.6412C74.8197 17.6412 75.2949 17.5811 75.6513 17.4609C76.0077 17.3407 76.2434 17.2805 76.4216 17.1603L76.5998 18.1202C76.4216 18.1803 76.1246 18.3006 75.7107 18.4208C75.2968 18.541 74.7622 18.6012 74.2276 18.6012C73.4574 18.6012 72.804 18.4809 72.3307 18.2405C71.798 18 71.3822 17.7014 71.0258 17.2805C70.6694 16.8597 70.4338 16.3807 70.2556 15.8397C70.1368 15.5391 70.0774 14.8798 70.0774 14.2204H70.0755ZM76.1821 13.5611C76.1821 12.6613 75.9445 11.9418 75.5306 11.4609C75.1148 10.98 74.5821 10.6813 73.8118 10.6813C73.396 10.6813 73.101 10.7414 72.7446 10.9218C72.4476 11.1021 72.1525 11.2825 71.9743 11.521C71.7961 11.7595 71.5585 12.0601 71.4416 12.4208C71.3248 12.7815 71.2634 13.1403 71.204 13.501H76.184V13.5611H76.1821ZM81.0432 13.8597C81.459 14.1603 81.8135 14.459 82.2293 14.8196C82.645 15.1803 82.9995 15.5992 83.4153 16.02C83.8311 16.4409 84.1856 16.8597 84.4826 17.3407C84.7796 17.8216 85.1341 18.2405 85.3717 18.6012H84.0668C83.8292 18.1803 83.5341 17.7014 83.1777 17.2805C82.8213 16.8597 82.4669 16.4409 82.1105 16.0802C81.7541 15.7195 81.3402 15.3607 80.9838 15.0601C80.6274 14.7595 80.2729 14.521 79.9759 14.3407V18.541H78.9087V5.75953L79.9759 5.57919V13.6794C80.2135 13.499 80.5086 13.1984 80.865 12.8397C81.2214 12.4809 81.5759 12.1202 81.9323 11.8197C82.2887 11.5191 82.6431 11.1603 82.9401 10.7996C83.2371 10.499 83.5322 10.2004 83.7104 9.95992H85.0153L84.1262 10.8597L83.1183 11.8798L82.0511 12.9599C82.0511 12.9599 81.3402 13.5591 81.0432 13.8597ZM85.4905 14.2204C85.4905 13.4409 85.6092 12.7796 85.7874 12.2405C86.025 11.7014 86.2626 11.2204 86.6171 10.7996C86.9735 10.4389 87.3874 10.1403 87.8032 9.95992C88.2784 9.77957 88.6922 9.65934 89.1674 9.65934C90.2347 9.65934 91.0644 10.02 91.6584 10.6794C92.3098 11.3988 92.6068 12.4189 92.6068 13.8597V14.3407H86.5596C86.619 15.4208 86.8566 16.2004 87.3299 16.8016C87.8032 17.4027 88.5754 17.6412 89.6426 17.6412C90.2347 17.6412 90.7099 17.5811 91.0663 17.4609C91.4227 17.3407 91.6584 17.2805 91.8366 17.1603L92.0148 18.1202C91.8366 18.1803 91.5396 18.3006 91.1257 18.4208C90.7118 18.541 90.1772 18.6012 89.6426 18.6012C88.8724 18.6012 88.219 18.4809 87.7457 18.2405C87.213 18 86.7972 17.7014 86.4408 17.2805C86.0844 16.8597 85.8488 16.3807 85.6706 15.8397C85.5518 15.5391 85.4924 14.8798 85.4924 14.2204H85.4905ZM91.5971 13.5611C91.5971 12.6613 91.3595 11.9418 90.9456 11.4609C90.5298 10.98 89.9971 10.6813 89.2268 10.6813C88.8111 10.6813 88.516 10.7414 88.1596 10.9218C87.8626 11.1021 87.5675 11.2825 87.3893 11.521C87.2111 11.7595 86.9735 12.0601 86.8566 12.4208C86.7397 12.7815 86.6784 13.1403 86.619 13.501H91.599V13.5611H91.5971ZM96.0424 17.8196C96.6345 17.8196 97.1691 17.6994 97.5829 17.5191C97.9987 17.3387 98.175 16.98 98.175 16.4389C98.175 16.1984 98.1156 16.0181 98.0562 15.8397C97.9968 15.6613 97.878 15.5391 97.6998 15.3588C97.5216 15.1784 97.3434 15.1183 97.0483 14.9981C96.7514 14.8778 96.4563 14.7576 96.0405 14.5772C95.7435 14.457 95.389 14.2767 95.1514 14.1564C94.8544 14.0362 94.6187 13.8558 94.3811 13.6755C94.1435 13.4952 93.9654 13.2547 93.8485 13.0162C93.7316 12.7776 93.6703 12.4169 93.6703 12.0562C93.6703 11.3368 93.9079 10.7957 94.4405 10.3167C94.9732 9.89593 95.686 9.6574 96.6345 9.6574C97.2265 9.6574 97.7017 9.71752 98.1175 9.83775C98.4739 9.95798 98.769 10.0181 98.9472 10.0782L98.7096 11.0381C98.5908 10.978 98.3532 10.8578 98.0581 10.7977C97.7611 10.6774 97.2879 10.6173 96.6939 10.6173C96.4563 10.6173 96.2187 10.6173 95.983 10.6774C95.7473 10.7376 95.5672 10.7977 95.3909 10.9179C95.2146 11.0381 95.0939 11.1584 94.9751 11.3387C94.8563 11.5191 94.7969 11.6994 94.7969 11.9379C94.7969 12.1765 94.8563 12.3588 94.9157 12.5372C94.9751 12.7175 95.1533 12.8377 95.3315 12.958C95.5097 13.0782 95.6879 13.1984 95.983 13.3187C96.2781 13.4389 96.5157 13.5591 96.8127 13.6794C97.1691 13.7996 97.4641 13.98 97.7611 14.1002C98.0581 14.2204 98.3532 14.4008 98.5908 14.5811C98.8284 14.7615 99.0066 15.0019 99.1829 15.3006C99.3017 15.6012 99.4205 15.8998 99.4205 16.3206C99.4205 17.1002 99.1235 17.7014 98.5314 18.1202C97.9393 18.5391 97.1671 18.7195 96.1593 18.7195C95.389 18.7195 94.8544 18.6593 94.4405 18.5391C94.0267 18.4189 93.7891 18.2986 93.6703 18.2385L93.9673 17.2185C94.0267 17.2185 94.0861 17.2786 94.2049 17.3387C94.3237 17.3988 94.4425 17.459 94.6801 17.5191C94.9176 17.5792 95.0958 17.6393 95.3315 17.6994C95.3909 17.8196 95.6879 17.8196 96.0424 17.8196ZM102.684 13.8597C103.099 14.1603 103.454 14.459 103.87 14.8196C104.285 15.1803 104.64 15.5992 105.056 16.02C105.472 16.4409 105.826 16.8597 106.123 17.3407C106.42 17.8216 106.774 18.2405 107.012 18.6012H105.707C105.47 18.1803 105.175 17.7014 104.818 17.2805C104.462 16.8597 104.107 16.4409 103.751 16.0802C103.394 15.7195 102.981 15.3607 102.624 15.0601C102.268 14.7595 101.913 14.521 101.616 14.3407V18.541H100.549V5.75953L101.616 5.57919V13.6794C101.854 13.499 102.149 13.1984 102.505 12.8397C102.862 12.479 103.216 12.1202 103.573 11.8197C103.929 11.5191 104.284 11.1603 104.581 10.7996C104.878 10.499 105.173 10.2004 105.351 9.95992H106.656L105.767 10.8597L104.759 11.8798L103.691 12.9599C103.691 12.9599 103.04 13.5591 102.684 13.8597ZM114.54 18.3006C114.243 18.3607 113.77 18.4809 113.236 18.6012C112.701 18.7214 112.049 18.7815 111.22 18.7815C110.568 18.7815 110.034 18.6613 109.62 18.4809C109.204 18.3006 108.85 18 108.553 17.7014C108.256 17.4008 108.077 16.9218 107.961 16.4409C107.842 15.9599 107.782 15.4208 107.782 14.8216V9.96186H108.85V14.4628C108.85 15.0621 108.909 15.6031 108.968 16.022C109.028 16.4428 109.206 16.8015 109.384 17.042C109.562 17.2825 109.859 17.5229 110.154 17.6412C110.45 17.7595 110.865 17.8216 111.281 17.8216C111.814 17.8216 112.23 17.8216 112.586 17.7615C112.942 17.7014 113.178 17.6412 113.297 17.5811V9.90175H114.364V18.3025H114.542L114.54 18.3006ZM118.334 17.8196C118.926 17.8196 119.461 17.6994 119.875 17.5191C120.291 17.3387 120.467 16.98 120.467 16.4389C120.467 16.1984 120.407 16.0181 120.348 15.8397C120.289 15.6613 120.17 15.5391 119.992 15.3588C119.813 15.1784 119.635 15.1183 119.34 14.9981C119.043 14.8778 118.748 14.7576 118.332 14.5772C118.035 14.457 117.681 14.2767 117.443 14.1564C117.146 14.0362 116.911 13.8558 116.673 13.6755C116.435 13.4952 116.257 13.2547 116.14 13.0162C116.023 12.7776 115.962 12.4169 115.962 12.0562C115.962 11.3368 116.2 10.7957 116.732 10.3167C117.265 9.89593 117.978 9.6574 118.926 9.6574C119.518 9.6574 119.994 9.71752 120.409 9.83775C120.766 9.95798 121.061 10.0181 121.239 10.0782L121.001 11.0381C120.883 10.978 120.645 10.8578 120.35 10.7977C120.053 10.6774 119.58 10.6173 118.986 10.6173C118.748 10.6173 118.511 10.6173 118.275 10.6774C118.039 10.7376 117.859 10.7977 117.683 10.9179C117.507 11.0381 117.386 11.1584 117.267 11.3387C117.148 11.5191 117.089 11.6994 117.089 11.9379C117.089 12.1765 117.148 12.3588 117.208 12.5372C117.267 12.7175 117.445 12.8377 117.623 12.958C117.802 13.0782 117.98 13.1984 118.275 13.3187C118.57 13.4389 118.808 13.5591 119.105 13.6794C119.461 13.7996 119.756 13.98 120.053 14.1002C120.35 14.2204 120.645 14.4008 120.883 14.5811C121.12 14.7615 121.298 15.0019 121.475 15.3006C121.594 15.6012 121.712 15.8998 121.712 16.3206C121.712 17.1002 121.415 17.7014 120.823 18.1202C120.231 18.541 119.459 18.7195 118.451 18.7195C117.681 18.7195 117.146 18.6593 116.732 18.5391C116.319 18.4189 116.081 18.2986 115.962 18.2385L116.259 17.2185C116.319 17.2185 116.378 17.2786 116.497 17.3387C116.616 17.3988 116.734 17.459 116.972 17.5191C117.21 17.5792 117.388 17.6393 117.623 17.6994C117.683 17.8196 117.98 17.8196 118.334 17.8196Z" fill="#888888"/>
<path d="M29.0499 0H29.642V24H29.0499V0Z" fill="#E5E5E5"/>
</g>
<defs>
<clipPath id="clip0_3383_4529">
<rect width="121.714" height="24" fill="white"/>
</clipPath>
</defs>
</svg>
