<svg width="38" height="24" viewBox="0 0 38 24" fill="none" xmlns="http://www.w3.org/2000/svg">
<g clip-path="url(#clip0_3383_4794)">
<path d="M22.5 5.70999H15.5V18.29H22.5V5.70999Z" fill="#FF5F00"/>
<path d="M15.95 12C15.95 9.54999 17.07 7.22999 19.01 5.70999C15.54 2.97999 10.51 3.57999 7.78 7.05999C5.05 10.53 5.65 15.56 9.13 18.29C12.03 20.57 16.12 20.57 19.02 18.29C17.09 16.77 15.96 14.46 15.96 12H15.95Z" fill="#EB001B"/>
<path d="M31.94 12C31.94 16.42 28.36 20 23.94 20C22.15 20 20.41 19.4 19 18.29C22.47 15.56 23.08 10.53 20.34 7.05999C19.95 6.55999 19.5 6.10999 19 5.71999C22.47 2.98999 27.5 3.58999 30.23 7.06999C31.34 8.47999 31.94 10.22 31.94 12.01V12Z" fill="#F79E1B"/>
<path d="M31.18 16.96V16.7H31.28V16.65H31.02V16.7H31.12V16.96H31.18ZM31.69 16.96V16.65H31.61L31.52 16.86L31.43 16.65H31.35V16.96H31.41V16.73L31.5 16.93H31.56L31.65 16.73V16.96H31.71H31.69Z" fill="#F79E1B"/>
<path d="M35 0.5C36.38 0.5 37.5 1.62 37.5 3V21C37.5 22.38 36.38 23.5 35 23.5H3C1.62 23.5 0.5 22.38 0.5 21V3C0.5 1.62 1.62 0.5 3 0.5H35ZM35 0H3C1.34 0 0 1.34 0 3V21C0 22.66 1.34 24 3 24H35C36.66 24 38 22.66 38 21V3C38 1.34 36.66 0 35 0Z" fill="black"/>
</g>
<defs>
<clipPath id="clip0_3383_4794">
<rect width="38" height="24" fill="white"/>
</clipPath>
</defs>
</svg>
