<svg viewBox="0 0 124 40" fill="none" xmlns="http://www.w3.org/2000/svg">
<g clip-path="url(#clip0_534_4175)">
<path fill-rule="evenodd" clip-rule="evenodd" d="M61.8262 6.2627V12.8942C60.5524 12.3259 59.1702 12.0392 57.7747 12.0537C52.6429 12.0537 49.1067 15.5275 49.1067 20.2222C49.1067 24.917 52.6429 28.3908 57.7747 28.3908C62.9063 28.3908 66.4424 24.917 66.4424 20.2222V6.24978L61.8262 6.2627ZM57.7704 24.616C55.3986 24.616 53.7037 22.9694 53.7037 20.2201C53.7037 17.4708 55.3921 15.8263 57.7704 15.8263C60.1487 15.8263 61.8391 17.4708 61.8391 20.2201C61.8391 22.9694 60.1487 24.616 57.7704 24.616ZM84.4072 25.815L84.4091 25.817L84.4096 25.8122L84.411 25.8106V25.7977L84.4096 25.8122L84.4072 25.815ZM84.4072 25.815L81.9527 23.1622C81.4224 23.7018 80.107 24.697 77.9599 24.697C75.7256 24.697 74.3501 23.8092 73.7289 22.3324L85.5043 20.0625C85.5043 15.5182 82.3085 12.038 77.278 12.038C72.4505 12.038 68.7591 15.3699 68.7591 20.2065C68.7591 24.9098 72.3014 28.375 77.8411 28.375C80.788 28.375 82.9969 27.4459 84.4072 25.815ZM81.0363 18.2374C80.6614 16.9305 79.4734 15.5225 77.278 15.5225C74.4361 15.5225 73.2852 17.7775 73.2852 19.7422L81.0363 18.2374ZM29.303 20.2139C29.303 15.5191 32.8715 12.0454 38.0464 12.0454C43.2234 12.0454 46.7899 15.5191 46.7899 20.2139C46.7899 24.9086 43.2234 28.3825 38.0464 28.3825C32.8693 28.3825 29.303 24.9086 29.303 20.2139ZM33.9776 20.216C33.9776 22.9654 35.6746 24.612 38.0464 24.612V24.6185C40.4247 24.6185 42.1152 22.9633 42.1152 20.216C42.1152 17.4689 40.4247 15.8223 38.0464 15.8223C35.6681 15.8223 33.9776 17.4667 33.9776 20.216ZM95.9574 12.0454C91.1404 12.0454 87.822 15.5191 87.822 20.2139V28.1481H92.1712V20.2139C92.1712 17.4667 93.7453 15.8201 95.9574 15.8201C98.17 15.8201 99.7441 17.4667 99.7441 20.2139V28.1481H104.091V20.2139C104.091 15.5191 100.774 12.0454 95.9574 12.0454ZM123.75 20.2265V28.1607L119.136 28.1585V26.8744C118.182 27.7729 116.591 28.395 115.082 28.395C109.948 28.395 106.414 24.9213 106.414 20.2265C106.414 15.5317 109.95 12.058 115.082 12.058C120.214 12.058 123.75 15.5296 123.75 20.2265ZM111.054 20.2222C111.054 22.9715 112.729 24.6181 115.089 24.6181C117.436 24.6181 119.12 22.9715 119.12 20.2222C119.12 17.4728 117.447 15.8284 115.089 15.8284C112.729 15.8284 111.054 17.4728 111.054 20.2222ZM15.9928 12.5691C16.9509 12.1848 17.9766 11.9958 19.0092 12.0134C23.6774 12.0134 26.8643 15.5152 26.8643 20.2013V28.1355H22.2478V20.2013C22.2478 17.4541 21.159 15.8075 19.0135 15.8075C16.8681 15.8075 15.7425 17.4541 15.7425 20.2013V28.1355H11.1282V20.1819C11.1282 17.4433 9.99189 15.8033 7.85076 15.8033C5.70966 15.8033 4.61646 17.4433 4.61646 20.1819V28.1355H0V20.1819C0.00646866 15.5109 3.1912 12.0264 7.84649 12.0264C8.87888 12.0091 9.90439 12.1969 10.8632 12.5789C11.822 12.9608 12.695 13.5294 13.4311 14.2512C14.1636 13.5254 15.0347 12.9534 15.9928 12.5691Z" fill="#20211C"/>
</g>
<defs>
<clipPath id="clip0_534_4175">
<rect width="123.75" height="40" fill="white"/>
</clipPath>
</defs>
</svg>
