<svg width="79" height="24" viewBox="0 0 79 24" fill="none" xmlns="http://www.w3.org/2000/svg">
<g clip-path="url(#clip0_3383_4773)">
<mask id="mask0_3383_4773" style="mask-type:luminance" maskUnits="userSpaceOnUse" x="0" y="6" width="79" height="15">
<path d="M78.63 6.35001H0V20.78H78.63V6.35001Z" fill="white"/>
</mask>
<g mask="url(#mask0_3383_4773)">
<path d="M51.61 11.11V9.36001H49.51V7.07001H47.48V15.41C47.48 16.18 47.67 16.76 48.05 17.15C48.43 17.54 49.02 17.73 49.81 17.73H51.6V15.98H50.29C50.01 15.98 49.8 15.92 49.68 15.79C49.57 15.68 49.5 15.39 49.5 15.06V11.11H51.6H51.61Z" fill="black"/>
<path d="M23.53 9.36L21.43 15.46L19.33 9.36H17.2L20.22 17.66H22.62L25.64 9.36H23.51H23.53Z" fill="black"/>
<path d="M37.23 6.35001H35.2V17.66H37.23V6.35001Z" fill="black"/>
<path d="M44.19 13.52C44.19 14.05 44.11 14.5 43.95 14.88C43.79 15.25 43.57 15.54 43.29 15.73C43.01 15.92 42.66 16.02 42.25 16.02C41.67 16.02 41.23 15.83 40.95 15.45C40.66 15.07 40.52 14.5 40.52 13.74V9.36H38.49V13.96C38.49 14.68 38.58 15.28 38.76 15.77C38.94 16.25 39.18 16.65 39.48 16.94C39.78 17.23 40.14 17.44 40.53 17.57C40.92 17.69 41.34 17.76 41.78 17.76C42.41 17.76 42.94 17.65 43.34 17.42C43.7 17.21 44.01 16.97 44.25 16.7L44.43 17.67H46.21V9.37H44.18V13.53L44.19 13.52Z" fill="black"/>
<path d="M32.1 9.8C31.46 9.45 30.7 9.27 29.85 9.27C29 9.27 28.25 9.45 27.6 9.8C26.96 10.15 26.45 10.66 26.09 11.29C25.74 11.92 25.56 12.67 25.56 13.52C25.56 14.37 25.74 15.1 26.09 15.73C26.44 16.36 26.95 16.86 27.6 17.22C28.24 17.57 29 17.75 29.85 17.75C30.7 17.75 31.46 17.57 32.1 17.22C32.74 16.87 33.24 16.36 33.6 15.73C33.95 15.1 34.13 14.35 34.13 13.52C34.13 12.69 33.95 11.92 33.6 11.29C33.25 10.66 32.74 10.16 32.1 9.8ZM31.03 15.73C30.7 15.94 30.31 16.05 29.85 16.05C29.39 16.05 29.01 15.94 28.67 15.73C28.34 15.52 28.08 15.22 27.89 14.84C27.71 14.46 27.61 14.02 27.61 13.52C27.61 13.02 27.7 12.57 27.89 12.2C28.07 11.83 28.33 11.52 28.67 11.31C29 11.09 29.4 10.98 29.84 10.98C30.28 10.98 30.7 11.09 31.02 11.31C31.35 11.53 31.61 11.83 31.79 12.2C31.97 12.58 32.07 13.02 32.07 13.52C32.07 14.02 31.98 14.45 31.79 14.84C31.61 15.22 31.35 15.52 31.02 15.73H31.03Z" fill="black"/>
<path d="M2.11 9.14H0V17.66H2.11V9.14Z" fill="black"/>
<path d="M8.71 9.63001C8.71 7.82001 7.24 6.35001 5.43 6.35001H0V8.17001H5.17C5.99 8.17001 6.67 8.81001 6.68 9.60001C6.68 10 6.54 10.37 6.26 10.65C5.98 10.93 5.61 11.09 5.22 11.09H3.21C3.14 11.09 3.08 11.15 3.08 11.22V12.84C3.08 12.84 3.08 12.89 3.1 12.92L6.52 17.66H9.02L5.59 12.91C7.32 12.82 8.7 11.37 8.7 9.64001L8.71 9.63001Z" fill="black"/>
<path d="M15.19 9.75001C14.58 9.43001 13.86 9.26001 13.05 9.26001C12.24 9.26001 11.51 9.44001 10.88 9.79001C10.26 10.14 9.77 10.65 9.42 11.28C9.08 11.91 8.9 12.67 8.9 13.53C8.9 14.39 9.08 15.11 9.43 15.74C9.78 16.37 10.28 16.87 10.93 17.22C11.57 17.57 12.34 17.75 13.22 17.75C13.92 17.75 14.54 17.62 15.08 17.36C15.62 17.1 16.06 16.75 16.38 16.31C16.69 15.9 16.9 15.43 17 14.92V14.87H15V14.9C14.88 15.28 14.66 15.58 14.35 15.79C14.01 16.02 13.6 16.13 13.12 16.13C12.71 16.13 12.35 16.04 12.03 15.87C11.71 15.7 11.47 15.46 11.3 15.14C11.13 14.83 11.03 14.45 11.01 14.03V13.96H17.1V13.92C17.13 13.8 17.14 13.68 17.15 13.56C17.15 13.44 17.15 13.32 17.15 13.21C17.14 12.41 16.96 11.7 16.62 11.11C16.28 10.52 15.79 10.06 15.19 9.73001V9.75001ZM14.45 11.31C14.8 11.6 15.01 12.02 15.09 12.54H11.08C11.13 12.2 11.24 11.9 11.42 11.66C11.61 11.41 11.85 11.21 12.13 11.07C12.42 10.93 12.73 10.86 13.06 10.86C13.62 10.86 14.09 11.01 14.45 11.31Z" fill="black"/>
<path d="M63.21 10.07C63.21 12.12 61.77 13.45 59.58 13.45H56.73V17.66H55.37V6.71001H59.58C61.77 6.71001 63.21 8.02001 63.21 10.07ZM59.46 12.2C60.9 12.2 61.82 11.37 61.82 10.07C61.82 8.77001 60.91 7.96001 59.47 7.96001H56.73V12.2H59.45H59.46Z" fill="black"/>
<path d="M63.56 15.42C63.56 13.83 64.67 12.93 66.76 12.93H69.11V12.38C69.11 11.35 68.38 10.72 67.12 10.72C65.99 10.72 65.24 11.25 65.09 12.06H63.81C64 10.5 65.26 9.57001 67.19 9.57001C69.22 9.57001 70.4 10.59 70.4 12.45V17.64H69.29L69.18 16.39C68.68 17.11 67.88 17.73 66.51 17.73C64.76 17.73 63.57 16.85 63.57 15.4L63.56 15.42ZM66.59 16.66C68.18 16.66 69.11 15.74 69.11 14.41V14.02H66.64C65.5 14.02 64.86 14.44 64.86 15.35C64.86 16.13 65.53 16.66 66.6 16.66H66.59Z" fill="black"/>
<path d="M72.44 9.68001L74.89 16.04L77.27 9.68001H78.63L74.96 19C74.46 20.28 74.16 20.78 73.04 20.78H71.51V19.61H72.65C73.38 19.61 73.51 19.42 73.81 18.67L74.2 17.7L71.09 9.68001H72.45H72.44Z" fill="black"/>
</g>
</g>
<defs>
<clipPath id="clip0_3383_4773">
<rect width="78.63" height="24" fill="white"/>
</clipPath>
</defs>
</svg>
