<svg width="42" height="24" viewBox="0 0 42 24" fill="none" xmlns="http://www.w3.org/2000/svg">
<g clip-path="url(#clip0_3383_4791)">
<path d="M16.64 6.36L11.9 17.67H8.81L6.48 8.64C6.34 8.08 6.22 7.88 5.78 7.65C5.08 7.27 3.91 6.91 2.89 6.69L2.96 6.36H7.94C8.57 6.36 9.15 6.78 9.29 7.51L10.52 14.06L13.57 6.36H16.64ZM28.76 13.98C28.77 10.99 24.63 10.83 24.66 9.5C24.66 9.09 25.06 8.66 25.9 8.55C26.32 8.5 27.47 8.45 28.79 9.06L29.3 6.66C28.6 6.4 27.69 6.16 26.56 6.16C23.67 6.16 21.63 7.7 21.61 9.9C21.59 11.53 23.06 12.44 24.17 12.98C25.31 13.53 25.69 13.89 25.69 14.39C25.69 15.15 24.78 15.48 23.94 15.5C22.47 15.52 21.62 15.1 20.93 14.79L20.4 17.27C21.08 17.58 22.35 17.86 23.65 17.87C26.72 17.87 28.74 16.35 28.75 14M36.4 17.67H39.11L36.75 6.36H34.25C33.69 6.36 33.21 6.69 33 7.19L28.61 17.67H31.68L32.29 15.98H36.04L36.39 17.67H36.4ZM33.14 13.66L34.68 9.41L35.57 13.66H33.14ZM20.82 6.36L18.4 17.67H15.47L17.89 6.36H20.82Z" fill="#1434CB"/>
<path d="M39 0.5C40.38 0.5 41.5 1.62 41.5 3V21C41.5 22.38 40.38 23.5 39 23.5H3C1.62 23.5 0.5 22.38 0.5 21V3C0.5 1.62 1.62 0.5 3 0.5H39ZM39 0H3C1.34 0 0 1.34 0 3V21C0 22.66 1.34 24 3 24H39C40.66 24 42 22.66 42 21V3C42 1.34 40.66 0 39 0Z" fill="black"/>
</g>
<defs>
<clipPath id="clip0_3383_4791">
<rect width="42" height="24" fill="white"/>
</clipPath>
</defs>
</svg>
